<svg width="96" height="96" viewBox="0 0 96 96" fill="none" xmlns="http://www.w3.org/2000/svg">
<path fill-rule="evenodd" clip-rule="evenodd" d="M55.3499 38.1H63.8249V46.725H68.0999C70.0499 46.725 72.0749 46.35 73.9499 45.75C74.8499 45.45 75.8999 45 76.7999 44.475C75.5999 42.9 74.9999 40.95 74.8499 39C74.6249 36.375 75.1499 32.925 76.9499 30.9L77.8499 29.85L78.8999 30.675C81.5999 32.85 83.7749 35.775 84.2249 39.225C87.4499 38.25 91.1999 38.475 94.0499 40.125L95.1749 40.8L94.5749 42C92.1749 46.65 87.1499 48.15 82.2749 47.85C74.9249 66.075 59.0249 74.7 39.6749 74.7C29.6999 74.7 20.5499 70.95 15.2999 62.1L15.2249 61.95L14.4749 60.375C12.6749 56.475 12.1499 52.2 12.5249 47.925L12.6749 46.65H19.8749V38.1H28.3499V29.7H45.2249V21.225H55.3499V38.1Z" fill="#3A4D54"/>
<path d="M82.8 41.325C83.4 36.9 80.1 33.45 78 31.8C75.675 34.5 75.3 41.7 78.975 44.7C76.875 46.5 72.6 48.225 68.1 48.225H13.95C13.5 52.875 14.325 57.15 16.2 60.825L16.8 61.95C17.175 62.625 17.625 63.225 18.075 63.9C20.325 64.05 22.35 64.125 24.225 64.05C27.9 63.975 30.9 63.525 33.225 62.775C33.6 62.625 33.9 62.85 34.05 63.15C34.2 63.525 33.975 63.825 33.675 63.975C33.375 64.05 33.075 64.2 32.7 64.275C30.9 64.8 28.95 65.1 26.475 65.25H26.025C25.05 65.325 24 65.325 22.875 65.325C21.675 65.325 20.55 65.325 19.2 65.25C23.7 70.35 30.75 73.35 39.6 73.35C58.35 73.35 74.25 65.025 81.225 46.425C86.25 46.95 91.05 45.675 93.225 41.4C89.85 39.375 85.35 40.05 82.8 41.325Z" fill="#00AADA"/>
<path d="M82.8 41.325C83.4 36.9 80.1 33.45 78 31.8C75.675 34.5 75.3 41.7 78.975 44.7C76.875 46.5 72.6 48.225 68.1 48.225H17.1C16.875 55.35 19.5 60.75 24.225 63.975C27.9 63.9 30.9 63.45 33.225 62.7C33.6 62.55 33.9 62.775 34.05 63.075C34.2 63.45 33.975 63.75 33.675 63.9C33.375 63.975 33.075 64.125 32.7 64.2C30.9 64.725 28.8 65.1 26.325 65.25L26.25 65.175C32.625 68.475 41.85 68.4 52.5 64.35C64.35 59.775 75.45 51.075 83.175 41.175C83.025 41.25 82.875 41.25 82.8 41.325Z" fill="#28B8EB"/>
<path d="M14.0249 53.85C14.3249 56.325 15.0749 58.65 16.1999 60.825L16.7999 61.95C17.1749 62.625 17.6249 63.225 18.0749 63.9C20.3249 64.05 22.3499 64.125 24.2249 64.05C27.8999 63.975 30.8999 63.525 33.2249 62.775C33.5999 62.625 33.8999 62.85 34.0499 63.15C34.1999 63.525 33.9749 63.825 33.6749 63.975C33.3749 64.05 33.0749 64.2 32.6999 64.275C30.8999 64.8 28.7999 65.175 26.3249 65.325H26.0249C25.0499 65.4 23.9999 65.4 22.9499 65.4C21.7499 65.4 20.5499 65.4 19.2749 65.325C23.7749 70.425 30.8999 73.425 39.7499 73.425C55.7999 73.425 69.7499 67.35 77.8499 53.925H14.0249V53.85Z" fill="#028BB8"/>
<path d="M17.625 53.85C18.6 58.2 20.85 61.65 24.225 63.975C27.9 63.9 30.9 63.45 33.225 62.7C33.6 62.55 33.9 62.775 34.05 63.075C34.2 63.45 33.975 63.75 33.675 63.9C33.375 63.975 33.075 64.125 32.7 64.2C30.9 64.725 28.8 65.1 26.25 65.25C32.625 68.55 41.85 68.475 52.425 64.425C58.8 61.95 65.025 58.275 70.575 53.85H17.625Z" fill="#019BC6"/>
<path fill-rule="evenodd" clip-rule="evenodd" d="M21.3 39.525H28.65V46.875H21.3V39.525ZM21.9 40.125H22.5V46.2H21.9V40.125ZM22.95 40.125H23.55V46.2H22.95V40.125ZM24.075 40.125H24.6751V46.2H24.075V40.125ZM25.2 40.125H25.8001V46.2H25.2V40.125ZM26.325 40.125H26.9251V46.2H26.325V40.125ZM27.45 40.125H28.0501V46.2H27.45V40.125ZM29.7 31.125H37.0501V38.475H29.7V31.125ZM30.375 31.725H30.975V37.8H30.375V31.725ZM31.4251 31.725H32.025V37.8H31.4251V31.725ZM32.5501 31.725H33.15V37.8H32.5501V31.725ZM33.6751 31.725H34.275V37.8H33.6751V31.725ZM34.725 31.725H35.325V37.8H34.725V31.725ZM35.85 31.725H36.45V37.8H35.85V31.725Z" fill="#00ACD3"/>
<path fill-rule="evenodd" clip-rule="evenodd" d="M29.7002 39.525H37.0502V46.875H29.7002V39.525ZM30.3752 40.125H30.9752V46.2H30.3752V40.125ZM31.4252 40.125H32.0252V46.2H31.4252V40.125ZM32.5502 40.125H33.1502V46.2H32.5502V40.125ZM33.6752 40.125H34.2752V46.2H33.6752V40.125ZM34.7252 40.125H35.3252V46.2H34.7252V40.125ZM35.8502 40.125H36.4502V46.2H35.8502V40.125Z" fill="#23C2EE"/>
<path fill-rule="evenodd" clip-rule="evenodd" d="M38.1748 39.525H45.5248V46.875H38.1748V39.525ZM38.7748 40.125H39.3748V46.2H38.7748V40.125ZM39.8998 40.125H40.4998V46.2H39.8998V40.125ZM41.0248 40.125H41.6248V46.2H41.0248V40.125ZM42.0748 40.125H42.6748V46.2H42.0748V40.125ZM43.1998 40.125H43.7998V46.2H43.1998V40.125ZM44.3248 40.125H44.9248V46.2H44.3248V40.125Z" fill="#00ACD3"/>
<path fill-rule="evenodd" clip-rule="evenodd" d="M38.1748 31.125H45.5248V38.475H38.1748V31.125ZM38.7748 31.725H39.3748V37.8H38.7748V31.725ZM39.8998 31.725H40.4998V37.8H39.8998V31.725ZM41.0248 31.725H41.6248V37.8H41.0248V31.725ZM42.0748 31.725H42.6748V37.8H42.0748V31.725ZM43.1998 31.725H43.7998V37.8H43.1998V31.725ZM44.3248 31.725H44.9248V37.8H44.3248V31.725ZM46.6498 39.525H53.9998V46.875H46.6498V39.525ZM47.2498 40.125H47.8498V46.2H47.2498V40.125ZM48.3748 40.125H48.9748V46.2H48.3748V40.125ZM49.4248 40.125H50.0248V46.2H49.4248V40.125ZM50.5498 40.125H51.1498V46.2H50.5498V40.125ZM51.6748 40.125H52.2748V46.2H51.6748V40.125ZM52.7998 40.125H53.3998V46.2H52.7998V40.125Z" fill="#23C2EE"/>
<path fill-rule="evenodd" clip-rule="evenodd" d="M46.6499 31.125H53.9999V38.475H46.6499V31.125ZM47.2499 31.725H47.8499V37.8H47.2499V31.725ZM48.3749 31.725H48.9749V37.8H48.3749V31.725ZM49.4249 31.725H50.0249V37.8H49.4249V31.725ZM50.5499 31.725H51.1499V37.8H50.5499V31.725ZM51.6749 31.725H52.2749V37.8H51.6749V31.725ZM52.7999 31.725H53.3999V37.8H52.7999V31.725Z" fill="#00ACD3"/>
<path fill-rule="evenodd" clip-rule="evenodd" d="M46.6499 22.65H53.9999V30H46.6499V22.65ZM47.2499 23.25H47.8499V29.325H47.2499V23.25ZM48.3749 23.25H48.9749V29.325H48.3749V23.25ZM49.4249 23.25H50.0249V29.325H49.4249V23.25ZM50.5499 23.25H51.1499V29.325H50.5499V23.25ZM51.6749 23.25H52.2749V29.325H51.6749V23.25ZM52.7999 23.25H53.3999V29.325H52.7999V23.25Z" fill="#23C2EE"/>
<path fill-rule="evenodd" clip-rule="evenodd" d="M55.125 39.525H62.475V46.875H55.125V39.525ZM55.725 40.125H56.325V46.2H55.725V40.125ZM56.775 40.125H57.375V46.2H56.775V40.125ZM57.9 40.125H58.5V46.2H57.9V40.125ZM59.025 40.125H59.625V46.2H59.025V40.125ZM60.15 40.125H60.75V46.2H60.15V40.125ZM61.275 40.125H61.875V46.2H61.275V40.125Z" fill="#00ACD3"/>
<path fill-rule="evenodd" clip-rule="evenodd" d="M36.6002 58.725C37.7252 58.725 38.6252 59.625 38.6252 60.75C38.6252 61.875 37.7252 62.775 36.6002 62.775C35.4752 62.775 34.5752 61.875 34.5752 60.75C34.5752 59.625 35.4752 58.725 36.6002 58.725Z" fill="#D4EEF1"/>
<path fill-rule="evenodd" clip-rule="evenodd" d="M36.6 59.325C36.75 59.325 36.975 59.325 37.125 59.4C36.975 59.475 36.825 59.7 36.825 59.925C36.825 60.225 37.125 60.525 37.425 60.525C37.65 60.525 37.875 60.375 37.95 60.225C38.025 60.375 38.025 60.6 38.025 60.75C38.025 61.575 37.35 62.175 36.6 62.175C35.775 62.175 35.175 61.5 35.175 60.75C35.175 60 35.775 59.325 36.6 59.325ZM0.824951 54.6H94.875C92.85 54.075 88.425 53.4 89.1 50.7C85.35 54.975 76.425 53.7 74.1 51.6C71.55 55.275 56.85 53.85 55.875 51C52.725 54.75 42.9 54.75 39.75 51C38.7 53.85 24 55.275 21.525 51.6C19.275 53.7 10.275 54.975 6.52495 50.7C7.34995 53.325 2.84995 54.075 0.824951 54.6Z" fill="#3A4D54"/>
<path d="M42 73.35C36.975 70.95 34.275 67.725 32.7 64.2C30.825 64.725 28.575 65.1 26.025 65.25C25.05 65.325 24 65.325 22.95 65.325C21.675 65.325 20.4 65.325 19.05 65.25C23.55 69.75 29.2501 73.275 39.6751 73.35H42Z" fill="#BFDBE0"/>
<path d="M34.5749 67.425C33.8999 66.45 33.2249 65.325 32.6999 64.2C30.8249 64.725 28.5749 65.1 26.0249 65.25C27.7499 66.15 30.2999 67.05 34.5749 67.425Z" fill="#D4EEF1"/>
</svg>
