<svg width="58" height="58" viewBox="0 0 58 58" fill="none" xmlns="http://www.w3.org/2000/svg">
<g clip-path="url(#clip0_485_335)">
<path d="M17.5189 22.0536L28.5117 15.6917C28.6497 15.6226 28.8019 15.5866 28.9562 15.5866C29.1105 15.5866 29.2627 15.6226 29.4007 15.6917L40.4402 22.0536C40.7211 22.194 40.9083 22.5212 40.9083 22.8017V35.5254C40.9083 35.8531 40.7211 36.1335 40.4402 36.3207L29.4474 42.6825C29.3094 42.7517 29.1572 42.7877 29.0029 42.7877C28.8485 42.7877 28.6963 42.7517 28.5583 42.6825L17.5189 36.3207C17.2379 36.1802 17.0508 35.8531 17.0508 35.5254V22.8017C17.0508 22.5208 17.2379 22.1936 17.5189 22.0536Z" fill="#8080F2"/>
<path d="M57.6083 27.8536L44.4631 4.93227C43.9955 4.09036 43.1069 3.48227 42.1245 3.48227H15.8347C14.8994 3.48227 14.0104 4.09036 13.4961 4.93227L0.350934 27.8074C0.121077 28.2225 0.000488281 28.6893 0.000488281 29.1638C0.000488281 29.6383 0.121077 30.1051 0.350934 30.5202L13.4961 53.2549C13.9637 54.0968 14.8523 54.5177 15.8347 54.5177H42.1712C43.1069 54.5177 43.9955 54.0968 44.5102 53.3015L57.6554 30.5669C58.123 29.6317 58.123 28.6488 57.6083 27.8536ZM46.7083 38.8464C46.7083 39.174 46.5212 39.5012 46.1936 39.6416L29.447 49.3249C29.308 49.4162 29.1454 49.4649 28.9791 49.4649C28.8129 49.4649 28.6502 49.4162 28.5113 49.3249L11.7185 39.6888C11.4375 39.5016 11.2037 39.2211 11.2037 38.8935V19.4803C11.2037 19.1531 11.3909 18.8255 11.7185 18.6855L28.5117 9.00224C28.6507 8.91092 28.8133 8.86227 28.9796 8.86227C29.1459 8.86227 29.3085 8.91092 29.4474 9.00224L46.2412 18.6855C46.5217 18.8722 46.7555 19.1531 46.7555 19.4803V38.8469L46.7083 38.8464Z" fill="#4B32C3"/>
</g>
<defs>
<clipPath id="clip0_485_335">
<rect width="58" height="58" fill="white"/>
</clipPath>
</defs>
</svg>
