<svg width="43" height="64" viewBox="0 0 43 64" fill="none" xmlns="http://www.w3.org/2000/svg">
<g clip-path="url(#clip0_95_103)">
<mask id="mask0_95_103" style="mask-type:luminance" maskUnits="userSpaceOnUse" x="0" y="0" width="43" height="64">
<path d="M42.4691 0H0V64H42.4691V0Z" fill="white"/>
</mask>
<g mask="url(#mask0_95_103)">
<path d="M10.6173 64.0002C16.478 64.0002 21.2346 59.2214 21.2346 53.3334V42.6668H10.6173C4.75654 42.6668 0 47.4454 0 53.3334C0 59.2214 4.75654 64.0002 10.6173 64.0002Z" fill="#0ACF83"/>
<path d="M0 31.9998C0 26.1118 4.75654 21.3332 10.6173 21.3332H21.2346V42.6666H10.6173C4.75654 42.6666 0 37.8878 0 31.9998Z" fill="#A259FF"/>
<path d="M0 10.6666C0 4.77866 4.75654 0 10.6173 0H21.2346V21.3334H10.6173C4.75654 21.3334 0 16.5546 0 10.6666Z" fill="#F24E1E"/>
<path d="M21.2344 0H31.8517C37.7125 0 42.469 4.77866 42.469 10.6666C42.469 16.5546 37.7125 21.3334 31.8517 21.3334H21.2344V0Z" fill="#FF7262"/>
<path d="M42.469 31.9998C42.469 37.8878 37.7125 42.6666 31.8517 42.6666C25.991 42.6666 21.2344 37.8878 21.2344 31.9998C21.2344 26.1118 25.991 21.3332 31.8517 21.3332C37.7125 21.3332 42.469 26.1118 42.469 31.9998Z" fill="#1ABCFE"/>
</g>
</g>
<defs>
<clipPath id="clip0_95_103">
<rect width="43" height="64" fill="white"/>
</clipPath>
</defs>
</svg>
