<svg width="60" height="60" viewBox="0 0 60 60" fill="none" xmlns="http://www.w3.org/2000/svg">
<g clip-path="url(#clip0_484_241)">
<path d="M58.8679 27.328L32.6718 1.1296C31.9471 0.405543 30.9646 -0.00117302 29.9401 -0.00117302C28.9157 -0.00117302 27.9332 0.405543 27.2085 1.1296L21.7687 6.5671L28.6687 13.4694C29.4824 13.1918 30.3578 13.1485 31.195 13.3444C32.0322 13.5403 32.7975 13.9677 33.4035 14.5776C34.0095 15.1875 34.4319 15.9555 34.6224 16.7939C34.813 17.6324 34.764 18.5075 34.4812 19.3194L41.1304 25.971C42.1243 25.6293 43.2052 25.6386 44.1931 25.9972C45.181 26.3559 46.0161 27.0423 46.5593 27.942C47.1025 28.8417 47.3209 29.9005 47.1781 30.9417C47.0354 31.9829 46.5401 32.9438 45.7748 33.6641C45.0095 34.3845 44.0205 34.8208 42.9725 34.9003C41.9246 34.9799 40.881 34.6979 40.0157 34.1013C39.1505 33.5047 38.5158 32.6297 38.2175 31.6219C37.9192 30.6141 37.9753 29.5346 38.3765 28.5632L32.1749 22.3593V38.6812C33.1175 39.1473 33.8719 39.9224 34.3123 40.8772C34.7528 41.8321 34.8526 42.9091 34.5952 43.9287C34.3378 44.9483 33.7388 45.8488 32.8979 46.4803C32.057 47.1117 31.0252 47.4359 29.9743 47.3988C28.9233 47.3616 27.9169 46.9654 27.1227 46.2762C26.3285 45.587 25.7945 44.6464 25.6098 43.6112C25.425 42.576 25.6006 41.5087 26.1073 40.5873C26.6141 39.6659 27.4213 38.946 28.3944 38.5476V22.078C27.833 21.848 27.3226 21.5091 26.8928 21.0808C26.463 20.6526 26.1222 20.1434 25.8901 19.5828C25.6581 19.0221 25.5393 18.4211 25.5408 17.8144C25.5422 17.2076 25.6637 16.6071 25.8983 16.0476L19.0921 9.24366L1.13194 27.2062C0.40717 27.931 0 28.914 0 29.939C0 30.964 0.40717 31.947 1.13194 32.6718L27.328 58.8679C28.0528 59.5926 29.0358 59.9998 30.0608 59.9998C31.0858 59.9998 32.0689 59.5926 32.7937 58.8679L58.8679 32.7937C59.5928 32.0685 60 31.0851 60 30.0597C60 29.0343 59.5928 28.0509 58.8679 27.3257" fill="#DE4C36"/>
</g>
<defs>
<clipPath id="clip0_484_241">
<rect width="60" height="60" fill="white"/>
</clipPath>
</defs>
</svg>
