<svg width="63" height="62" viewBox="0 0 63 62" fill="none" xmlns="http://www.w3.org/2000/svg">
<path d="M31.5002 0C14.1054 0 0 14.2303 0 31.7849C0 45.8282 9.02573 57.7428 21.5418 61.9455C23.1161 62.2398 23.6942 61.256 23.6942 60.4164C23.6942 59.6585 23.6646 57.1548 23.6513 54.499C14.8879 56.4215 13.0388 50.7487 13.0388 50.7487C11.6058 47.0748 9.54105 46.0977 9.54105 46.0977C6.68317 44.125 9.75663 44.1658 9.75663 44.1658C12.9197 44.3897 14.5852 47.4411 14.5852 47.4411C17.3949 52.3001 21.9545 50.8954 23.752 50.0832C24.0347 48.0291 24.851 46.6266 25.752 45.833C18.7553 45.0294 11.4003 42.3039 11.4003 30.1249C11.4003 26.6547 12.6308 23.8191 14.6458 21.5932C14.3187 20.7926 13.2406 17.56 14.9509 13.1817C14.9509 13.1817 17.5962 12.3275 23.6159 16.4399C26.1285 15.7356 28.8232 15.3825 31.5002 15.3704C34.1773 15.3825 36.8742 15.7354 39.3915 16.4399C45.4038 12.3277 48.0454 13.1819 48.0454 13.1819C49.7599 17.5598 48.6813 20.7929 48.3542 21.5932C50.3739 23.8191 51.596 26.6547 51.596 30.1249C51.596 42.3329 44.227 45.021 37.2126 45.8079C38.3424 46.7942 39.3492 48.7286 39.3492 51.694C39.3492 55.9467 39.3127 59.3695 39.3127 60.4164C39.3127 61.2624 39.8797 62.2535 41.4764 61.9411C53.9856 57.7338 63 45.8238 63 31.7851C63 14.2303 48.8966 0 31.5002 0ZM11.798 45.2782C11.7286 45.4361 11.4822 45.4836 11.2581 45.3751C11.0294 45.2715 10.9012 45.0562 10.975 44.8978C11.043 44.7351 11.2898 44.6897 11.5177 44.7987C11.7465 44.9025 11.877 45.1198 11.798 45.2782ZM13.3474 46.6733C13.1973 46.8138 12.9034 46.7485 12.7041 46.5265C12.4981 46.305 12.4595 46.0085 12.6118 45.866C12.7669 45.7254 13.0516 45.7912 13.2581 46.0127C13.4643 46.237 13.5041 46.5312 13.3474 46.6733ZM14.4105 48.4582C14.2173 48.5935 13.9018 48.4666 13.7067 48.184C13.5137 47.9014 13.5137 47.5625 13.7109 47.4267C13.9065 47.2908 14.2173 47.413 14.4149 47.6936C14.6074 47.9809 14.6074 48.3199 14.4103 48.4584L14.4105 48.4582ZM16.208 50.5254C16.0355 50.7176 15.6676 50.666 15.3983 50.4037C15.123 50.1475 15.0464 49.7839 15.2197 49.5917C15.3944 49.399 15.7643 49.4532 16.0355 49.7134C16.3086 49.9692 16.3923 50.3355 16.208 50.5254ZM18.5316 51.2232C18.4553 51.4723 18.1009 51.5855 17.7443 51.4797C17.388 51.3707 17.1549 51.0792 17.2268 50.8276C17.3009 50.5768 17.6567 50.4591 18.016 50.5723C18.3719 50.6806 18.6057 50.9699 18.5316 51.2232ZM21.1756 51.5194C21.1845 51.7814 20.882 51.9987 20.5075 52.0037C20.131 52.0121 19.826 51.8 19.8219 51.5418C19.8219 51.2773 20.1177 51.062 20.4944 51.0556C20.869 51.0481 21.1756 51.2587 21.1756 51.5194ZM23.7731 51.4189C23.8179 51.6746 23.5578 51.9374 23.1857 52.0074C22.8203 52.0747 22.4816 51.9167 22.4351 51.6632C22.3899 51.401 22.6549 51.1383 23.0199 51.0705C23.3924 51.0052 23.7257 51.1589 23.7731 51.4189Z" fill="white"/>
</svg>
