<svg width="50" height="50" viewBox="0 0 50 50" fill="none" xmlns="http://www.w3.org/2000/svg">
<g clip-path="url(#clip0_484_56)">
<path d="M49.1564 19.9688L49.0939 19.7812L42.297 2.04688C42.1566 1.6999 41.9104 1.40597 41.5935 1.20683C41.2765 1.00768 40.9049 0.91345 40.5314 0.937501C40.1564 0.937501 39.797 1.09375 39.5001 1.3125C39.2032 1.54688 38.9845 1.875 38.8907 2.25L34.297 16.3125H15.7032L11.1095 2.25C11.017 1.8822 10.8095 1.55353 10.5172 1.31184C10.2249 1.07015 9.86311 0.92806 9.48448 0.906251C9.10695 0.882403 8.73152 0.978313 8.41168 1.18031C8.09185 1.38232 7.84392 1.6801 7.70323 2.03125L0.906355 19.8125L0.82823 19.9844C-0.145892 22.5426 -0.264337 25.3477 0.49066 27.9789C1.24566 30.6101 2.8334 32.9256 5.01573 34.5781L5.04698 34.5938L5.10948 34.6406L15.4689 42.4062L20.5939 46.2813L23.7189 48.6562C24.084 48.9301 24.5281 49.0781 24.9845 49.0781C25.4409 49.0781 25.885 48.9301 26.2501 48.6562L29.3751 46.2813L34.5001 42.4062L44.922 34.5938H44.9532C47.1497 32.9452 48.7495 30.6261 49.5107 27.9874C50.2718 25.3487 50.153 22.5339 49.172 19.9688H49.1564Z" fill="#E24329"/>
<path d="M49.1562 19.9687L49.0938 19.7812C45.7756 20.4665 42.6493 21.8749 39.9375 23.9063L25.0156 35.2188L34.5312 42.4062L44.9531 34.5937H44.9844C47.1727 32.939 48.7632 30.6171 49.5158 27.9788C50.2684 25.3405 50.1422 22.529 49.1562 19.9687Z" fill="#FC6D26"/>
<path d="M15.4688 42.4062L20.5938 46.2812L23.7188 48.6562C24.0839 48.9301 24.528 49.0781 24.9844 49.0781C25.4408 49.0781 25.8849 48.9301 26.25 48.6562L29.375 46.2812L34.5 42.4062L24.9688 35.2188L15.4844 42.4062H15.4688Z" fill="#FCA326"/>
<path d="M10.0626 23.9062C7.3505 21.8787 4.22389 20.4755 0.906355 19.7969L0.82823 19.9844C-0.145892 22.5426 -0.264337 25.3477 0.49066 27.9789C1.24566 30.6101 2.8334 32.9256 5.01573 34.5781L5.04698 34.5937L5.10948 34.6406L15.4689 42.4062L25.0001 35.2188L10.0626 23.9062Z" fill="#FC6D26"/>
</g>
<defs>
<clipPath id="clip0_484_56">
<rect width="50" height="50" fill="white"/>
</clipPath>
</defs>
</svg>
