<svg width="141" height="161" viewBox="0 0 141 161" fill="none" xmlns="http://www.w3.org/2000/svg">
<path d="M12.7898 142.423L0 0H140.688L127.898 142.423L70.1881 158.523" fill="#E34F26"/>
<path d="M70.5 146.138L116.98 133.444L127.898 11.4558H70.5" fill="#EF652A"/>
<path d="M70.5001 64.4H47.1041L45.5443 46.4423H70.5001V29.1038H26.2036L30.8828 82.0481H70.5001V64.4ZM70.5001 109.913L50.5355 104.65L49.2877 90.7173H31.8187L34.0023 118.273L70.5001 128.181V109.913Z" fill="#ECEDEE"/>
<path d="M70.5 82.0481H92.0243L89.8407 104.65L70.5 109.913V128.181L106.374 118.273L111.365 64.4H70.5V82.0481ZM70.5 29.1038V46.4423H112.925L114.485 29.1038H70.5Z" fill="white"/>
</svg>
