<svg width="367" height="367" viewBox="0 0 367 367" fill="none" xmlns="http://www.w3.org/2000/svg">
<g clip-path="url(#clip0_95_58)">
<path d="M0 0H367V367H0V0Z" fill="#F0DB4F"/>
<path d="M336.963 279.471C334.277 262.726 323.358 248.667 291.019 235.55C279.785 230.387 267.261 226.689 263.528 218.177C262.203 213.223 262.028 210.432 262.866 207.432C265.273 197.699 276.89 194.663 286.1 197.454C292.03 199.443 297.647 204.013 301.031 211.304C316.869 201.048 316.834 201.117 327.893 194.071C323.846 187.791 321.683 184.895 319.032 182.21C309.508 171.569 296.531 166.092 275.773 166.511C272.18 166.964 268.552 167.452 264.959 167.906C254.598 170.523 244.725 175.965 238.934 183.256C221.561 202.967 226.514 237.469 247.655 251.667C268.482 267.296 299.077 270.855 302.984 285.472C306.787 303.368 289.833 309.159 272.983 307.101C260.563 304.52 253.656 298.205 246.19 286.728C232.445 294.682 232.445 294.682 218.317 302.81C221.666 310.136 225.189 313.45 230.806 319.8C257.389 346.766 323.916 345.441 335.847 304.624C336.335 303.229 339.545 293.879 336.963 279.471ZM199.513 168.673H165.185C165.185 198.327 165.046 227.77 165.046 257.423C165.046 276.297 166.023 293.6 162.953 298.903C157.929 309.333 144.917 308.043 138.986 306.019C132.951 303.054 129.881 298.833 126.322 292.867C125.346 291.158 124.613 289.832 124.368 289.728C115.054 295.414 105.774 301.135 96.4597 306.822C101.1 316.346 107.937 324.614 116.694 329.986C129.776 337.835 147.358 340.242 165.744 336.021C177.709 332.532 188.035 325.311 193.443 314.322C201.257 299.914 199.583 282.471 199.513 263.179C199.687 231.712 199.513 200.245 199.513 168.673Z" fill="#323330"/>
</g>
<defs>
<clipPath id="clip0_95_58">
<rect width="367" height="367" fill="white"/>
</clipPath>
</defs>
</svg>
