<svg width="61" height="61" viewBox="0 0 61 61" fill="none" xmlns="http://www.w3.org/2000/svg">
<g clip-path="url(#clip0_484_250)">
<path d="M35.1193 16.3943L35.058 0H25.8806L25.9419 16.3943L30.5304 22.6718L35.1193 16.3943ZM25.9419 44.4901V60.9454H35.1193V44.4901L30.5304 38.2128L25.9419 44.4901Z" fill="white"/>
<path d="M35.1194 44.4901L44.7865 57.7763L52.1896 52.413L42.5226 39.1271L35.1194 36.75V44.4901ZM25.942 16.3943L16.2137 3.10815L8.81055 8.4714L18.4776 21.7575L25.942 24.1344V16.3943Z" fill="#00F2E6"/>
<path d="M18.4775 21.7575L2.81434 16.699L0 25.3532L15.6629 30.4727L23.0661 28.0348L18.4775 21.7575ZM37.9339 32.8496L42.5225 39.1271L58.1857 44.1854L61 35.5312L45.3371 30.4727L37.9339 32.8496Z" fill="#00B9F1"/>
<path d="M45.3371 30.4727L61 25.3532L58.1857 16.699L42.5225 21.7575L37.9339 28.0348L45.3371 30.4727ZM15.6629 30.4727L0 35.5312L2.81434 44.1854L18.4775 39.1271L23.0661 32.8496L15.6629 30.4727Z" fill="#D63AFF"/>
<path d="M18.4776 39.1271L8.81055 52.413L16.2137 57.7763L25.942 44.4901V36.75L18.4776 39.1271ZM42.5226 21.7575L52.1896 8.4714L44.7865 3.10815L35.1194 16.3943V24.1344L42.5226 21.7575Z" fill="#FB015B"/>
</g>
<defs>
<clipPath id="clip0_484_250">
<rect width="61" height="61" fill="white"/>
</clipPath>
</defs>
</svg>
