<svg width="49" height="56" viewBox="0 0 49 56" fill="none" xmlns="http://www.w3.org/2000/svg">
<g filter="url(#filter0_f_484_62)">
<path d="M46.918 47.3359C46.918 50.6305 36.847 53.315 24.4205 53.315C11.9941 53.315 1.92285 50.6479 1.92285 47.3359C1.92285 44.0412 11.9941 41.3567 24.4203 41.3567C36.847 41.3567 46.9006 44.0412 46.918 47.3359Z" fill="black" fill-opacity="0.2"/>
</g>
<path d="M12.0996 40.9035C9.92012 37.8006 9.49827 27.6902 14.5777 21.4668C17.0912 18.4863 17.7416 16.4118 17.9349 13.6052C18.0754 10.4151 15.6676 0.914797 24.7368 0.200085C33.9293 -0.532091 33.4196 8.46265 33.3668 13.2217C33.3317 17.2309 36.3373 19.5146 38.4112 22.6525C42.2253 28.4049 41.9089 38.3061 37.6906 43.6753C32.3474 50.3865 27.7776 47.4753 24.7368 47.7194C19.0422 48.0507 18.8489 51.049 12.0996 40.9035Z" fill="black"/>
<path d="M34.2807 23.2449C35.8626 24.6918 39.9579 31.159 33.4722 35.2033C31.1874 36.6153 35.5112 41.9842 37.5851 39.387C41.2586 34.7153 38.921 27.2543 36.7063 24.5872C35.2298 22.7047 32.9451 21.9725 34.2809 23.2451" fill="url(#paint0_linear_484_62)"/>
<path d="M33.8413 22.3734C36.4425 24.4654 41.1705 31.7865 34.2632 36.5629C31.9958 38.0447 36.2668 42.7339 38.6748 40.3456C47.0234 32.0132 38.4639 22.4431 35.5109 19.1484C32.8746 16.2723 30.537 19.8109 33.8413 22.3734Z" fill="black" stroke="black" stroke-width="0.10598"/>
<path d="M30.0975 4.74957C30.0096 7.13782 27.3557 9.21248 24.1743 9.40421C20.993 9.59594 18.4973 7.78306 18.585 5.3948C18.673 3.00654 21.327 0.932075 24.5083 0.740346C27.6895 0.566082 30.1853 2.3615 30.0975 4.74957Z" fill="url(#paint1_linear_484_62)"/>
<path d="M22.4869 10.4325C22.5749 11.984 21.8367 13.2914 20.8173 13.3436C19.7979 13.396 18.9013 12.1932 18.8135 10.6417C18.7256 9.09023 19.4639 7.78286 20.4833 7.73066C21.5027 7.67827 22.3992 8.88103 22.4869 10.4325Z" fill="url(#paint2_linear_484_62)"/>
<path d="M24.3326 10.5546C24.3678 12.35 25.5455 13.7794 26.9515 13.7447C28.3576 13.7098 29.4649 12.2279 29.4298 10.4151C29.3946 8.61964 28.2171 7.19022 26.8109 7.22514C25.4048 7.25988 24.2799 8.75897 24.3326 10.5546Z" fill="url(#paint3_linear_484_62)"/>
<path d="M25.4926 10.9555C25.475 11.9491 25.9673 12.7509 26.6175 12.7509C27.2503 12.7509 27.7952 11.9491 27.8128 10.973C27.8302 9.97939 27.3381 9.17736 26.6877 9.17736C26.0375 9.17736 25.5102 9.97939 25.4926 10.9555ZM21.4326 10.973C21.5204 11.7923 21.204 12.4895 20.747 12.5592C20.2901 12.6116 19.8506 12.0015 19.7628 11.1822C19.6747 10.3629 19.9913 9.66541 20.4482 9.59575C20.9053 9.54354 21.3447 10.1537 21.4326 10.973Z" fill="black"/>
<path d="M25.7563 10.3976C25.7034 10.9555 25.9672 11.4086 26.3362 11.4436C26.7052 11.4785 27.0568 11.0426 27.1095 10.5022C27.1623 9.94446 26.8985 9.49115 26.5295 9.45622C26.1605 9.42148 25.8089 9.85714 25.7563 10.3976Z" fill="url(#paint4_linear_484_62)"/>
<path d="M21.0456 10.5371C21.0985 10.9904 20.9052 11.3914 20.624 11.4261C20.3426 11.461 20.0791 11.1123 20.0262 10.6417C19.9736 10.1884 20.1669 9.78748 20.4481 9.75274C20.7294 9.71781 20.993 10.0838 21.0456 10.5371Z" fill="url(#paint5_linear_484_62)"/>
<path d="M15.5092 27.6553C16.7572 24.8486 19.4112 19.9155 19.464 16.0978C19.464 13.0647 28.6213 12.3325 29.3595 15.3658C30.0975 18.3989 31.9607 22.9312 33.1558 25.1277C34.3511 27.3066 37.8136 34.2619 34.1226 40.3282C30.8006 45.6973 20.7295 49.9507 15.3511 39.5962C13.5232 36.0052 13.857 31.5601 15.5092 27.6553Z" fill="url(#paint6_linear_484_62)"/>
<path d="M14.3843 25.5633C13.3123 27.568 11.0975 32.8325 16.5112 35.7088C22.3289 38.7769 22.3113 45.0698 15.3159 42.0714C8.91823 39.3695 11.7479 28.4222 13.5408 25.8075C14.7007 23.9771 16.4583 21.7284 14.3843 25.5633Z" fill="url(#paint7_linear_484_62)"/>
<path d="M15.2982 23.2973C13.5933 26.0516 9.51569 32.5362 14.982 35.918C22.3288 40.398 20.2547 44.8606 13.5407 40.8337C4.08463 35.2208 12.398 23.89 16.1771 19.567C20.5009 14.7208 17.0032 20.4561 15.2982 23.2973Z" fill="black" stroke="black" stroke-width="0.135593"/>
<path d="M31.8552 28.7185C31.8552 31.7866 28.8848 35.7612 23.7876 35.7263C18.5324 35.761 16.3003 31.7866 16.3003 28.7185C16.3003 25.6507 19.7804 23.1578 24.0689 23.1578C28.3751 23.1753 31.8552 25.6507 31.8552 28.7185Z" fill="url(#paint8_linear_484_62)"/>
<path d="M29.0783 19.0787C29.0255 22.2514 26.9338 23.001 24.2975 23.001C21.6609 23.001 19.7451 22.5302 19.5166 19.0787C19.5166 16.9171 21.6609 15.6622 24.2975 15.6622C26.9338 15.6447 29.0783 16.8999 29.0783 19.0787Z" fill="url(#paint9_linear_484_62)"/>
<path d="M13.1364 23.9597C14.8591 21.3624 18.4972 17.3704 13.822 24.5176C10.0256 30.4095 12.416 34.1923 13.6463 35.2381C17.1967 38.3759 17.056 40.485 14.2615 38.8291C8.26791 35.2904 9.51586 29.3286 13.1364 23.9597Z" fill="url(#paint10_linear_484_62)"/>
<path d="M38.0772 25.0231C36.5831 21.9725 31.8375 14.2327 38.3056 23.2275C44.1937 31.3682 40.0632 37.0337 39.325 37.5914C38.5869 38.1493 36.1086 39.2824 36.8291 37.3125C37.5675 35.3426 41.2233 31.6123 38.077 25.0229" fill="url(#paint11_linear_484_62)"/>
<path d="M11.8357 49.0792C7.89852 47.0047 2.1863 49.4801 4.26034 43.867C4.68219 42.5944 3.64517 40.6769 4.31298 39.4392C5.10404 37.9226 6.80887 38.2539 7.82828 37.2428C8.83008 36.1969 9.46286 34.384 11.3436 34.6631C13.2067 34.9417 14.4546 37.2079 15.7552 39.9971C16.7218 41.9842 20.1316 44.7909 19.9033 47.0222C19.6219 50.4387 15.7024 51.0838 11.8357 49.0792Z" fill="url(#paint12_linear_484_62)" stroke="#E68C3F" stroke-width="0.677966"/>
<path d="M40.5028 35.9006C39.9052 37.0162 37.4093 38.8116 35.7395 38.341C34.0523 37.8877 33.2788 35.3426 33.6128 33.4077C33.9292 31.2463 35.7395 31.124 38.0247 32.2049C40.4852 33.4077 41.2234 34.4187 40.5028 35.9006Z" fill="url(#paint13_linear_484_62)"/>
<path d="M39.1317 48.1201C42.0142 44.6514 48.4297 45.3661 44.1059 40.6072C43.1919 39.5787 43.4731 37.3822 42.3482 36.441C41.03 35.2904 39.5712 36.2318 38.2354 35.6392C36.8996 34.9941 35.4935 33.7564 33.8589 34.6279C32.2244 35.5171 32.0485 37.818 31.8904 40.8511C31.7497 43.0302 29.7461 46.6734 30.8181 48.678C32.3649 51.781 36.3899 51.3624 39.1317 48.1201Z" fill="url(#paint14_linear_484_62)" stroke="#E68C3F" stroke-width="0.678075"/>
<path d="M37.8839 43.4833C42.3484 36.9465 39.0266 36.9987 37.9015 36.4932C36.7766 35.9702 35.5989 34.9417 34.2809 35.6564C32.9626 36.3886 32.8923 38.2714 32.8571 40.7466C32.8045 42.5247 31.3106 45.5056 32.2069 47.1615C33.2966 49.0964 35.9329 46.29 37.8839 43.4833Z" fill="url(#paint15_linear_484_62)"/>
<path d="M10.9218 44.4247C4.24285 40.1364 7.37133 38.6723 8.37332 37.9923C9.58605 37.1208 9.60366 35.4472 11.0976 35.6042C12.5916 35.761 13.4704 37.5914 14.4722 39.8576C15.2104 41.4787 17.7766 43.6403 17.5832 45.5056C17.3373 47.7019 13.8044 46.2551 10.9218 44.4247Z" fill="url(#paint16_linear_484_62)"/>
<path d="M40.1162 35.8482C39.5889 36.7548 37.4446 38.1842 36.0209 37.8006C34.5621 37.4346 33.8941 35.395 34.193 33.861C34.4566 32.1178 36.0209 32.0307 37.9893 32.9024C40.081 33.8436 40.7314 34.6454 40.1162 35.8482Z" fill="black"/>
<path d="M38.6748 35.3426C38.3408 35.9702 36.9347 36.9638 35.9503 36.7024C34.9661 36.441 34.4741 35.029 34.6321 33.9656C34.7728 32.7629 35.8273 32.693 37.1631 33.2858C38.6043 33.9483 39.0614 34.5061 38.6748 35.3426Z" fill="url(#paint17_linear_484_62)"/>
<path d="M20.5009 12.5941C21.2039 11.9491 22.9087 9.97939 26.1428 12.0362C26.7404 12.4197 27.2325 12.4546 28.375 12.9426C30.6775 13.8842 29.5877 16.1502 27.127 16.9171C26.0724 17.2484 25.1234 18.521 23.2251 18.3989C21.5905 18.3116 21.1687 17.2486 20.1669 16.6732C18.3916 15.6796 18.128 14.3373 19.0946 13.6226C20.0614 12.9079 20.4306 12.6463 20.5009 12.5941Z" fill="url(#paint18_linear_484_62)" stroke="#E68C3F" stroke-width="0.40678"/>
<path d="M28.4104 14.4245C27.4438 14.4767 25.3519 16.5511 23.155 16.5511C20.9579 16.5511 19.6397 14.5291 19.3059 14.5291" stroke="#E68C3F" stroke-width="0.271186"/>
<path d="M21.5907 12.4199C21.9423 12.1061 23.0496 11.2518 24.5085 12.1233C24.8249 12.2978 25.1412 12.4895 25.5981 12.7509C26.5297 13.2914 26.0728 14.0759 24.9477 14.5638C24.438 14.773 23.5945 15.2263 22.9617 15.1914C22.2587 15.1217 21.784 14.6684 21.3272 14.3721C20.4659 13.8143 20.5187 13.3436 20.9229 12.9776C21.2215 12.6985 21.5553 12.4371 21.5907 12.4199Z" fill="url(#paint19_linear_484_62)"/>
<defs>
<filter id="filter0_f_484_62" x="0.512682" y="39.9465" width="47.8155" height="14.7787" filterUnits="userSpaceOnUse" color-interpolation-filters="sRGB">
<feFlood flood-opacity="0" result="BackgroundImageFix"/>
<feBlend mode="normal" in="SourceGraphic" in2="BackgroundImageFix" result="shape"/>
<feGaussianBlur stdDeviation="0.705085" result="effect1_foregroundBlur_484_62"/>
</filter>
<linearGradient id="paint0_linear_484_62" x1="357.222" y1="2037.37" x2="470.708" y2="754.118" gradientUnits="userSpaceOnUse">
<stop stop-color="#FFEED7"/>
<stop offset="1" stop-color="#BDBFC2"/>
</linearGradient>
<linearGradient id="paint1_linear_484_62" x1="645.187" y1="21.6181" x2="591.015" y2="790.354" gradientUnits="userSpaceOnUse">
<stop stop-color="white" stop-opacity="0.8"/>
<stop offset="1" stop-color="white" stop-opacity="0"/>
</linearGradient>
<linearGradient id="paint2_linear_484_62" x1="210.046" y1="503.348" x2="176.686" y2="63.9129" gradientUnits="userSpaceOnUse">
<stop stop-color="#FFEED7"/>
<stop offset="1" stop-color="#BDBFC2"/>
</linearGradient>
<linearGradient id="paint3_linear_484_62" x1="278.94" y1="564.686" x2="278.931" y2="97.2831" gradientUnits="userSpaceOnUse">
<stop stop-color="#FFEED7"/>
<stop offset="1" stop-color="#BDBFC2"/>
</linearGradient>
<linearGradient id="paint4_linear_484_62" x1="99.4158" y1="15.6311" x2="76.5609" y2="194.892" gradientUnits="userSpaceOnUse">
<stop stop-color="white" stop-opacity="0.65"/>
<stop offset="1" stop-color="white" stop-opacity="0"/>
</linearGradient>
<linearGradient id="paint5_linear_484_62" x1="67.2872" y1="18.9379" x2="91.8918" y2="164.141" gradientUnits="userSpaceOnUse">
<stop stop-color="white" stop-opacity="0.65"/>
<stop offset="1" stop-color="white" stop-opacity="0"/>
</linearGradient>
<linearGradient id="paint6_linear_484_62" x1="1096.75" y1="2933.94" x2="1096.75" y2="1334.21" gradientUnits="userSpaceOnUse">
<stop stop-color="#FFEED7"/>
<stop offset="1" stop-color="#BDBFC2"/>
</linearGradient>
<linearGradient id="paint7_linear_484_62" x1="513.474" y1="1962.51" x2="107.982" y2="568.723" gradientUnits="userSpaceOnUse">
<stop stop-color="#FFEED7"/>
<stop offset="1" stop-color="#BDBFC2"/>
</linearGradient>
<linearGradient id="paint8_linear_484_62" x1="791.573" y1="189.429" x2="795.635" y2="1213.08" gradientUnits="userSpaceOnUse">
<stop stop-color="white" stop-opacity="0.8"/>
<stop offset="1" stop-color="white" stop-opacity="0"/>
</linearGradient>
<linearGradient id="paint9_linear_484_62" x1="496.904" y1="289.606" x2="501.411" y2="696.626" gradientUnits="userSpaceOnUse">
<stop stop-color="white" stop-opacity="0.65"/>
<stop offset="1" stop-color="white" stop-opacity="0"/>
</linearGradient>
<linearGradient id="paint10_linear_484_62" x1="321.471" y1="63.9989" x2="321.471" y2="1557.69" gradientUnits="userSpaceOnUse">
<stop stop-color="white" stop-opacity="0.65"/>
<stop offset="1" stop-color="white" stop-opacity="0"/>
</linearGradient>
<linearGradient id="paint11_linear_484_62" x1="355.167" y1="63.1163" x2="354.64" y2="1412.73" gradientUnits="userSpaceOnUse">
<stop stop-color="white" stop-opacity="0.65"/>
<stop offset="1" stop-color="white" stop-opacity="0"/>
</linearGradient>
<linearGradient id="paint12_linear_484_62" x1="864.328" y1="796.621" x2="644.362" y2="1566.54" gradientUnits="userSpaceOnUse">
<stop stop-color="#FFA63F"/>
<stop offset="1" stop-color="#FFFF00"/>
</linearGradient>
<linearGradient id="paint13_linear_484_62" x1="412.156" y1="1015.33" x2="380.772" y2="-413.083" gradientUnits="userSpaceOnUse">
<stop stop-color="#FFEED7"/>
<stop offset="1" stop-color="#BDBFC2"/>
</linearGradient>
<linearGradient id="paint14_linear_484_62" x1="490.952" y1="594.541" x2="1092.41" y2="1453.7" gradientUnits="userSpaceOnUse">
<stop stop-color="#FFA63F"/>
<stop offset="1" stop-color="#FFFF00"/>
</linearGradient>
<linearGradient id="paint15_linear_484_62" x1="522.024" y1="-177.892" x2="317.448" y2="831.846" gradientUnits="userSpaceOnUse">
<stop stop-color="white" stop-opacity="0.65"/>
<stop offset="1" stop-color="white" stop-opacity="0"/>
</linearGradient>
<linearGradient id="paint16_linear_484_62" x1="524.121" y1="52.8392" x2="564.526" y2="1185.01" gradientUnits="userSpaceOnUse">
<stop stop-color="white" stop-opacity="0.65"/>
<stop offset="1" stop-color="white" stop-opacity="0"/>
</linearGradient>
<linearGradient id="paint17_linear_484_62" x1="217.643" y1="50.2513" x2="264.994" y2="389.132" gradientUnits="userSpaceOnUse">
<stop stop-color="white" stop-opacity="0.65"/>
<stop offset="1" stop-color="white" stop-opacity="0"/>
</linearGradient>
<linearGradient id="paint18_linear_484_62" x1="570.592" y1="139.39" x2="574.536" y2="735.093" gradientUnits="userSpaceOnUse">
<stop stop-color="#FFA63F"/>
<stop offset="1" stop-color="#FFFF00"/>
</linearGradient>
<linearGradient id="paint19_linear_484_62" x1="294.434" y1="21.7151" x2="293.365" y2="336.701" gradientUnits="userSpaceOnUse">
<stop stop-color="white" stop-opacity="0.65"/>
<stop offset="1" stop-color="white" stop-opacity="0"/>
</linearGradient>
</defs>
</svg>
