<svg width="87" height="87" viewBox="0 0 87 87" fill="none" xmlns="http://www.w3.org/2000/svg">
<g clip-path="url(#clip0_485_343)">
<path d="M86.5942 15.4744C86.3578 15.2795 86.0575 15.1792 85.7514 15.1931C84.9113 15.1931 83.8259 15.7626 83.2413 16.0678L83.0102 16.1868C82.0303 16.6614 80.9634 16.9298 79.8755 16.9752C78.7637 17.0103 77.6537 17.0874 76.5478 17.2063C69.1324 17.9682 65.8243 23.6524 62.6386 29.1484C60.9041 32.1383 59.1124 35.2445 56.656 37.6173C56.1481 38.1103 55.6093 38.568 55.0397 38.9903C52.4977 40.8798 49.3066 42.229 46.8237 43.1839C44.4325 44.0981 41.8219 44.9192 39.3022 45.7137C36.9913 46.441 34.8102 47.1289 32.8044 47.8738C32.026 48.1602 31.2423 48.4332 30.4534 48.6928C28.6264 49.2855 27.3092 49.7395 25.3843 51.0649C24.6943 51.5336 24.0225 52.0285 23.3704 52.5487C21.8426 53.7681 20.4902 55.1923 19.3514 56.7811C18.3722 58.2468 17.2408 59.6049 15.9761 60.8327C15.5696 61.2296 14.8485 61.4254 13.7684 61.4254C12.5042 61.4254 10.9715 61.1644 9.34978 60.8884C7.67639 60.5928 5.94727 60.3107 4.46419 60.3107C3.26046 60.3107 2.33677 60.5078 1.6496 60.9041C1.6496 60.9041 0.488695 61.5804 0 62.4551L0.480539 62.6726C1.22565 63.0764 1.91556 63.5747 2.5332 64.155C3.17751 64.7497 3.89491 65.2599 4.66809 65.6734C4.91618 65.7645 5.14048 65.9073 5.32739 66.0921C5.1262 66.3885 4.8285 66.7711 4.51652 67.1796C2.80575 69.4199 1.80661 70.8343 2.37891 71.6051C2.6535 71.7478 2.96004 71.8171 3.2693 71.8069C7.00078 71.8069 9.00586 70.8377 11.5411 69.6095C12.2765 69.2547 13.0242 68.889 13.9139 68.5118C15.397 67.8688 16.9935 66.8425 18.6866 65.7564C20.9024 64.3127 23.2188 62.8296 25.4672 62.1146C27.3148 61.5512 29.2392 61.2808 31.1705 61.3132C33.5439 61.3132 36.0418 61.63 38.4499 61.9386C40.245 62.171 42.1046 62.4075 43.9282 62.5177C44.5949 62.5582 45.2626 62.579 45.9306 62.5802C46.7836 62.5829 47.6361 62.5385 48.4841 62.447L48.6881 62.3756C49.9679 61.5885 50.5674 59.9015 51.1472 58.2703C51.5217 57.2195 51.8364 56.2768 52.3346 55.678C52.364 55.649 52.3958 55.6225 52.4297 55.5984C52.453 55.5856 52.4799 55.5808 52.5061 55.585C52.5323 55.5892 52.5564 55.6021 52.5745 55.6215V55.6691C52.2788 62.0494 49.7096 66.101 47.1112 69.702L45.3766 71.5616C45.3766 71.5616 47.8051 71.5616 49.1876 71.0273C54.2309 69.5205 58.0358 66.1988 60.8055 60.9007C61.4884 59.5403 62.0993 58.145 62.6359 56.7206C62.6835 56.6037 63.1199 56.3835 63.0777 56.9972C63.0634 57.1787 63.0505 57.3799 63.0363 57.5913C63.0363 57.715 63.0363 57.8428 63.0125 57.9705C62.9418 58.8609 62.7311 60.7409 62.7311 60.7409L64.2876 59.907C68.0428 57.5349 70.9376 52.7478 73.1337 45.2998C74.0472 42.1964 74.7174 39.1147 75.3067 36.4007C76.0128 33.1375 76.6218 30.3412 77.3185 29.2558C78.4128 27.5525 80.0828 26.4011 81.6991 25.2837C81.9187 25.1328 82.1409 24.9867 82.3584 24.8263C84.3893 23.4003 86.4094 21.7541 86.8552 18.6839V18.616C87.1774 16.3254 86.9048 15.7416 86.5942 15.4744Z" fill="#003545"/>
</g>
<defs>
<clipPath id="clip0_485_343">
<rect width="87" height="87" fill="white"/>
</clipPath>
</defs>
</svg>
