<svg width="124" height="124" viewBox="0 0 124 124" fill="none" xmlns="http://www.w3.org/2000/svg">
<path d="M61.3002 99.804C60.8804 99.804 60.4886 99.6921 60.1246 99.4962L56.4019 97.285C55.842 96.977 56.1219 96.8651 56.29 96.8091C57.0456 96.5572 57.1856 96.5011 57.9693 96.0535C58.0534 95.9973 58.1655 96.0254 58.2493 96.0813L61.1045 97.7888C61.2164 97.8447 61.3563 97.8447 61.4401 97.7888L72.6086 91.3229C72.7205 91.2669 72.7767 91.1548 72.7767 91.015V78.1113C72.7767 77.9711 72.7205 77.8594 72.6086 77.8032L61.4401 71.3654C61.3282 71.3092 61.1883 71.3092 61.1045 71.3654L49.936 77.8032C49.8241 77.8592 49.7679 77.9991 49.7679 78.111V91.0148C49.7679 91.1269 49.8241 91.2667 49.936 91.3229L52.9871 93.0862C54.6385 93.9259 55.6741 92.9462 55.6741 91.9666V79.2307C55.6741 79.0628 55.8141 78.8948 56.0101 78.8948H57.4375C57.6056 78.8948 57.7734 79.0347 57.7734 79.2307V91.9666C57.7734 94.1778 56.5697 95.4655 54.4705 95.4655C53.8267 95.4655 53.323 95.4655 51.8953 94.7655L48.9563 93.0862C48.2286 92.6665 47.7808 91.8825 47.7808 91.0429V78.1391C47.7808 77.2995 48.2286 76.5155 48.9563 76.0958L60.1246 69.6299C60.8245 69.238 61.7763 69.238 62.476 69.6299L73.6442 76.0958C74.372 76.5155 74.82 77.2995 74.82 78.1391V91.0429C74.82 91.8825 74.372 92.6665 73.6442 93.0862L62.476 99.5521C62.112 99.7202 61.692 99.804 61.3002 99.804ZM64.7431 90.931C59.8448 90.931 58.8371 88.6917 58.8371 86.7884C58.8371 86.6203 58.9771 86.4525 59.173 86.4525H60.6286C60.7964 86.4525 60.9364 86.5644 60.9364 86.7324C61.1604 88.2158 61.8041 88.9436 64.7712 88.9436C67.1223 88.9436 68.1303 88.4118 68.1303 87.1521C68.1303 86.4244 67.8501 85.8928 64.1834 85.5288C61.1323 85.2207 59.229 84.5491 59.229 82.1139C59.229 79.8466 61.1326 78.5029 64.3234 78.5029C67.9061 78.5029 69.6697 79.7347 69.8937 82.4215C69.8937 82.5058 69.8656 82.5896 69.8097 82.6736C69.7535 82.7296 69.6697 82.7855 69.5856 82.7855H68.1301C67.9901 82.7855 67.8501 82.6736 67.8223 82.5336C67.4863 80.9943 66.6186 80.4903 64.3234 80.4903C61.7482 80.4903 61.4401 81.3861 61.4401 82.0577C61.4401 82.8695 61.8041 83.1214 65.2749 83.5692C68.7179 84.0173 70.3415 84.661 70.3415 87.0681C70.3134 89.5314 68.2982 90.931 64.7431 90.931Z" fill="#539E43"/>
<path d="M26.6474 49.3365C26.6474 48.8328 26.3674 48.3566 25.9196 48.1047L14.0514 41.275C13.8553 41.1629 13.6315 41.107 13.4077 41.0789H13.2956C13.0718 41.0789 12.8478 41.1629 12.6518 41.275L0.783682 48.1047C0.335635 48.3566 0.0559082 48.8325 0.0559082 49.3365L0.084002 67.6984C0.084002 67.9503 0.223986 68.2022 0.447768 68.3143C0.671791 68.4543 0.951518 68.4543 1.14769 68.3143L8.2014 64.2836C8.64921 64.0317 8.92917 63.5558 8.92917 63.0521V54.4588C8.92917 53.955 9.2089 53.4791 9.65695 53.2272L12.6518 51.4917C12.8759 51.3517 13.1277 51.2956 13.3796 51.2956C13.6315 51.2956 13.8834 51.3517 14.0795 51.4917L17.0744 53.2272C17.5225 53.4791 17.8022 53.9548 17.8022 54.4588V63.0521C17.8022 63.5558 18.0822 64.0317 18.53 64.2836L25.5837 68.3143C25.8077 68.4543 26.0874 68.4543 26.3115 68.3143C26.5355 68.2022 26.6755 67.9503 26.6755 67.6984L26.6474 49.3365ZM83.6929 24.0606C83.4692 23.9485 83.1892 23.9485 82.993 24.0606C82.7692 24.2006 82.6292 24.4244 82.6292 24.6762V42.8706C82.6292 43.0384 82.5455 43.2063 82.3774 43.3184C82.2095 43.4022 82.0415 43.4022 81.8736 43.3184L78.9066 41.611C78.6891 41.4871 78.4431 41.422 78.1927 41.422C77.9424 41.422 77.6964 41.4871 77.4789 41.611L65.6107 48.4687C65.1629 48.7206 64.883 49.1965 64.883 49.7003V63.3877C64.883 63.8915 65.1629 64.3676 65.6107 64.6195L77.4789 71.4773C77.6964 71.6011 77.9424 71.6663 78.1927 71.6663C78.4431 71.6663 78.6891 71.6011 78.9066 71.4773L90.7747 64.6195C91.2226 64.3676 91.5025 63.8917 91.5025 63.3877V29.2669C91.5025 28.7351 91.2226 28.2594 90.7747 28.0073L83.6929 24.0606ZM82.6014 58.8814C82.6014 59.0213 82.5455 59.1332 82.4333 59.1892L78.3747 61.5403C78.3181 61.568 78.2558 61.5824 78.1927 61.5824C78.1297 61.5824 78.0674 61.568 78.0107 61.5403L73.9522 59.1892C73.84 59.1332 73.7841 58.9932 73.7841 58.8814V54.1788C73.7841 54.0388 73.84 53.9269 73.9522 53.871L78.0107 51.5196C78.0674 51.4919 78.1297 51.4776 78.1927 51.4776C78.2558 51.4776 78.3181 51.4919 78.3747 51.5196L82.4333 53.871C82.5455 53.9267 82.6014 54.0669 82.6014 54.1788V58.8814ZM123.188 54.0669C123.636 53.815 123.888 53.3391 123.888 52.8351V49.5043C123.888 49.0006 123.608 48.5247 123.188 48.2728L111.404 41.4431C111.187 41.3193 110.941 41.2542 110.69 41.2542C110.44 41.2542 110.194 41.3193 109.977 41.4431L98.1084 48.3007C97.6604 48.5525 97.3807 49.0284 97.3807 49.5324V63.2199C97.3807 63.7236 97.6604 64.1995 98.1084 64.4514L109.893 71.1692C110.341 71.4211 110.872 71.4211 111.292 71.1692L118.43 67.1949C118.654 67.0828 118.794 66.8309 118.794 66.579C118.794 66.3272 118.654 66.0753 118.43 65.9632L106.506 59.1054C106.282 58.9656 106.142 58.7416 106.142 58.4897V54.2071C106.142 53.9553 106.282 53.7034 106.506 53.5913L110.228 51.4639C110.337 51.3953 110.464 51.3589 110.592 51.3589C110.721 51.3589 110.847 51.3953 110.956 51.4639L114.679 53.5913C114.903 53.7312 115.043 53.955 115.043 54.2071V57.566C115.043 57.8179 115.183 58.0698 115.407 58.1817C115.631 58.3217 115.91 58.3217 116.134 58.1817L123.188 54.0669Z" fill="#333333"/>
<path d="M110.508 53.4232C110.55 53.3958 110.599 53.3813 110.648 53.3813C110.698 53.3813 110.747 53.3958 110.788 53.4232L113.056 54.7387C113.14 54.7944 113.195 54.8785 113.195 54.9906V57.6217C113.195 57.7336 113.14 57.8177 113.056 57.8736L110.788 59.1892C110.747 59.2165 110.698 59.2311 110.648 59.2311C110.599 59.2311 110.55 59.2165 110.508 59.1892L108.241 57.8736C108.157 57.8177 108.101 57.7336 108.101 57.6217V54.9906C108.101 54.8785 108.157 54.7944 108.241 54.7387L110.508 53.4232Z" fill="#539E43"/>
<path d="M46.493 41.4991C46.2755 41.3753 46.0296 41.3102 45.7793 41.3102C45.529 41.3102 45.2831 41.3753 45.0656 41.4991L33.2815 48.3004C32.8334 48.5523 32.5815 49.0282 32.5815 49.5319V63.1637C32.5815 63.6675 32.8615 64.1434 33.2815 64.3952L45.0656 71.1971C45.2831 71.3209 45.529 71.386 45.7793 71.386C46.0296 71.386 46.2755 71.3209 46.493 71.1971L58.2774 64.3952C58.7252 64.1434 58.9773 63.6675 58.9773 63.1637V49.5322C58.9773 49.0284 58.6971 48.5525 58.2774 48.3007L46.493 41.4991Z" fill="url(#paint0_linear_484_293)"/>
<mask id="mask0_484_293" style="mask-type:luminance" maskUnits="userSpaceOnUse" x="32" y="41" width="27" height="31">
<path d="M46.493 41.4991C46.2755 41.3753 46.0296 41.3102 45.7793 41.3102C45.529 41.3102 45.2831 41.3753 45.0656 41.4991L33.2815 48.3004C32.8334 48.5523 32.5815 49.0282 32.5815 49.5319V63.1637C32.5815 63.6675 32.8615 64.1434 33.2815 64.3952L45.0656 71.1971C45.2831 71.3209 45.529 71.386 45.7793 71.386C46.0296 71.386 46.2755 71.3209 46.493 71.1971L58.2774 64.3952C58.7252 64.1434 58.9773 63.6675 58.9773 63.1637V49.5322C58.9773 49.0284 58.6971 48.5525 58.2774 48.3007L46.493 41.4991Z" fill="white"/>
</mask>
<g mask="url(#mask0_484_293)">
<path d="M58.3053 48.3007L46.4653 41.4991C46.3489 41.4403 46.227 41.3934 46.1013 41.3591L32.8335 64.0879C32.9434 64.2221 33.0761 64.3358 33.2256 64.4238L45.0657 71.2256C45.4016 71.4216 45.7934 71.4775 46.1572 71.3654L58.6134 48.5809C58.5293 48.469 58.4172 48.3845 58.3053 48.3007Z" fill="url(#paint1_linear_484_293)"/>
</g>
<mask id="mask1_484_293" style="mask-type:luminance" maskUnits="userSpaceOnUse" x="32" y="41" width="27" height="31">
<path d="M46.493 41.4991C46.2755 41.3753 46.0296 41.3102 45.7793 41.3102C45.529 41.3102 45.2831 41.3753 45.0656 41.4991L33.2815 48.3004C32.8334 48.5523 32.5815 49.0282 32.5815 49.5319V63.1637C32.5815 63.6675 32.8615 64.1434 33.2815 64.3952L45.0656 71.1971C45.2831 71.3209 45.529 71.386 45.7793 71.386C46.0296 71.386 46.2755 71.3209 46.493 71.1971L58.2774 64.3952C58.7252 64.1434 58.9773 63.6675 58.9773 63.1637V49.5322C58.9773 49.0284 58.6971 48.5525 58.2774 48.3007L46.493 41.4991Z" fill="white"/>
</mask>
<g mask="url(#mask1_484_293)">
<path fill-rule="evenodd" clip-rule="evenodd" d="M58.3334 64.3955C58.6693 64.1995 58.9212 63.8636 59.0333 63.4999L46.045 41.331C45.7091 41.275 45.3451 41.3029 45.0375 41.4988L33.2812 48.2728L45.961 71.3932C46.1454 71.3631 46.3245 71.3065 46.4928 71.2254L58.3331 64.3957L58.3334 64.3955Z" fill="url(#paint2_linear_484_293)"/>
<path fill-rule="evenodd" clip-rule="evenodd" d="M58.3333 64.3955L46.5211 71.1973C46.3543 71.2823 46.1746 71.3391 45.9893 71.3651L46.2133 71.7851L59.313 64.1998V64.0317L58.977 63.4718C58.9211 63.8636 58.6692 64.1995 58.3333 64.3955Z" fill="url(#paint3_linear_484_293)"/>
<path fill-rule="evenodd" clip-rule="evenodd" d="M58.3333 64.3955L46.5211 71.1973C46.3543 71.2823 46.1746 71.3391 45.9893 71.3651L46.2133 71.7851L59.313 64.1998V64.0317L58.977 63.4718C58.9211 63.8636 58.6692 64.1995 58.3333 64.3955Z" fill="url(#paint4_linear_484_293)"/>
</g>
<defs>
<linearGradient id="paint0_linear_484_293" x1="1832.46" y1="567.246" x2="540.803" y2="2596.82" gradientUnits="userSpaceOnUse">
<stop stop-color="#41873F"/>
<stop offset="0.3288" stop-color="#418B3D"/>
<stop offset="0.6352" stop-color="#419637"/>
<stop offset="0.9319" stop-color="#3FA92D"/>
<stop offset="1" stop-color="#3FAE2A"/>
</linearGradient>
<linearGradient id="paint1_linear_484_293" x1="1148.51" y1="1699.93" x2="4383.39" y2="-57.5934" gradientUnits="userSpaceOnUse">
<stop offset="0.1376" stop-color="#41873F"/>
<stop offset="0.4032" stop-color="#54A044"/>
<stop offset="0.7136" stop-color="#66B848"/>
<stop offset="0.9081" stop-color="#6CC04A"/>
</linearGradient>
<linearGradient id="paint2_linear_484_293" x1="-79.7445" y1="1545.6" x2="2647.09" y2="1545.6" gradientUnits="userSpaceOnUse">
<stop offset="0.09192" stop-color="#6CC04A"/>
<stop offset="0.2864" stop-color="#66B848"/>
<stop offset="0.5968" stop-color="#54A044"/>
<stop offset="0.8624" stop-color="#41873F"/>
</linearGradient>
<linearGradient id="paint3_linear_484_293" x1="-1337.82" y1="481.424" x2="1388.98" y2="481.424" gradientUnits="userSpaceOnUse">
<stop offset="0.09192" stop-color="#6CC04A"/>
<stop offset="0.2864" stop-color="#66B848"/>
<stop offset="0.5968" stop-color="#54A044"/>
<stop offset="0.8624" stop-color="#41873F"/>
</linearGradient>
<linearGradient id="paint4_linear_484_293" x1="1786.24" y1="-1691.21" x2="1095.43" y2="1928.59" gradientUnits="userSpaceOnUse">
<stop stop-color="#41873F"/>
<stop offset="0.3288" stop-color="#418B3D"/>
<stop offset="0.6352" stop-color="#419637"/>
<stop offset="0.9319" stop-color="#3FA92D"/>
<stop offset="1" stop-color="#3FAE2A"/>
</linearGradient>
</defs>
</svg>
