<svg width="82" height="82" viewBox="0 0 82 82" fill="none" xmlns="http://www.w3.org/2000/svg">
<path d="M39.1173 80.2126C39.6885 80.543 40.3367 80.7169 40.9965 80.7169C41.6564 80.7169 42.3046 80.543 42.8758 80.2126L74.014 62.2444C74.586 61.9144 75.0609 61.4395 75.3911 60.8677C75.7212 60.2958 75.895 59.6471 75.8949 58.9868V23.0228C75.8944 22.3629 75.7206 21.7147 75.3909 21.1431C75.0611 20.5715 74.587 20.0966 74.016 19.7658L42.8784 1.78285C42.3062 1.45295 41.6573 1.2793 40.9969 1.2793C40.3364 1.2793 39.6875 1.45295 39.1153 1.78285L7.98546 19.7652C7.41366 20.0953 6.93886 20.5702 6.6088 21.142C6.27875 21.7139 6.10506 22.3625 6.10522 23.0228V58.9887C6.10558 59.6486 6.27957 60.2968 6.60972 60.8682C6.93987 61.4395 7.41456 61.9139 7.9861 62.2438L39.1173 80.2126Z" fill="#76D04B"/>
<path d="M61.1593 32.4272L59.7704 31.6283C61.9062 28.4783 63.1817 23.7435 61.5821 16.6633C61.5821 16.6633 57.9786 26.7628 50.7357 26.4283L42.2538 21.5468C41.9374 21.3615 41.5799 21.2578 41.2134 21.245H41.018C40.6504 21.2587 40.2918 21.3625 39.9738 21.5474L31.4919 26.4283C24.249 26.7634 20.6449 16.6639 20.6449 16.6639C19.044 23.7428 20.322 28.4783 22.4572 31.6283L21.0683 32.4272C20.7201 32.6282 20.431 32.9176 20.2302 33.266C20.0294 33.6145 19.9241 34.0097 19.9248 34.4118L19.9664 63.7076C19.9664 64.117 20.1779 64.4956 20.5366 64.6942C20.8877 64.9056 21.3214 64.9056 21.6705 64.6942L32.9071 58.2604C33.6182 57.8375 34.0506 57.0931 34.0506 56.2789V42.5926C34.0496 42.1918 34.1546 41.7979 34.3548 41.4507C34.555 41.1035 34.8435 40.8155 35.1909 40.6156L39.9744 37.8609C40.3214 37.6572 40.7169 37.5505 41.1192 37.5522C41.5087 37.5522 41.9085 37.6527 42.2551 37.8597L47.038 40.615C47.3858 40.8146 47.6746 41.1026 47.8752 41.4497C48.0758 41.7969 48.181 42.191 48.1802 42.592V56.2789C48.1802 57.0931 48.6178 57.844 49.3244 58.2604L60.5571 64.6942C60.9094 64.9056 61.3502 64.9056 61.6993 64.6942C62.0472 64.4956 62.2663 64.1163 62.2663 63.7076L62.3028 34.4118C62.3043 34.0097 62.1994 33.6143 61.9988 33.2657C61.7982 32.9172 61.509 32.6279 61.1606 32.4272H61.1593Z" fill="#4F4D3F"/>
</svg>
