<svg width="49" height="48" viewBox="0 0 49 48" fill="none" xmlns="http://www.w3.org/2000/svg">
<g clip-path="url(#clip0_484_185)">
<path fill-rule="evenodd" clip-rule="evenodd" d="M9.58314 20.0739C9.64517 20.1231 9.76302 20.16 9.64517 20.2585C9.56454 20.3692 9.46529 20.4615 9.39707 20.5969C9.33504 20.7077 9.28542 20.7385 9.19238 20.6585C9.31643 20.4492 9.45289 20.2523 9.58314 20.0739ZM42.3945 37.0708L42.4069 37.2C42.438 37.1385 42.438 37.1015 42.4566 37.0708H42.3945ZM36.2168 27.9077C36.1734 27.8954 36.1052 27.8585 35.9935 27.8277C36.0245 27.8892 36.0431 27.9385 36.0555 27.9877C36.1362 27.9754 36.1734 27.9754 36.2044 27.9569C36.2044 27.9446 36.2044 27.9262 36.2168 27.9077ZM36.1362 24.7139C36.1238 24.7139 36.1238 24.7139 36.1052 24.6954V24.7139C36.1238 24.7262 36.1238 24.7262 36.1362 24.7139ZM36.1052 24.8369V24.7262C36.0555 24.7446 36.0059 24.7446 35.9439 24.7631C36.0245 24.7939 36.1052 24.8062 36.1052 24.8431V24.8369Z" fill="#DD3735"/>
<path fill-rule="evenodd" clip-rule="evenodd" d="M48.8204 20.9046C48.7894 20.2708 48.7707 19.6369 48.7087 19.0031C48.5909 18.1415 48.4792 17.2677 48.2807 16.4246C48.1196 15.7354 47.9082 15.0588 47.6481 14.4C47.338 13.6246 47.0278 12.8246 46.6309 12.08C45.9982 10.88 45.1671 9.80924 44.398 8.69539C43.8894 7.97539 43.2381 7.39693 42.7481 6.66462C42.4443 6.24326 42.0759 5.8716 41.6564 5.56309C41.0021 5.05166 40.3254 4.56914 39.6282 4.11693C39.1109 3.75792 38.5769 3.42319 38.028 3.11386C37.5938 2.8677 37.1162 2.67693 36.6634 2.46155C36.1362 2.21539 35.6276 1.92616 35.0445 1.81539C34.8957 1.78463 34.7654 1.73539 34.6166 1.68616C34.2444 1.55693 33.8847 1.40924 33.5063 1.29847C32.9357 1.11386 32.3837 0.904625 31.7944 0.763087C31.2204 0.620657 30.6384 0.511752 30.0515 0.436933C29.394 0.344625 28.7304 0.307702 28.0729 0.246164C27.6511 0.196933 27.2294 0.147702 26.82 0.123087C26.1997 0.0923177 25.5609 0.0923177 24.9406 0.08001C24.6305 0.0615485 24.3018 0.0246254 23.9916 0.043087C23.5202 0.0615485 23.0488 0.104625 22.5713 0.172318C22.1185 0.221548 21.6595 0.301549 21.2191 0.369241C20.6795 0.430779 20.1461 0.467702 19.6064 0.529241C19.0978 0.590779 18.5768 0.695395 18.0682 0.775395C17.8883 0.806164 17.7085 0.873856 17.5286 0.898472C17.1378 0.984625 16.7347 1.02155 16.3377 1.14463C14.9729 1.53729 13.6513 2.06507 12.3929 2.72001C11.7726 3.05847 11.1834 3.46463 10.5942 3.85847C9.46641 4.58243 8.41678 5.41966 7.46188 6.35693C7.20138 6.60924 6.98429 6.92309 6.74239 7.21232C6.33302 7.68616 5.92366 8.13539 5.5329 8.6277C5.21037 9.0277 4.91265 9.45232 4.60252 9.87078C4.04429 10.6154 3.5791 11.4092 3.13872 12.2092C2.95265 12.5292 2.79138 12.8554 2.63011 13.1815C2.38201 13.6677 2.12151 14.1354 1.89821 14.64C1.7311 14.9875 1.59817 15.3502 1.50125 15.7231C1.27796 16.5231 1.04847 17.3292 0.837582 18.1231C0.660992 18.8401 0.573507 19.5758 0.577076 20.3139C0.558468 20.9662 0.620493 21.5939 0.688721 22.2462C0.707329 22.4062 0.608088 22.6031 0.800367 22.7323C0.738341 22.9108 0.787962 23.0092 0.881 23.04C0.769354 23.2185 0.93062 23.3292 0.868595 23.4954C0.849987 23.5262 0.918215 23.5939 0.949227 23.6431C0.949227 23.6862 0.93062 23.7539 0.949227 23.8031C0.967835 23.9508 1.02986 24.0923 1.02986 24.2585C1.02986 24.3692 1.1291 24.5046 1.16011 24.6154C1.17872 24.6585 1.16011 24.7385 1.1291 24.7754C1.02986 24.8862 1.04847 24.9846 1.19113 25.0523C1.27796 25.2615 1.24075 25.36 1.22834 25.4585C1.25935 25.6 1.20973 25.6492 1.22834 25.6862C1.35239 25.9446 1.40821 26.24 1.42062 26.5292C1.42062 26.5908 1.45784 26.6523 1.48265 26.7385C1.50746 26.7385 1.48265 27.0462 1.48265 27.0462C1.56948 26.9969 1.63771 26.9846 1.71834 26.9477C1.76796 27.1569 1.81758 27.3539 1.87961 27.5323C1.96024 27.6615 1.96024 27.7292 1.92923 27.7415C1.99125 28.0369 2.02847 28.3077 2.14011 28.5846C2.14011 28.2769 2.1091 27.9692 2.05948 27.68C2.28897 27.76 2.48125 27.84 2.61771 27.84L2.66733 27.6923C2.56809 27.6 2.48125 27.4462 2.38821 27.3539C2.41923 27.4831 2.38821 27.5385 2.38821 27.5815L2.15872 27.4831C2.22075 27.4031 2.28277 27.3231 2.38821 27.2246C2.38821 27.0769 2.30758 26.9477 2.07809 26.9662C2.17733 26.9354 2.27037 26.8862 2.38821 26.8492C2.56809 26.7569 2.36961 26.5785 2.36961 26.3508C2.38821 26.0739 2.22075 25.7969 2.17733 25.5077C2.09049 25.0523 2.1091 24.3692 2.05948 23.92C1.96024 23.8339 1.87961 24.0431 1.8672 24.0615C1.91682 24.4554 1.96024 24.8431 1.99125 25.2308C1.89821 24.9046 1.82999 24.5539 1.74935 24.16C1.73075 24.2708 1.71834 24.32 1.71834 24.3877C1.63771 24.4677 1.69973 24.5662 1.74935 24.6769C1.63771 24.6277 1.50125 24.6462 1.50125 24.6462V25.1015C1.33999 24.9415 1.29657 24.8123 1.20973 24.6954L1.1291 24.3077C1.16011 24.2277 1.1291 24.1785 1.1291 24.1292C1.10126 23.9146 1.08057 23.6991 1.06708 23.4831C1.19113 23.4954 1.27796 23.5139 1.35859 23.5139C1.19733 23.3046 1.30897 23.1692 1.3772 23.04C1.40821 22.9785 1.52606 22.96 1.55708 22.8923C1.68113 22.6523 1.89821 22.4615 1.89821 22.1539C1.89821 22.0062 1.94784 21.8462 1.96024 21.6923C1.99746 21.4215 2.02847 21.1385 2.04708 20.8677C2.07809 20.5108 2.04708 20.1539 2.12771 19.8154C2.34887 18.8235 2.65388 17.8519 3.03948 16.9108C3.28758 16.2769 3.51708 15.6492 3.8272 15.0462C4.26138 14.1723 4.76999 13.3231 5.25999 12.4677C5.57011 11.9323 5.89885 11.4277 6.23999 10.9108C6.56872 10.4062 6.89125 9.88924 7.26961 9.42155C7.78637 8.75707 8.36583 8.14301 9.00011 7.5877C9.65138 7.00309 10.2716 6.40616 10.9725 5.86462C11.8862 5.16651 12.8596 4.54878 13.8815 4.01847C14.7112 3.59639 15.5667 3.22644 16.4432 2.91078C17.0014 2.70155 17.603 2.60309 18.1737 2.43078C18.8249 2.21539 19.4762 2.12309 20.1585 2.10463C20.605 2.08616 21.0268 2.04309 21.4672 1.9877C21.8642 1.95693 22.2549 1.92616 22.6767 1.87693C22.6271 1.93847 22.6147 1.97539 22.5961 2.00616L22.0378 2.7877C21.8952 2.99693 21.7277 3.21847 21.585 3.43386C21.3245 3.77847 21.0454 4.11078 20.7973 4.47386C20.4252 5.00924 20.084 5.55693 19.6871 6.09232C19.2963 6.61539 18.8745 7.10155 18.4652 7.60001C17.9256 8.30155 17.4232 9.01539 16.8835 9.71078C16.3873 10.3754 15.8725 11.0092 15.3949 11.6739C14.9732 12.2585 14.601 12.8739 14.1916 13.4708L12.3805 16.1354L10.9415 18.16C10.9105 18.2092 10.8609 18.2215 10.8175 18.2585C10.681 18.4677 10.681 18.5785 10.6314 18.6769C10.5073 18.9231 10.3709 19.1692 10.222 19.3908C10.1414 19.52 10.0297 19.6369 9.93049 19.76C9.91189 19.5692 10.191 19.4708 10.0545 19.2308L9.81885 19.6L9.62037 19.9877C9.68239 20.0369 9.80024 20.0739 9.68239 20.1723L9.53973 20.4308C9.6108 20.3886 9.67209 20.3319 9.71961 20.2646C9.71961 20.4492 9.62037 20.5908 9.53353 20.7323C9.47151 20.8615 9.31024 20.96 9.19859 21.0585C9.211 21.0769 9.32265 21.12 9.34125 21.1385C9.49011 21.0892 9.53973 21.0154 9.55834 21.0585C9.60796 20.9969 9.65138 20.9477 9.66999 20.8985C9.73201 20.7323 9.83125 20.6031 9.99252 20.5415C10.0607 20.5108 10.1104 20.4615 10.16 20.4123C10.65 19.9077 11.1524 19.4277 11.5928 18.8862C12.2751 18.0615 12.8953 17.2 13.5528 16.3631C13.8319 16 14.1606 15.6431 14.4521 15.3046C14.5018 15.6739 14.4707 16.0308 14.4521 16.3754C14.4025 16.9723 14.3715 17.5754 14.3219 18.1908C14.3033 18.4369 14.3219 18.6769 14.3033 18.9169C14.3033 18.9785 14.2537 19.0339 14.2537 19.1015C14.2537 19.2615 14.3033 19.44 14.3033 19.6L14.142 21.3846C14.1234 21.5077 14.1854 21.6431 14.2226 21.7539C14.142 22.6339 14.3219 23.5569 14.173 24.48C14.2847 24.3015 14.3219 24.1908 14.3219 24.0739C14.3343 23.9815 14.3219 23.8831 14.3219 23.7662V23.6062C14.3343 23.3108 14.4025 23.0031 14.3653 22.7139C14.3279 22.4 14.3405 22.0823 14.4025 21.7723C14.4335 21.6492 14.3839 21.4831 14.4645 21.3169V21.5631C14.4521 22.4862 14.4832 23.4092 14.3529 24.3323C14.3343 24.4185 14.4025 24.56 14.2226 24.5477C14.0738 24.8369 14.2537 25.0462 14.0924 25.2123C14.0614 25.2431 14.1234 25.3908 14.142 25.4831C14.08 25.68 14.08 25.68 14.173 25.6985C14.1854 26.0554 14.2226 26.3754 14.2351 26.72C14.4956 26.1046 14.3653 25.4708 14.4832 24.8369C14.5018 25.0954 14.5142 25.3539 14.5018 25.6308C14.5018 26.0554 14.4832 26.4554 14.4645 26.88C14.4645 26.96 14.4521 27.04 14.4335 27.1262C14.3839 27.3539 14.3715 27.5754 14.2847 27.7908C14.2226 27.9508 14.2537 28.1969 14.2537 28.3877V29.0031C14.3157 29.28 14.2413 29.4277 14.2847 29.5877C14.2351 29.7539 14.2226 29.8031 14.2351 29.8462L14.2847 30.0923C14.6134 30.0615 14.4707 30.3015 14.5948 30.4308C14.5018 30.5662 14.5328 30.6154 14.5328 30.6769C14.5328 30.8246 14.5142 30.9539 14.5018 31.1015C14.5018 31.4708 14.4832 31.84 14.4832 32.2031C14.4832 32.2523 14.5018 32.2954 14.5018 32.3446L14.4832 32.8C14.5142 32.8492 14.4832 32.8985 14.4335 32.9477C14.4211 32.9477 14.3715 30.8862 14.3715 30.8862H14.1234C14.0924 31.8585 14.173 32.7323 13.9994 33.6431C13.8009 33.6615 13.7326 33.6923 13.5218 33.6923C13.0132 33.6923 12.5107 33.6923 12.0021 33.7108L10.2034 33.7231C9.91189 33.7231 9.60176 33.76 9.31024 33.76C8.91948 33.76 8.50391 33.7108 8.11935 33.7108C7.51151 33.7108 6.92847 33.76 6.32062 33.7723C5.88644 33.7908 5.43986 33.7908 4.99948 33.8092C4.70796 33.8215 4.41024 33.84 4.11872 33.8708C3.99467 33.8892 3.87062 33.9323 3.70935 33.9815C3.65973 33.9815 3.54809 33.9692 3.44885 33.9815C3.28758 34.0185 3.13872 34.1108 2.97746 34.1477C2.72935 34.1969 2.66733 34.2585 2.69834 34.5046V34.6646C2.67973 34.6954 3.05809 34.6154 3.05809 34.6154C3.02708 34.6154 3.00847 34.7139 2.95885 34.7939L3.25657 34.6831C3.49847 34.7939 3.70935 34.7323 3.90784 34.7815C4.54049 34.9415 5.19796 35.0092 5.84923 35.0708C6.271 35.1015 6.68037 35.12 7.10214 35.1323C7.70999 35.1692 8.31163 35.2 8.91328 35.2C9.42189 35.2 9.91189 35.1508 10.4143 35.1508C11.1152 35.1508 11.8223 35.1815 12.5232 35.2C12.672 35.2 12.8333 35.1815 12.9945 35.1815H14.1854L17.3735 35.1015C17.9752 35.0831 18.5954 35.0523 19.1971 35.04L21.0578 34.9908C21.7773 34.9723 22.4968 34.9723 23.1977 34.96C23.7373 34.96 24.2583 34.9415 24.798 34.9231C25.3996 34.9046 26.0199 34.8615 26.6277 34.8246C26.9502 34.8123 27.279 34.7754 27.6077 34.7446C27.9985 34.7139 28.4078 34.6646 28.7986 34.6462L30.5787 34.5662C31.3106 34.5169 32.0425 34.4554 32.793 34.4431C33.4815 34.4062 34.1824 34.4246 34.8709 34.4062C35.4725 34.3877 36.0804 34.3569 36.7006 34.3446L37.7302 34.2892C37.7302 34.2892 38.4125 34.2769 38.7537 34.24C39.3429 34.2092 39.9321 34.1477 40.5214 34.1292C40.8935 34.1108 41.2657 34.1292 41.644 34.1108C42.2457 34.0985 42.8659 34.0615 43.4738 34.0615C43.6971 34.0615 43.9452 34.0985 44.2367 34.1108C44.1126 34.2277 44.0258 34.2954 43.9266 34.3754C43.9886 34.3877 44.0568 34.4246 44.125 34.4554C44.0489 34.5087 43.9577 34.5367 43.8645 34.5354C43.8335 34.6154 43.8025 34.6462 43.7653 34.8123H44.0568C43.9452 34.8123 43.8459 34.9539 43.7343 35.0585C43.604 35.0215 43.4862 35.0585 43.4242 35.2308C43.5358 35.2923 43.5234 35.3477 43.5048 35.4154C43.3063 35.4769 43.1637 35.5385 43.2443 35.7477C43.1823 35.7846 43.0954 35.8092 43.0148 35.8646C42.9342 35.9877 42.7853 36.0246 42.8163 36.2031L43.0024 36.2646C42.9156 36.3015 42.8349 36.3508 42.7543 36.3815C42.4628 36.56 42.593 36.64 42.655 36.72C42.6054 36.7569 42.5558 36.7815 42.5062 36.8062C42.5434 36.9477 42.5868 36.9846 42.6054 36.9846L42.3573 37.1754C42.3139 37.3231 42.2457 37.3846 42.1837 37.4831C42.1216 37.5815 42.0844 37.7108 41.9976 37.8092C41.6564 38.1785 41.4145 38.6215 40.9742 38.9169C40.8129 39.0277 40.664 39.1692 40.5152 39.3169C40.2237 39.5939 39.9569 39.9016 39.6468 40.16C39.2392 40.498 38.8171 40.8183 38.3815 41.12L36.7688 42.2215C36.4711 42.4123 36.1486 42.56 35.8385 42.7385L34.9205 43.2554C34.722 43.3846 34.5483 43.5631 34.3313 43.6615C33.7916 43.8892 33.2148 44.0862 32.669 44.2954C32.1294 44.5231 31.7386 44.72 31.3292 44.8615C30.9571 44.9908 30.5601 45.0892 30.1694 45.1692C30.0391 45.2062 29.8902 45.1692 29.7414 45.1877C29.4685 45.2369 29.1832 45.3046 28.9102 45.3354C28.1907 45.4339 27.4775 45.4954 26.758 45.5939C26.33 45.6431 25.9268 45.7169 25.4988 45.7723C25.2073 45.7908 24.8972 45.7539 24.5995 45.7539C24.3886 45.7539 24.1653 45.8031 23.9482 45.7723C23.6071 45.7231 23.2659 45.6431 22.9186 45.5754C22.838 45.5631 22.7263 45.5262 22.6581 45.5631C22.534 45.6246 22.41 45.5323 22.2859 45.5631C22.2053 45.5815 22.1185 45.5139 22.0378 45.5139C21.9758 45.4954 21.889 45.5323 21.8083 45.5139C21.6285 45.4646 21.4672 45.4031 21.2687 45.4154C21.0764 45.4339 20.878 45.3354 20.6671 45.2923L19.7987 45.0892C19.6859 45.055 19.5776 45.0075 19.4762 44.9477C19.1512 44.9673 18.8254 44.9276 18.5148 44.8308C18.2853 44.7508 18.0744 44.64 17.8325 44.6708C17.7643 44.6892 17.7085 44.6523 17.6464 44.6523C17.5968 44.5908 17.5534 44.4615 17.5038 44.4615C17.175 44.4739 16.9828 44.2031 16.6975 44.1169C16.5548 44.0677 16.4432 43.9077 16.2943 43.8585C15.9345 43.7169 15.643 43.4092 15.2337 43.36C15.1034 43.3415 14.9732 43.2739 14.8243 43.2308C14.8739 43.2923 14.9049 43.3415 14.9545 43.3908C14.4832 43.1631 14.0428 42.8985 13.6024 42.6585C13.5404 42.6462 13.4907 42.5785 13.4411 42.5477L13.0007 42.2523C12.7526 42.3016 12.6534 42.2031 12.5914 42.1723C12.151 41.8646 11.6424 41.6739 11.2206 41.3292C11.0345 41.1815 10.8299 41.0831 10.6996 40.9108C10.4728 40.6466 10.1943 40.431 9.88087 40.2769C9.63277 40.1477 9.40948 40 9.17999 39.8523C9.06214 39.7723 8.95049 39.6739 8.95049 39.4954C8.95049 39.3846 8.90087 39.2677 8.75201 39.3354C8.68999 39.2369 8.62796 39.1262 8.54113 39.0892C8.34885 39.0154 8.21859 38.8677 8.06973 38.7385C7.92087 38.6092 7.80923 38.4308 7.62935 38.3631C7.30062 38.2339 7.10834 37.9569 6.90986 37.7292C6.45087 37.1939 6.04151 36.6092 5.61973 36.0431C5.58872 35.9939 5.52049 35.9631 5.47087 35.92C5.5329 36.0923 5.61973 36.24 5.70037 36.4C5.5391 36.3385 5.42746 36.2215 5.32821 36.1108C5.30961 36.1231 6.45087 37.9877 6.45087 37.9877L6.72999 38.4308C6.6311 38.4396 6.53178 38.4192 6.44456 38.3721C6.35735 38.3251 6.28617 38.2534 6.23999 38.1662C6.09733 37.9077 5.92986 37.7477 5.60733 37.7785C5.57011 37.6677 5.5391 37.5323 5.5267 37.4215C5.45847 37.4215 5.40885 37.4215 5.2972 37.4092C5.5267 37.7662 5.71897 38.0739 5.92986 38.4308L5.76859 38.3323C6.06011 38.64 6.271 39.0277 6.64935 39.2246C6.72999 39.5939 7.15176 39.7785 7.251 40.1292L7.02151 40.08C6.89745 39.92 6.74239 39.76 6.59973 39.5815C6.63075 39.6923 6.68037 39.7908 6.74239 39.8708C6.94087 40.1169 7.12075 40.3631 7.35024 40.5723C7.43087 40.6523 7.54252 40.6831 7.54252 40.8308C7.67277 40.8923 7.72859 40.9108 7.77201 40.9108C7.80923 41.0092 7.75961 41.1569 7.95809 41.12C8.08214 41.3662 8.21239 41.3662 8.39226 41.2862C8.60935 41.4954 8.721 41.5139 8.86986 41.3846L8.88227 41.6123C8.94429 41.5754 8.93188 41.5262 8.93188 41.4462L9.09315 41.5754C9.26062 41.8031 9.40328 42.0123 9.63277 42.1908C9.9429 42.4554 10.222 42.7262 10.5135 42.9723C11.0842 43.44 11.723 43.8339 12.3619 44.1908C13.1434 44.6215 13.8939 45.0954 14.694 45.52C15.6554 46.0185 16.6851 46.3631 17.7457 46.6031C18.1364 46.6831 18.5148 46.7692 18.9056 46.8615C19.2467 46.96 19.5878 47.1077 19.9352 47.1877C20.4562 47.3046 20.9896 47.3969 21.5168 47.4954L21.8766 47.5446C22.0254 47.5754 22.1991 47.5139 22.2363 47.5631C22.3169 47.6862 22.379 47.6246 22.4844 47.6123C22.5961 47.5754 22.7263 47.5754 22.8566 47.5754C23.3094 47.5939 23.7497 47.6923 24.2087 47.6554C24.308 47.6554 24.4568 47.5754 24.5375 47.7354C24.6863 47.6739 24.7669 47.6739 24.829 47.6554C24.8476 47.8031 24.829 47.8031 24.798 47.8215C24.7669 47.8339 24.7173 47.8523 24.6491 47.9015C25.2383 48.0123 25.7966 48.0246 26.2804 47.9015C27.1301 47.9631 27.8682 47.8708 28.5691 47.6246C28.6311 47.7046 28.6807 47.8215 28.78 47.6554C28.811 47.6062 28.8978 47.5939 28.9661 47.5754C29.1087 47.5446 29.2886 47.4769 29.4188 47.5262C29.5677 47.5754 29.6173 47.4462 29.729 47.4462C29.9275 47.4462 30.1011 47.4277 30.2872 47.3969C30.3802 47.3785 30.4795 47.3354 30.5973 47.2985C30.4609 47.2369 30.3306 47.2185 30.2314 47.2185C30.4299 47.12 30.6097 47.0339 30.7896 46.96C30.7586 47.0092 30.7276 47.0708 30.6594 47.0708H30.8888C30.8392 47.0708 30.771 47.2185 30.6904 47.3169L32.3402 46.9108C32.1542 46.5723 32.5325 46.6831 32.6628 46.4862C32.5015 46.5354 32.3402 46.5846 32.1728 46.6154C32.731 46.3446 33.3016 46.0985 33.8537 45.8585C33.773 45.9508 33.6738 46 33.5311 46.0862C33.6304 46.0985 33.6924 46.0985 33.742 46.1169C34.0025 46.1969 33.9405 45.9508 34.0211 45.8092C34.3313 45.8092 34.4553 45.76 34.6104 45.7108C34.7716 45.6615 34.9329 45.6123 35.1004 45.5508C35.3609 45.4339 35.6028 45.2923 35.8633 45.1631C35.9129 45.1446 35.9935 45.1631 36.0618 45.1631C36.2416 45.04 36.3099 44.9477 36.3533 44.9662C36.5828 44.9969 36.744 44.9169 36.8123 44.7077C36.9239 44.6215 37.0045 44.56 37.0852 44.5108L38.1458 43.9262C38.2761 43.9262 38.3443 43.9262 38.3753 43.9077C38.5924 43.8092 38.7847 43.6985 38.9832 43.5877C38.9256 43.5647 38.8697 43.538 38.8157 43.5077C38.9832 43.4708 39.0266 43.4585 39.1258 43.4215C39.5166 42.9662 40.0562 42.6585 40.4656 42.3015C40.6454 42.2892 40.6454 42.24 40.6454 42.2092C40.7075 42.1292 40.7757 42.0246 40.8563 41.9631C41.2161 41.6369 41.6068 41.3662 41.9356 41.0215C42.4069 40.5539 42.8659 40.0677 43.2877 39.5631C43.6785 39.1077 44.0754 38.6523 44.4042 38.1477C44.8569 37.4523 45.2477 36.7385 45.6571 36.0123C45.9486 35.4954 46.2153 34.9723 46.5068 34.4554C46.5378 34.4062 46.5999 34.3385 46.6495 34.3385C47.0899 34.2892 47.5364 34.2585 47.952 34.2154C48.0575 34.1969 48.1691 34.1292 48.2621 34.08C48.2187 34 48.1877 33.9015 48.1381 33.8215C48.0761 33.7231 47.9768 33.6431 47.9086 33.5446C47.8466 33.4646 47.797 33.3662 47.7473 33.2739L47.5985 33.0462C47.4957 32.8665 47.4025 32.6817 47.3194 32.4923C47.3007 32.4431 47.2697 32.3692 47.2883 32.3139C47.5799 31.68 47.6977 31.0031 47.9706 30.3692C48.2497 29.7231 48.3304 28.9908 48.4668 28.2954C48.5785 27.6308 48.6405 26.9662 48.7211 26.3015C48.7707 25.8277 48.839 25.3785 48.8514 24.9046C48.9506 24.16 48.9134 23.4585 48.901 22.7631C48.8886 22.1477 48.8514 21.5139 48.8204 20.8985V20.9046ZM7.87125 40.8615C7.7534 40.7323 7.65416 40.5846 7.54252 40.4554L7.59214 40.4062C7.77201 40.5969 7.95189 40.7939 8.13176 41.0031C8.03252 40.9539 7.91467 40.9231 7.87125 40.8615ZM8.13176 41.0031C8.18138 40.9908 8.231 40.9908 8.27442 40.9723C8.32404 41.0523 8.36125 41.1508 8.40467 41.2492C8.18138 41.2308 8.06353 41.1323 8.13176 41.0031ZM25.1081 47.7046V47.6554L26.0199 47.5569V47.6062C25.7097 47.6554 25.412 47.6862 25.1019 47.6985L25.1081 47.7046ZM29.2204 47.28C28.9909 47.3292 28.7428 47.36 28.5195 47.3969C28.4326 47.4092 28.3334 47.4892 28.3024 47.3477C28.2714 47.36 28.2404 47.36 28.2094 47.3785C28.29 47.6246 28.4823 47.4277 28.6435 47.5262C28.29 47.5754 27.9488 47.6062 27.6015 47.6492V47.6246L27.9116 47.5692V47.5262C27.749 47.5055 27.5855 47.4932 27.4216 47.4892C27.372 47.4892 27.31 47.5569 27.2604 47.5754C27.1983 47.5877 27.1301 47.6062 27.0495 47.6062C26.7704 47.6185 26.4913 47.6185 26.2307 47.6369L26.1687 47.6246V47.5754L29.4313 47.1385C29.4437 47.1692 29.4437 47.2 29.4623 47.2308C29.363 47.2308 29.301 47.2677 29.2142 47.28H29.2204ZM29.4685 47.12L30.5415 46.9908C29.791 47.2 29.5491 47.2369 29.4623 47.1139L29.4685 47.12ZM15.2461 14.3815C15.7671 13.6615 16.3067 12.9477 16.8277 12.2215C16.989 12.0062 17.1192 11.7785 17.2867 11.5692C17.3363 11.5077 17.3983 11.4708 17.479 11.4092L17.4666 11.3785C17.5286 11.2985 17.5906 11.2308 17.6278 11.1631C17.7085 11.04 17.7581 10.8923 17.8263 10.7446C17.8449 10.7139 17.8883 10.6831 17.8883 10.6831C18.1178 10.7939 18.1178 10.5539 18.1985 10.4677C18.3473 10.3077 18.4962 10.1292 18.6264 9.96924C18.7257 9.84001 18.8187 9.72309 18.9056 9.57539C18.918 9.52616 18.8683 9.45232 18.8559 9.38462H18.8063C18.8559 9.35386 18.9056 9.30463 18.9552 9.2677L18.9862 9.25539C19.0854 9.1077 19.1785 8.96001 19.2777 8.83078C19.4762 8.57232 19.6871 8.31386 19.9166 8.09232C19.8794 8.16616 19.8545 8.24616 19.8173 8.31386C19.8359 8.31386 19.8359 8.33232 19.8483 8.33232C20.0468 8.0677 20.2577 7.8277 20.45 7.56924C20.4376 7.55078 20.419 7.53232 20.4004 7.53232L20.1771 7.77847C20.1585 7.76001 20.1399 7.7477 20.1275 7.7477C20.2887 7.53232 20.45 7.32309 20.6175 7.08309L20.7415 7.32924C20.8097 7.16309 20.878 7.05232 20.9276 6.93539L20.7601 7.08309L20.7105 7.03386L21.0082 6.59693L21.9386 5.2677C22.0502 5.10155 22.1991 4.97232 22.2983 4.81232C22.6085 4.19693 23.0985 3.70463 23.4768 3.13847C23.5513 3.0277 23.6629 2.92924 23.7683 2.83078C23.849 2.73232 23.911 2.76924 23.9792 2.84924L25.3004 4.51693C25.6291 4.92309 25.9516 5.31693 26.2618 5.73539C26.6339 6.25232 26.9999 6.77539 27.3782 7.29232C27.8 7.89539 28.2218 8.49232 28.6311 9.1077C29.2514 10.0185 29.8406 10.9231 30.4609 11.8339C30.9137 12.4985 31.3726 13.1446 31.813 13.8092H30.9819C30.2128 13.7969 29.4313 13.7292 28.6621 13.7662C27.6201 13.8154 26.5533 13.9262 25.5113 14.0123C24.1901 14.1231 22.8504 14.1354 21.5292 14.1354C21.0578 14.1354 20.5802 14.1969 20.1088 14.2339C19.5382 14.2646 18.98 14.2954 18.4094 14.3139C17.7395 14.3508 17.0882 14.3631 16.4245 14.3754C16.0462 14.3939 15.6554 14.3754 15.2461 14.3754V14.3815ZM33.9653 21.8339V21.9815C33.9529 21.9815 33.9343 22 33.9033 22C33.8413 21.7723 33.773 21.5262 33.6924 21.2985C33.5437 20.8181 33.3287 20.3604 33.0535 19.9385C32.7248 19.4831 32.4333 19.0154 32.1045 18.5415C32.0239 18.4308 31.9123 18.3323 31.813 18.2339C31.4657 17.8646 31.1307 17.4708 30.6842 17.2C30.0353 16.7958 29.3526 16.4478 28.6435 16.16C28.4478 16.0746 28.2573 15.9781 28.0729 15.8708H28.4637L31.2548 15.8215C31.8626 15.8031 32.4457 15.8031 33.0535 15.7723C33.1962 15.7723 33.2768 15.8215 33.3637 15.9508C33.5063 16.1969 33.6552 16.4369 33.8164 16.6769C33.835 16.7139 33.8661 16.7569 33.8661 16.8062C33.8661 17.1631 33.8661 17.5385 33.8847 17.8954C33.8971 18.2646 33.9343 18.6277 33.9467 19.0031C33.9467 19.3723 33.9157 19.76 33.9343 20.1477C33.9467 20.7015 33.9653 21.2677 33.9653 21.8339ZM16.4059 16.4062C17.1688 16.3754 17.9069 16.3262 18.6575 16.2954C19.2405 16.2585 19.8483 16.2462 20.4376 16.2092C20.6795 16.1969 20.909 16.1785 21.1509 16.2092C20.8904 16.3446 20.6299 16.4739 20.4066 16.6339C20.1088 16.8308 19.8297 17.0892 19.5382 17.2985C19.2405 17.5077 18.98 17.7662 18.7319 18.0431C18.4218 18.4123 18.0868 18.7385 17.7581 19.0954C17.5286 19.36 17.2619 19.6 17.0758 19.8769C16.7967 20.2339 16.5486 20.6154 16.2881 21.0277C16.3687 19.4892 16.468 17.9631 16.3997 16.4062H16.4059ZM27.0619 32.0062C26.5409 32.1354 26.0075 32.2831 25.4616 32.3446C25.0088 32.4062 24.5313 32.3939 24.0599 32.3939C23.6319 32.3939 23.2287 32.3815 22.8007 32.3446C22.3192 32.3221 21.8451 32.218 21.399 32.0369C21.0082 31.8585 20.5926 31.6985 20.2081 31.5015C19.7967 31.3224 19.4288 31.058 19.1288 30.7262C18.918 30.4677 18.6202 30.2523 18.3597 30.0308C18.4094 30.2215 18.5272 30.3815 18.7071 30.4985C18.6202 30.5969 18.5086 30.5477 18.3473 30.2892C18.2977 30.32 18.2481 30.3385 18.2171 30.3508C18.2667 30.24 18.3101 30.1231 18.3597 30.0308C18.2977 29.8954 18.2171 29.7539 18.1488 29.6185C18.0186 29.4092 17.8883 29.1877 17.7767 28.9723C17.7395 28.9231 17.7395 28.8739 17.7085 28.8308C17.6269 28.7363 17.5503 28.6377 17.479 28.5354C17.3487 28.3385 17.2309 28.1292 17.0696 27.9385C17.0696 27.9877 17.0882 28.0308 17.0882 28.0985C17.0696 28.0985 17.0572 28.1169 17.0572 28.1169L16.7099 27.2862C16.6975 27.2862 16.6975 27.2862 16.6788 27.3046L16.9704 28.3754L16.9207 28.3877C16.8773 28.3262 16.8277 28.2646 16.7967 28.1785C16.7595 28.0554 16.6602 28.0554 16.5796 28.0985C16.53 28.1292 16.499 28.2462 16.5176 28.2954C16.6292 28.5662 16.7657 28.8492 16.8897 29.12C16.9269 29.2185 16.9518 29.2985 17.0076 29.3969C17.0262 29.4277 17.0696 29.4585 17.0696 29.5077C17.1378 29.6369 17.1875 29.7662 17.2681 29.8769L17.7271 30.4677C17.8697 30.6585 18 30.8739 18.1302 31.0646C18.1488 31.0954 18.1923 31.0954 18.2109 31.1139C18.2977 31.36 18.5706 31.5385 18.7691 31.44C18.8187 31.8092 19.2281 31.9385 19.3894 32.3015C19.1909 32.2154 19.0482 32.1539 18.918 32.0862C18.8994 32.1046 18.8994 32.1169 18.8807 32.1477C19.0792 32.2462 19.2715 32.3446 19.4514 32.4554C19.6188 32.56 19.7801 32.6523 19.929 32.7631C20.1213 32.9477 20.3507 33.0462 20.6299 33.1077C20.6238 33.0853 20.6132 33.0644 20.5988 33.0462C21.0516 33.2554 21.5292 33.4769 21.889 33.6615L16.499 33.7539C16.499 33.4462 16.4804 33.1569 16.4804 32.8492C16.4804 32.72 16.5176 32.6031 16.499 32.48C16.4494 31.7292 16.4494 30.9846 16.3501 30.2523C16.2705 29.4817 16.2436 28.7066 16.2695 27.9323C16.2881 27.5139 16.2571 27.0708 16.2385 26.6523C16.2385 26.0862 16.2385 25.5323 16.2571 24.9662C16.2571 24.8862 16.2881 24.8185 16.3191 24.7385H16.3687C16.3873 24.7754 16.3687 24.8185 16.3997 24.8369C16.4494 24.8862 16.53 24.9662 16.5672 24.9539C16.6602 24.8862 16.8153 24.8185 16.8401 24.72C16.9207 24.5292 16.958 24.32 16.958 24.1231C16.958 23.9815 17.02 23.8769 17.082 23.7846C17.1192 23.7354 17.1378 23.6862 17.1688 23.6246L16.958 23.4769C17.02 23.2923 17.0076 23.0892 17.2495 22.9846C17.2867 22.9723 17.2867 22.8923 17.2991 22.8431L17.3487 22.4369C17.3797 22.4862 17.3983 22.4985 17.4294 22.5354C17.4397 22.5176 17.4522 22.501 17.4666 22.4862C17.4666 22.4246 17.448 22.2892 17.4666 22.2892C17.6588 22.2585 17.5782 22.0431 17.6775 21.9508C17.6899 21.9323 17.6588 21.8892 17.6588 21.8523C17.6588 21.8215 17.6588 21.7723 17.6775 21.7723C17.9007 21.7231 17.8697 21.4769 18.0186 21.3662C18.0682 21.3354 18.0806 21.2862 18.1426 21.2062C18.2791 21.4277 18.0496 21.5446 18.0372 21.7046C18.3101 21.5446 18.3907 21.1508 18.2295 21.04C18.2915 20.9908 18.3597 20.9292 18.4094 20.8615C18.5892 20.6708 18.7815 20.4923 18.949 20.2954C19.0606 20.1477 19.1288 19.9692 19.2405 19.8277C19.3025 19.7477 19.439 19.68 19.5382 19.6308C19.8337 19.4898 20.0895 19.2784 20.2825 19.0154L20.419 18.9169C20.4686 18.8862 20.5616 18.8862 20.5802 18.8369C20.5988 18.8062 20.5492 18.7262 20.5182 18.6769C20.5802 18.64 20.6423 18.5785 20.7787 18.5108L20.6795 18.7385L20.7601 18.8185C20.909 18.7077 21.1323 18.5723 21.2811 18.48C21.2574 18.4504 21.2304 18.4235 21.2005 18.4L20.8097 18.5969C20.8407 18.5477 20.8407 18.5169 20.8594 18.4985C21.0836 18.3477 21.3178 18.2121 21.5602 18.0923C22.1309 17.8339 22.7015 17.5754 23.2721 17.3292C23.3714 17.28 23.5016 17.3169 23.6133 17.3169C23.6629 17.3169 23.6939 17.3169 23.7435 17.2985C24.004 17.2185 24.2707 17.1385 24.5313 17.0708C24.6429 17.04 24.7732 17.0215 24.891 17.0215C25.3748 17.04 25.8648 17.04 26.3548 17.0708C26.5719 17.0892 26.7642 17.1323 26.9626 17.2C27.5089 17.3934 28.0247 17.6628 28.4947 18C28.9661 18.3077 29.4064 18.6462 29.884 18.9231C30.3259 19.196 30.7043 19.5589 30.9943 19.9877C31.354 20.4923 31.7572 20.9477 31.9247 21.5631L32.1728 22.6339C32.2162 22.8308 32.3278 23.0215 32.2844 23.2492C32.1976 23.6554 32.1356 24.0739 32.0673 24.48C32.0363 24.6462 32.0053 24.8062 32.0177 24.9723C32.0487 25.4708 31.8564 25.9077 31.658 26.3631C31.5959 26.5108 31.4967 26.6585 31.4161 26.8185C31.4347 26.8369 31.5277 26.88 31.5463 26.88L31.6952 26.5908C31.7076 26.5908 31.7076 26.5908 31.7262 26.6092L31.4967 27.3046C31.3109 27.8181 31.0977 28.3214 30.8578 28.8123C30.7338 29.0892 30.4981 29.3169 30.3368 29.5754C30.1756 29.8031 30.0453 30.0431 29.884 30.2523C29.7352 30.4369 29.5863 30.6154 29.3878 30.7446C28.9537 31.0646 28.4947 31.3908 28.0233 31.6492C27.7256 31.8339 27.3844 31.9262 27.0557 32.0062H27.0619ZM18.3597 31.1446L18.3473 31.1631C18.3101 31.1446 18.2605 31.1323 18.2295 31.1015L17.8387 30.5108C17.8077 30.4615 17.7891 30.4185 17.8077 30.3508C17.9876 30.6277 18.1675 30.8862 18.3659 31.1446H18.3597ZM28.5133 33.3662C29.2514 33.0585 29.853 32.6215 30.4051 32.1169C30.4919 32.0369 30.5725 31.9569 30.6718 31.8892C31.3283 31.4576 31.8878 30.8962 32.3154 30.24C32.8426 29.4892 33.1838 28.6462 33.6056 27.8523L33.7048 27.6739C33.6738 29.52 33.8909 31.3415 34.1328 33.1754L28.5133 33.3662ZM45.0678 32.88C45.0492 32.9108 45.0182 32.9415 45.0058 32.9785C44.9872 32.9477 44.9872 32.8985 44.9686 32.8308C44.8694 33.0892 44.6585 32.96 44.5096 32.96C43.6288 32.9785 42.7295 32.9785 41.8487 32.9785C40.999 32.9785 40.1368 32.9785 39.2871 32.9908C39.008 32.9908 38.7164 33.0523 38.4373 33.0769C37.7675 33.1077 37.1038 33.1262 36.4339 33.1385C36.3843 33.1385 36.3347 33.0585 36.2478 32.9908C36.2251 33.0447 36.1936 33.0945 36.1548 33.1385L36.0742 33.0277L36.0245 33.1508H35.9749C35.9439 32.9292 35.8757 32.72 35.8757 32.4923C35.8757 32 35.9253 31.52 35.9377 31.0339C35.9563 30.8062 35.9377 30.5969 35.9377 30.3815L36.1238 30.5108L36.2168 30.3508L36.1548 30.3015C36.1858 30.2892 36.2168 30.2523 36.2168 30.24C36.2354 30.1908 36.2664 30.1415 36.2664 30.1108C36.2664 29.9939 36.2354 29.8954 36.2168 29.8031C36.2354 29.8031 36.2478 29.8031 36.2664 29.7846L36.3657 30.2708H36.4153C36.3533 30.16 36.5642 30.0615 36.3843 29.9323C36.3657 29.9139 36.3967 29.8154 36.3967 29.7662C36.3471 29.6739 36.3161 29.5754 36.2726 29.4462C36.285 29.4277 36.3347 29.4092 36.3843 29.3969C36.3223 29.36 36.2664 29.3354 36.2168 29.3169C36.3843 29.1692 36.3843 29.0892 36.2354 28.9231C36.2664 28.9108 36.2975 28.9108 36.2975 28.8923C36.2975 28.7508 36.2975 28.6031 36.2664 28.4615C36.2354 28.2954 36.3161 28.0985 36.0742 28C36.0866 28.0492 36.1052 28.0862 36.1362 28.1292L36.0369 28.1785C35.8261 27.9877 35.9563 27.7231 35.9129 27.4339C36.0245 27.4646 36.1052 27.4954 36.1858 27.5323C36.1548 27.4154 36.0742 27.2862 36.0245 27.1446H35.9625V26.0739C35.9625 26.0862 36.0742 26.0862 36.1362 26.1046C36.1362 26.0862 36.1548 26.0739 36.1548 26.0554L35.9687 25.8462L36.0059 25.8092C35.8757 25.6492 35.9439 25.4215 35.9439 25.3785V24.2462C36.1052 24.4062 35.8571 24.6154 36.1052 24.7139V24.5539H36.0866C36.0742 24.3077 36.0742 24.0677 36.0556 23.8277H36.0245L35.9873 23.9077H35.9563L36.0556 20.0308C36.2168 20.24 36.3967 20.4369 36.5145 20.6462C36.8867 21.3231 37.3829 21.9139 37.8357 22.5292C38.2264 23.0646 38.58 23.6492 38.9459 24.1969L40.2485 26.1908C40.8665 27.1443 41.5267 28.0704 42.2271 28.9662C42.5 29.3354 42.7977 29.7108 43.0706 30.0862L44.0506 31.4339L44.5716 32.1108C44.6709 32.24 44.8197 32.3385 44.919 32.4185L44.8569 32.4062C44.9004 32.4677 44.9314 32.5169 44.9686 32.5477C45.1485 32.6462 45.1609 32.7446 45.0678 32.8923V32.88ZM45.899 28.8308V28.72C45.899 28.7508 45.9176 28.8 45.899 28.8308ZM46.4572 21.68C46.4386 21.68 46.3394 21.5815 46.3207 21.5692C46.3083 21.6185 46.3207 21.6677 46.2897 21.7292C46.2773 21.68 46.1657 21.6985 46.1657 21.6492C46.1471 21.8769 46.2587 22.1046 46.2401 22.3262C46.2897 22.3015 46.4882 22.2831 46.5378 22.2339C46.5551 22.2498 46.5767 22.2604 46.5999 22.2646C46.2773 22.5108 46.3518 22.7569 46.5006 23.0277C46.5378 23.0892 46.6309 23.2246 46.5378 23.3539C46.5006 23.3846 46.5502 23.4769 46.5688 23.5631H46.6185V23.5939L46.4696 23.6431C46.4386 23.5939 46.2401 23.5015 46.2401 23.4154V24.2462C46.4076 24.2954 46.4076 24.5231 46.4696 24.6339C46.4966 24.594 46.5175 24.5505 46.5316 24.5046L46.5502 24.5169C46.5378 24.6154 46.5192 24.7139 46.4882 24.8123C46.4572 24.96 46.4262 25.0892 46.4076 25.2308C46.4076 25.2492 46.4386 25.28 46.4386 25.2923C46.2587 25.7046 46.358 26.1539 46.2897 26.5785C46.2401 26.8862 46.2897 27.2123 46.2587 27.5323C46.2277 27.8092 46.1595 28.1046 46.0975 28.3754C46.0788 28.4246 46.0478 28.4369 45.9672 28.4739C45.9982 28.2831 45.9796 28.1477 45.9486 27.9692C45.93 27.9692 45.7191 27.8585 45.7005 27.8585C45.7005 28.0862 45.8307 28.3939 45.8866 28.6585C45.8307 28.6339 45.6385 28.5231 45.6199 28.5231C45.5888 28.72 45.5888 28.9785 45.5702 29.1877C45.5578 29.3477 45.409 29.4954 45.3904 29.68C45.3904 29.7723 45.5082 29.8339 45.4896 30H45.6199C45.6199 29.6739 45.7687 29.3846 45.7687 29.04H45.8183C45.8307 29.0769 45.8804 29.1077 45.868 29.1262C45.8307 29.3046 45.7687 29.4954 45.7811 29.68C45.7811 29.7723 45.8618 29.8646 45.8307 29.9877C45.7997 30.08 45.7811 30.1785 45.7687 30.3262C45.7501 30.24 45.7315 30.2092 45.7315 30.16L45.5516 30.1477C45.5392 30.24 45.6695 30.3385 45.6509 30.4185C45.6385 30.4369 45.6199 30.4369 45.5888 30.4554L45.0492 29.6739C44.6213 29.0585 44.1995 28.4431 43.7777 27.8092C43.6666 27.6546 43.5671 27.4921 43.48 27.3231C42.9751 26.4607 42.4136 25.6323 41.7991 24.8431C41.3277 24.24 40.9494 23.5939 40.509 22.96L39.2871 21.1754C39.1382 20.9846 38.9583 20.8062 38.8281 20.5969C38.4063 19.9323 38.028 19.2431 37.6062 18.5846C37.2464 18.0308 36.8557 17.4954 36.4773 16.96L36.0866 16.3939C36.0669 16.3602 36.0562 16.322 36.0556 16.2831C36.0245 15.9262 35.9935 15.5692 35.9749 15.2246C35.9749 14.9046 36.0059 14.5785 36.0059 14.24V13.9446C36.0059 13.8646 36.0245 13.8031 36.0245 13.7169L36.068 13.6554C35.5966 13.6554 35.1066 13.6369 34.6352 13.6554C34.3251 13.6677 34.1576 13.5385 33.9529 13.3108C33.3326 12.6154 32.8737 11.8215 32.334 11.0769C31.8257 10.3672 31.3087 9.6636 30.7834 8.96616L29.5057 7.28001C29.0343 6.63386 28.5753 5.9877 28.0853 5.33539C27.5023 4.55386 26.8944 3.77847 26.2866 2.99693C26.0137 2.64001 25.7035 2.30155 25.3934 1.92616C25.6043 1.96309 25.8028 1.99386 25.9951 2.01232L26.7828 2.06155C27.372 2.10463 27.9613 2.14155 28.5443 2.22155C29.0343 2.28309 29.5243 2.38155 30.0329 2.4677C31.1059 2.64001 32.1666 2.93539 33.1962 3.27386C33.7978 3.47078 34.3871 3.72924 34.9763 3.96924C36.285 4.51743 37.5607 5.14 38.7971 5.83386C39.1878 6.04924 39.4173 6.3877 39.7088 6.69539C40.1306 7.13232 40.5586 7.56924 40.968 8.02462C41.4394 8.56001 41.8797 9.11386 42.3325 9.66155C42.7419 10.1539 43.1699 10.6339 43.573 11.1262C43.7095 11.2677 43.8087 11.4462 43.9204 11.6123C44.1809 12 44.4786 12.3754 44.7019 12.7939C44.8632 13.1015 44.9624 13.4585 45.074 13.7969L45.5702 15.2923C45.6819 15.6615 45.7811 16.0554 45.8618 16.4431C45.9238 16.7015 45.9114 16.9785 45.9858 17.2369C46.0913 17.5754 45.9858 17.9508 46.0913 18.2892L46.1347 18.4062C46.2029 18.4677 46.2525 18.5292 46.1533 18.6339C46.1409 18.6462 46.1409 18.7139 46.1533 18.7569C46.1905 18.7262 46.2029 18.6954 46.2339 18.6462C46.2339 18.6831 46.2525 18.6954 46.2525 18.7077C46.2525 18.7754 46.2339 18.8431 46.2525 18.9046C46.2525 18.9354 46.2835 18.9846 46.3021 19.0215C46.3332 18.9846 46.3642 18.9723 46.4262 18.9231C46.575 19.4769 46.5937 20.0246 46.5937 20.5908C46.5937 21.1262 46.6929 21.6615 46.4696 22.1785C46.513 22 46.3952 21.84 46.4448 21.68H46.4572Z" fill="#DD3A0A"/>
<path fill-rule="evenodd" clip-rule="evenodd" d="M36.0245 27.9877C36.0431 27.9877 36.0555 28.0062 36.0555 28.0062L36.0369 27.9877C36.0369 27.9692 36.0369 27.9692 36.0245 27.9877ZM38.6047 44.0123C38.4187 44.1354 38.245 44.2585 38.0155 44.3015C37.9969 44.2892 37.9969 44.2708 37.9783 44.2523L38.5365 43.9139C38.5551 43.9446 38.5861 43.9754 38.5985 44.0123H38.6047ZM7.99524 22.0308C8.18132 21.8031 8.35499 21.5754 8.55347 21.3539C8.56587 21.3662 8.69613 21.4031 8.71474 21.4154L8.11309 22.1908C8.07587 22.16 8.02625 22.0492 7.99524 22.0308ZM3.36195 29.9815L2.97119 29.1446C3.017 29.1146 3.06722 29.0918 3.12005 29.0769C3.29993 29.3354 3.38056 29.6431 3.51081 29.92C3.51081 29.92 3.38056 29.9815 3.36195 29.9815ZM7.52385 22.2031C7.42461 22.3446 7.33157 22.5108 7.23233 22.6585C7.21372 22.64 7.03385 22.72 7.02144 22.7015C7.11448 22.56 7.36258 22.2954 7.45562 22.1477L7.52385 22.2031ZM36.8618 44.6769C36.8742 44.6769 36.8742 44.6585 36.8866 44.6585C37.0045 44.6769 37.1347 44.6954 37.2588 44.6954C37.0479 44.8369 36.9176 44.8185 36.8556 44.6769H36.8618ZM7.54866 22.88C7.56727 22.8308 7.59828 22.7815 7.62929 22.7323L7.70993 22.72C7.77815 22.6031 7.77815 22.5231 7.84638 22.4246C7.82777 22.4123 7.80917 22.4123 7.79676 22.3939C7.69752 22.4554 7.59828 22.5415 7.49904 22.6092C7.53625 22.64 7.53625 22.6585 7.53625 22.6892C7.406 22.6708 7.35018 22.7385 7.28815 22.9169C7.27575 22.9662 7.18891 22.9785 7.10828 23.04C7.09587 23.0769 7.07727 23.1631 7.04625 23.2369L7.05866 23.2554C7.02765 23.2862 6.97803 23.3046 6.97803 23.3046C6.87879 23.4031 6.76714 23.4892 6.6679 23.5815C6.6555 23.6308 6.63689 23.68 6.63689 23.7231C6.74853 23.6123 6.94701 23.4031 7.09587 23.2739L7.10828 23.2862L7.29436 22.9969L7.32537 23.0462L7.17651 23.4523C7.13929 23.4646 7.08967 23.5015 7.08967 23.4831C7.02765 23.5323 6.97803 23.5938 6.9098 23.6431L6.61828 23.84C6.45701 23.9877 6.29575 24.1169 6.11587 24.2585L5.75613 24.8123C5.94841 24.7631 6.00423 24.8431 5.98562 25.0092C6.20891 25.04 6.23372 24.8615 6.29575 24.7323C6.30815 24.7015 6.32676 24.6339 6.35777 24.6154L6.82917 24.2462C6.86638 24.2154 6.86638 24.1477 6.86638 24.0985C6.86638 24.08 6.77955 24.08 6.72993 24.0677C6.87879 23.9015 7.08967 23.6308 7.23853 23.4523C7.31917 23.4031 7.3998 23.3354 7.3998 23.2862C7.38739 23.1077 7.49904 23.0585 7.62929 22.9969C7.56727 22.9477 7.54866 22.8985 7.54866 22.8862V22.88Z" fill="#DD3735"/>
<path fill-rule="evenodd" clip-rule="evenodd" d="M7.88347 22.7077L7.68499 23.0277L7.59195 22.9785C7.52993 23.3477 7.29423 23.6739 7.07094 23.7415C7.13296 23.7723 7.19499 23.8031 7.25081 23.7908C7.29423 23.7723 7.33144 23.6923 7.36246 23.6431L7.79663 23.0092L7.9517 22.7631L7.88967 22.7015L7.88347 22.7077ZM2.45005 29.8154C2.53069 29.8154 2.61132 29.8338 2.71056 29.8338C2.71056 29.7723 2.79119 29.7846 2.79119 29.7169H2.84081C2.84081 29.7969 2.85942 29.8646 2.85942 29.9446H2.51208C2.49967 29.9323 2.43145 29.8338 2.45005 29.8154ZM2.3198 29.0708C2.27018 29.0215 2.18955 28.9723 2.18955 28.9231C2.17094 28.8615 2.22056 28.7815 2.27018 28.6954L2.35081 29.0215C2.3322 29.04 2.3198 29.0523 2.3198 29.0708ZM2.72917 28.0308C2.79119 28.1969 2.85322 28.3754 2.92145 28.5354C2.87746 28.5502 2.83572 28.5709 2.79739 28.5969L2.58031 28.0985C2.59891 28.08 2.69195 28.0369 2.72917 28.0369V28.0308ZM39.0636 43.5385C39.1442 43.5015 39.2373 43.4831 39.3737 43.4523C39.2249 43.5692 39.107 43.6492 39.014 43.7477C38.9954 43.7292 38.9768 43.7169 38.9644 43.7169L39.0636 43.5323V43.5385ZM18.9984 9.26769L19.2775 9.08923L19.3085 9.12616C19.2093 9.24923 19.1225 9.38462 19.0108 9.54462C18.9984 9.43385 18.9984 9.36616 18.9798 9.28616C18.9612 9.28616 18.9798 9.28616 18.9984 9.26769ZM23.7806 17.4769L24.2519 17.2615C24.2395 17.36 24.2395 17.4277 24.2395 17.4892C24.1856 17.4708 24.1291 17.4604 24.0721 17.4585C23.9728 17.4769 23.793 17.6062 23.7123 17.6185C23.6999 17.6185 23.7744 17.4954 23.7744 17.4769H23.7806ZM36.0244 31.2246C36.0554 31.3908 36.3655 31.4708 36.0554 31.6308C36.105 31.6677 36.1546 31.68 36.2042 31.7169C36.2 31.7399 36.1892 31.7613 36.1732 31.7785C36.136 31.7969 36.074 31.8277 36.043 31.8092C36.0244 31.8092 35.9933 31.7477 35.9933 31.7108C35.9933 31.5692 36.0057 31.4215 36.0244 31.2246Z" fill="#DD3735"/>
</g>
<defs>
<clipPath id="clip0_484_185">
<rect width="49" height="48" fill="white"/>
</clipPath>
</defs>
</svg>
