<svg width="50" height="50" viewBox="0 0 50 50" fill="none" xmlns="http://www.w3.org/2000/svg">
<g clip-path="url(#clip0_484_131)">
<path opacity="0.5" d="M48.8096 47.619H36.9048C36.2473 47.619 35.7144 48.152 35.7144 48.8095C35.7144 49.467 36.2473 50 36.9048 50H48.8096C49.4671 50 50.0001 49.467 50.0001 48.8095C50.0001 48.152 49.4671 47.619 48.8096 47.619Z" fill="#4D616E"/>
<path opacity="0.5" d="M32.1427 47.619H17.857C17.1995 47.619 16.6665 48.152 16.6665 48.8095C16.6665 49.467 17.1995 50 17.857 50H32.1427C32.8002 50 33.3332 49.467 33.3332 48.8095C33.3332 48.152 32.8002 47.619 32.1427 47.619Z" fill="#4D616E"/>
<path d="M13.0952 47.619H1.19048C0.532994 47.619 0 48.152 0 48.8095C0 49.467 0.532994 50 1.19048 50H13.0952C13.7527 50 14.2857 49.467 14.2857 48.8095C14.2857 48.152 13.7527 47.619 13.0952 47.619Z" fill="#EA5E5E"/>
<path opacity="0.5" d="M48.8095 42.8571H39.2857C38.6282 42.8571 38.0952 43.3901 38.0952 44.0476C38.0952 44.7051 38.6282 45.2381 39.2857 45.2381H48.8095C49.467 45.2381 50 44.7051 50 44.0476C50 43.3901 49.467 42.8571 48.8095 42.8571Z" fill="#4D616E"/>
<path opacity="0.5" d="M34.5236 42.8571H32.1426C31.4851 42.8571 30.9521 43.3901 30.9521 44.0476C30.9521 44.7051 31.4851 45.2381 32.1426 45.2381H34.5236C35.1811 45.2381 35.7141 44.7051 35.7141 44.0476C35.7141 43.3901 35.1811 42.8571 34.5236 42.8571Z" fill="#4D616E"/>
<path opacity="0.5" d="M27.3808 42.8571H17.857C17.1995 42.8571 16.6665 43.3901 16.6665 44.0476C16.6665 44.7051 17.1995 45.2381 17.857 45.2381H27.3808C28.0383 45.2381 28.5713 44.7051 28.5713 44.0476C28.5713 43.3901 28.0383 42.8571 27.3808 42.8571Z" fill="#4D616E"/>
<path d="M13.0954 42.8571H10.7144C10.0569 42.8571 9.52393 43.3901 9.52393 44.0476C9.52393 44.7051 10.0569 45.2381 10.7144 45.2381H13.0954C13.7528 45.2381 14.2858 44.7051 14.2858 44.0476C14.2858 43.3901 13.7528 42.8571 13.0954 42.8571Z" fill="#F7B93E"/>
<path d="M5.95238 42.8571H1.19048C0.532994 42.8571 0 43.3901 0 44.0476C0 44.7051 0.532994 45.2381 1.19048 45.2381H5.95238C6.60986 45.2381 7.14286 44.7051 7.14286 44.0476C7.14286 43.3901 6.60986 42.8571 5.95238 42.8571Z" fill="#56B3B4"/>
<path opacity="0.5" d="M48.8095 38.0952H27.3809C26.7234 38.0952 26.1904 38.6282 26.1904 39.2857C26.1904 39.9432 26.7234 40.4762 27.3809 40.4762H48.8095C49.467 40.4762 50 39.9432 50 39.2857C50 38.6282 49.467 38.0952 48.8095 38.0952Z" fill="#4D616E"/>
<path opacity="0.5" d="M22.6189 38.0952H17.857C17.1995 38.0952 16.6665 38.6282 16.6665 39.2857C16.6665 39.9432 17.1995 40.4762 17.857 40.4762H22.6189C23.2764 40.4762 23.8094 39.9432 23.8094 39.2857C23.8094 38.6282 23.2764 38.0952 22.6189 38.0952Z" fill="#4D616E"/>
<path d="M13.0952 38.0952H1.19048C0.532994 38.0952 0 38.6282 0 39.2857C0 39.9432 0.532994 40.4762 1.19048 40.4762H13.0952C13.7527 40.4762 14.2857 39.9432 14.2857 39.2857C14.2857 38.6282 13.7527 38.0952 13.0952 38.0952Z" fill="#BF85BF"/>
<path opacity="0.5" d="M48.8093 33.3333H44.0474C43.3899 33.3333 42.8569 33.8663 42.8569 34.5238C42.8569 35.1813 43.3899 35.7143 44.0474 35.7143H48.8093C49.4668 35.7143 49.9998 35.1813 49.9998 34.5238C49.9998 33.8663 49.4668 33.3333 48.8093 33.3333Z" fill="#4D616E"/>
<path opacity="0.5" d="M39.2859 33.3333H34.524C33.8665 33.3333 33.3335 33.8663 33.3335 34.5238C33.3335 35.1813 33.8665 35.7143 34.524 35.7143H39.2859C39.9434 35.7143 40.4764 35.1813 40.4764 34.5238C40.4764 33.8663 39.9434 33.3333 39.2859 33.3333Z" fill="#4D616E"/>
<path d="M29.7621 33.3333H8.33354C7.67606 33.3333 7.14307 33.8663 7.14307 34.5238C7.14307 35.1813 7.67606 35.7143 8.33354 35.7143H29.7621C30.4196 35.7143 30.9526 35.1813 30.9526 34.5238C30.9526 33.8663 30.4196 33.3333 29.7621 33.3333Z" fill="#F7B93E"/>
<path d="M3.57143 33.3333H1.19048C0.532994 33.3333 0 33.8663 0 34.5238C0 35.1813 0.532994 35.7143 1.19048 35.7143H3.57143C4.22891 35.7143 4.7619 35.1813 4.7619 34.5238C4.7619 33.8663 4.22891 33.3333 3.57143 33.3333Z" fill="#BF85BF"/>
<path opacity="0.5" d="M48.8094 28.5714H41.6666C41.0091 28.5714 40.4761 29.1044 40.4761 29.7619C40.4761 30.4194 41.0091 30.9524 41.6666 30.9524H48.8094C49.4669 30.9524 49.9999 30.4194 49.9999 29.7619C49.9999 29.1044 49.4669 28.5714 48.8094 28.5714Z" fill="#4D616E"/>
<path d="M36.9046 28.5714H29.7618C29.1043 28.5714 28.5713 29.1044 28.5713 29.7619C28.5713 30.4194 29.1043 30.9524 29.7618 30.9524H36.9046C37.5621 30.9524 38.0951 30.4194 38.0951 29.7619C38.0951 29.1044 37.5621 28.5714 36.9046 28.5714Z" fill="#BF85BF"/>
<path d="M24.9999 28.5714H15.4761C14.8186 28.5714 14.2856 29.1044 14.2856 29.7619C14.2856 30.4194 14.8186 30.9524 15.4761 30.9524H24.9999C25.6574 30.9524 26.1904 30.4194 26.1904 29.7619C26.1904 29.1044 25.6574 28.5714 24.9999 28.5714Z" fill="#EA5E5E"/>
<path d="M10.7143 28.5714H1.19048C0.532994 28.5714 0 29.1044 0 29.7619C0 30.4194 0.532994 30.9524 1.19048 30.9524H10.7143C11.3718 30.9524 11.9048 30.4194 11.9048 29.7619C11.9048 29.1044 11.3718 28.5714 10.7143 28.5714Z" fill="#56B3B4"/>
<path opacity="0.5" d="M48.8093 23.8095H44.0474C43.3899 23.8095 42.8569 24.3425 42.8569 25C42.8569 25.6575 43.3899 26.1905 44.0474 26.1905H48.8093C49.4668 26.1905 49.9998 25.6575 49.9998 25C49.9998 24.3425 49.4668 23.8095 48.8093 23.8095Z" fill="#4D616E"/>
<path d="M39.2859 23.8095H20.2383C19.5808 23.8095 19.0479 24.3425 19.0479 25C19.0479 25.6575 19.5808 26.1905 20.2383 26.1905H39.2859C39.9434 26.1905 40.4764 25.6575 40.4764 25C40.4764 24.3425 39.9434 23.8095 39.2859 23.8095Z" fill="#56B3B4"/>
<path d="M15.4764 23.8095H8.33354C7.67606 23.8095 7.14307 24.3425 7.14307 25C7.14307 25.6575 7.67606 26.1905 8.33354 26.1905H15.4764C16.1339 26.1905 16.6669 25.6575 16.6669 25C16.6669 24.3425 16.1339 23.8095 15.4764 23.8095Z" fill="#F7B93E"/>
<path d="M3.57143 23.8095H1.19048C0.532994 23.8095 0 24.3425 0 25C0 25.6575 0.532994 26.1905 1.19048 26.1905H3.57143C4.22891 26.1905 4.7619 25.6575 4.7619 25C4.7619 24.3425 4.22891 23.8095 3.57143 23.8095Z" fill="#EA5E5E"/>
<path opacity="0.5" d="M48.8097 19.0476H46.4288C45.7713 19.0476 45.2383 19.5806 45.2383 20.2381C45.2383 20.8956 45.7713 21.4286 46.4288 21.4286H48.8097C49.4672 21.4286 50.0002 20.8956 50.0002 20.2381C50.0002 19.5806 49.4672 19.0476 48.8097 19.0476Z" fill="#4D616E"/>
<path d="M41.6665 19.0476H29.7618C29.1043 19.0476 28.5713 19.5806 28.5713 20.2381C28.5713 20.8956 29.1043 21.4286 29.7618 21.4286H41.6665C42.324 21.4286 42.857 20.8956 42.857 20.2381C42.857 19.5806 42.324 19.0476 41.6665 19.0476Z" fill="#F7B93E"/>
<path opacity="0.5" d="M24.9998 19.0476H17.857C17.1995 19.0476 16.6665 19.5806 16.6665 20.2381C16.6665 20.8956 17.1995 21.4286 17.857 21.4286H24.9998C25.6573 21.4286 26.1903 20.8956 26.1903 20.2381C26.1903 19.5806 25.6573 19.0476 24.9998 19.0476Z" fill="#4D616E"/>
<path d="M13.0952 19.0476H1.19048C0.532994 19.0476 0 19.5806 0 20.2381C0 20.8956 0.532994 21.4286 1.19048 21.4286H13.0952C13.7527 21.4286 14.2857 20.8956 14.2857 20.2381C14.2857 19.5806 13.7527 19.0476 13.0952 19.0476Z" fill="#BF85BF"/>
<path opacity="0.5" d="M48.8097 14.2857H46.4288C45.7713 14.2857 45.2383 14.8187 45.2383 15.4762C45.2383 16.1337 45.7713 16.6667 46.4288 16.6667H48.8097C49.4672 16.6667 50.0002 16.1337 50.0002 15.4762C50.0002 14.8187 49.4672 14.2857 48.8097 14.2857Z" fill="#4D616E"/>
<path d="M41.6665 14.2857H29.7618C29.1043 14.2857 28.5713 14.8187 28.5713 15.4762C28.5713 16.1337 29.1043 16.6667 29.7618 16.6667H41.6665C42.324 16.6667 42.857 16.1337 42.857 15.4762C42.857 14.8187 42.324 14.2857 41.6665 14.2857Z" fill="#EA5E5E"/>
<path opacity="0.5" d="M24.9998 14.2857H17.857C17.1995 14.2857 16.6665 14.8187 16.6665 15.4762C16.6665 16.1337 17.1995 16.6667 17.857 16.6667H24.9998C25.6573 16.6667 26.1903 16.1337 26.1903 15.4762C26.1903 14.8187 25.6573 14.2857 24.9998 14.2857Z" fill="#4D616E"/>
<path d="M13.0954 14.2857H10.7144C10.0569 14.2857 9.52393 14.8187 9.52393 15.4762C9.52393 16.1337 10.0569 16.6667 10.7144 16.6667H13.0954C13.7528 16.6667 14.2858 16.1337 14.2858 15.4762C14.2858 14.8187 13.7528 14.2857 13.0954 14.2857Z" fill="#56B3B4"/>
<path d="M5.95238 14.2857H1.19048C0.532994 14.2857 0 14.8187 0 15.4762C0 16.1337 0.532994 16.6667 1.19048 16.6667H5.95238C6.60986 16.6667 7.14286 16.1337 7.14286 15.4762C7.14286 14.8187 6.60986 14.2857 5.95238 14.2857Z" fill="#F7B93E"/>
<path opacity="0.5" d="M48.8093 9.5238H44.0474C43.3899 9.5238 42.8569 10.0568 42.8569 10.7143C42.8569 11.3718 43.3899 11.9048 44.0474 11.9048H48.8093C49.4668 11.9048 49.9998 11.3718 49.9998 10.7143C49.9998 10.0568 49.4668 9.5238 48.8093 9.5238Z" fill="#4D616E"/>
<path d="M39.2858 9.5238H36.9048C36.2473 9.5238 35.7144 10.0568 35.7144 10.7143C35.7144 11.3718 36.2473 11.9048 36.9048 11.9048H39.2858C39.9433 11.9048 40.4763 11.3718 40.4763 10.7143C40.4763 10.0568 39.9433 9.5238 39.2858 9.5238Z" fill="#56B3B4"/>
<path d="M32.143 9.5238H22.6192C21.9617 9.5238 21.4287 10.0568 21.4287 10.7143C21.4287 11.3718 21.9617 11.9048 22.6192 11.9048H32.143C32.8005 11.9048 33.3335 11.3718 33.3335 10.7143C33.3335 10.0568 32.8005 9.5238 32.143 9.5238Z" fill="#BF85BF"/>
<path d="M17.8571 9.5238H1.19048C0.532994 9.5238 0 10.0568 0 10.7143C0 11.3718 0.532994 11.9048 1.19048 11.9048H17.8571C18.5146 11.9048 19.0476 11.3718 19.0476 10.7143C19.0476 10.0568 18.5146 9.5238 17.8571 9.5238Z" fill="#56B3B4"/>
<path opacity="0.5" d="M48.8094 4.7619H41.6666C41.0091 4.7619 40.4761 5.2949 40.4761 5.95238C40.4761 6.60986 41.0091 7.14285 41.6666 7.14285H48.8094C49.4669 7.14285 49.9999 6.60986 49.9999 5.95238C49.9999 5.2949 49.4669 4.7619 48.8094 4.7619Z" fill="#4D616E"/>
<path d="M36.9048 4.7619H13.0953C12.4378 4.7619 11.9048 5.2949 11.9048 5.95238C11.9048 6.60986 12.4378 7.14285 13.0953 7.14285H36.9048C37.5623 7.14285 38.0953 6.60986 38.0953 5.95238C38.0953 5.2949 37.5623 4.7619 36.9048 4.7619Z" fill="#F7B93E"/>
<path d="M8.33333 4.7619H1.19048C0.532994 4.7619 0 5.2949 0 5.95238C0 6.60986 0.532994 7.14285 1.19048 7.14285H8.33333C8.99082 7.14285 9.52381 6.60986 9.52381 5.95238C9.52381 5.2949 8.99082 4.7619 8.33333 4.7619Z" fill="#EA5E5E"/>
<path opacity="0.5" d="M48.8097 0H34.524C33.8665 0 33.3335 0.532994 33.3335 1.19048C33.3335 1.84796 33.8665 2.38095 34.524 2.38095H48.8097C49.4672 2.38095 50.0002 1.84796 50.0002 1.19048C50.0002 0.532994 49.4672 0 48.8097 0Z" fill="#4D616E"/>
<path d="M29.7619 0H1.19048C0.532994 0 0 0.532994 0 1.19048C0 1.84796 0.532994 2.38095 1.19048 2.38095H29.7619C30.4194 2.38095 30.9524 1.84796 30.9524 1.19048C30.9524 0.532994 30.4194 0 29.7619 0Z" fill="#56B3B4"/>
</g>
<defs>
<clipPath id="clip0_484_131">
<rect width="50" height="50" fill="white"/>
</clipPath>
</defs>
</svg>
