<svg width="79" height="51" viewBox="0 0 79 51" fill="none" xmlns="http://www.w3.org/2000/svg">
<g clip-path="url(#clip0_484_230)">
<path d="M61.1253 17.5036C58.8757 16.8 57.714 17.0372 55.3544 16.7807C51.7067 16.3849 50.2535 14.9667 49.637 11.3166C49.292 9.27907 49.6994 6.29576 48.8186 4.44875C47.1342 0.926988 43.193 -0.652498 39.2333 0.249016C35.8902 1.01127 33.1085 4.33515 32.9544 7.74698C32.7783 11.6425 35.0095 14.9664 38.8407 16.1135C40.6609 16.6595 42.5948 16.9343 44.4957 17.0736C47.9819 17.3265 48.2498 19.2543 49.1929 20.8412C49.7875 21.8416 50.3636 22.8274 50.3636 25.8105C50.3636 28.7936 49.7838 29.7794 49.1929 30.7798C48.2498 32.363 47.0865 33.4001 43.6003 33.6566C41.6994 33.7959 39.7618 34.0708 37.9453 34.6168C34.1141 35.7675 31.8829 39.0877 32.059 42.9832C32.2132 46.395 34.9948 49.719 38.3379 50.4812C42.2976 51.3863 46.2389 49.8033 47.9232 46.2815C48.8076 44.4345 49.292 42.342 49.637 40.3044C50.2572 36.6543 51.7104 35.2361 55.3544 34.8403C57.714 34.5838 60.1561 34.8403 62.3673 33.5906C64.7038 31.8922 66.7914 29.3432 66.7914 25.8105C66.7914 22.2777 64.5418 18.5737 61.1253 17.5036Z" fill="#F44250"/>
<path d="M23.6999 34.0897C19.1018 34.0897 15.3511 30.3514 15.3511 25.7686C15.3511 21.1858 19.1018 17.4476 23.6999 17.4476C28.2981 17.4476 32.0488 21.1858 32.0488 25.7686C32.0488 30.3478 28.2944 34.0897 23.6999 34.0897Z" fill="#121212"/>
<path d="M8.31937 51C3.72864 50.989 -0.0110044 47.236 2.43313e-05 42.6496C0.0111019 38.0705 3.77654 34.3433 8.37832 34.358C12.9727 34.369 16.7124 38.1219 16.6977 42.7083C16.6866 47.2838 12.9211 51.011 8.31937 51Z" fill="#121212"/>
<path d="M70.3549 50.9998C65.7495 51.0254 61.9695 47.313 61.9435 42.7413C61.9179 38.1513 65.6427 34.3839 70.2296 34.358C74.8349 34.3324 78.6151 38.0448 78.641 42.6165C78.6666 47.2028 74.9418 50.974 70.3549 50.9998Z" fill="#121212"/>
</g>
<defs>
<clipPath id="clip0_484_230">
<rect width="79" height="51" fill="white"/>
</clipPath>
</defs>
</svg>
