<svg width="259" height="230" viewBox="0 0 259 230" fill="none" xmlns="http://www.w3.org/2000/svg">
<g clip-path="url(#clip0_95_61)">
<path d="M212.95 74.4714C210.193 73.5285 207.414 72.6549 204.613 71.8516C205.083 69.935 205.517 68.0415 205.901 66.1813C212.212 35.6347 208.086 11.0257 193.994 2.92325C180.483 -4.8443 158.386 3.25513 136.069 22.6205C133.87 24.5325 131.719 26.4995 129.619 28.5198C128.214 27.1764 126.783 25.8591 125.329 24.5685C101.94 3.86241 78.4962 -4.86447 64.4192 3.26118C50.9198 11.0529 46.9225 34.1871 52.6043 63.1368C53.1696 66.004 53.8079 68.8564 54.5185 71.6912C51.2001 72.6314 47.998 73.6321 44.9335 74.6974C17.5118 84.2303 0 99.1692 0 114.665C0 130.669 18.7998 146.722 47.3606 156.455C49.6761 157.241 52.0108 157.969 54.3627 158.639C53.5989 161.693 52.9207 164.766 52.3291 167.857C46.9124 196.305 51.1424 218.892 64.6053 226.635C78.5104 234.63 101.849 226.413 124.573 206.605C126.416 204.995 128.218 203.339 129.978 201.639C132.251 203.827 134.586 205.951 136.979 208.009C158.992 226.895 180.731 234.521 194.181 226.758C208.073 218.739 212.588 194.474 206.727 164.952C206.265 162.639 205.747 160.338 205.174 158.05C206.813 157.566 208.421 157.068 209.989 156.549C239.681 146.741 259 130.883 259 114.665C259 99.1127 240.923 84.0729 212.95 74.4714ZM206.51 146.078C205.094 146.545 203.641 146.996 202.16 147.435C198.882 137.088 194.458 126.086 189.045 114.718C194.211 103.622 198.464 92.7604 201.65 82.481C204.299 83.2457 206.87 84.0517 209.349 84.9021C233.316 93.1296 247.936 105.292 247.936 114.665C247.936 124.648 232.147 137.607 206.51 146.078ZM195.873 167.095C198.465 180.148 198.834 191.951 197.117 201.178C195.575 209.469 192.473 214.996 188.637 217.211C180.475 221.922 163.02 215.798 144.195 199.646C141.97 197.733 139.798 195.758 137.683 193.724C144.981 185.766 152.275 176.515 159.393 166.239C171.914 165.132 183.743 163.32 194.471 160.848C194.999 162.973 195.468 165.057 195.873 167.095ZM88.2988 216.397C80.3244 219.204 73.9728 219.285 70.1334 217.077C61.9637 212.38 58.5674 194.243 63.2 169.915C63.7507 167.041 64.3813 164.182 65.091 161.342C75.6998 163.682 87.4428 165.365 99.9932 166.38C107.16 176.434 114.664 185.675 122.227 193.768C120.62 195.318 118.974 196.829 117.293 198.299C107.243 207.057 97.1736 213.271 88.2988 216.397ZM50.94 146.017C38.3108 141.712 27.8809 136.118 20.7321 130.014C14.3077 124.53 11.0652 119.083 11.0652 114.665C11.0652 105.261 25.125 93.2668 48.5757 85.115C51.4216 84.1264 54.4001 83.1932 57.4909 82.3176C60.7325 92.829 64.9837 103.82 70.1141 114.933C64.9169 126.211 60.605 137.377 57.3321 148.013C55.1853 147.4 53.054 146.734 50.94 146.017ZM63.4631 61.0174C58.5957 36.2147 61.8282 17.505 69.9634 12.8092C78.6277 7.80772 97.7877 14.9387 117.983 32.8182C119.299 33.9867 120.595 35.179 121.869 36.3943C114.343 44.4514 106.908 53.6241 99.805 63.619C87.624 64.7448 75.9639 66.5525 65.2437 68.9746C64.5832 66.3379 63.9895 63.684 63.4631 61.0174ZM175.184 88.5246C172.652 84.1636 170.026 79.8575 167.308 75.6093C175.572 76.6514 183.489 78.0344 190.924 79.7251C188.693 86.8591 185.91 94.317 182.635 101.963C180.242 97.4348 177.757 92.9543 175.184 88.5246ZM129.624 44.2789C134.728 49.7918 139.839 55.9463 144.866 62.6244C134.668 62.1442 124.453 62.1421 114.254 62.6183C119.287 56.0018 124.441 49.8553 129.624 44.2789ZM83.7723 88.6003C81.2312 92.9943 78.7934 97.4469 76.4606 101.954C73.2393 94.3351 70.4824 86.843 68.2313 79.6081C75.6209 77.9597 83.5012 76.612 91.7123 75.5891C88.9639 79.8633 86.3165 84.2022 83.7723 88.6003ZM91.948 154.526C83.4648 153.581 75.4661 152.303 68.0786 150.699C70.365 143.335 73.1827 135.684 76.4738 127.901C78.8158 132.412 81.2638 136.867 83.8158 141.263C86.4402 145.783 89.1577 150.209 91.948 154.526ZM129.93 185.828C124.685 180.187 119.455 173.945 114.346 167.233C119.306 167.427 124.361 167.526 129.5 167.526C134.779 167.526 139.998 167.408 145.134 167.18C140.091 174.013 134.999 180.263 129.93 185.828ZM182.74 127.504C186.202 135.372 189.12 142.983 191.436 150.221C183.927 151.93 175.82 153.306 167.277 154.328C170.014 150.001 172.665 145.62 175.228 141.188C177.833 136.682 180.338 132.12 182.74 127.504ZM165.644 135.676C161.72 142.471 157.577 149.138 153.219 155.664C145.325 156.222 137.414 156.499 129.5 156.495C121.44 156.495 113.6 156.244 106.05 155.756C101.579 149.244 97.3559 142.566 93.3907 135.736C89.4442 128.942 85.7589 122.001 82.3408 114.928C85.7502 107.854 89.4253 100.909 93.3584 94.1102L93.3574 94.1112C97.2889 87.3103 101.478 80.6607 105.916 74.1768C113.618 73.5958 121.517 73.2932 129.499 73.2932C137.518 73.2932 145.427 73.5988 153.128 74.1839C157.521 80.6581 161.683 87.2848 165.607 94.0517C169.553 100.836 173.277 107.746 176.773 114.772C173.313 121.869 169.601 128.842 165.644 135.676ZM188.468 12.4803C197.14 17.4677 200.514 37.5796 195.064 63.9539C194.716 65.6366 194.326 67.3505 193.901 69.0886C183.154 66.6151 171.486 64.7761 159.27 63.6332C152.153 53.5283 144.779 44.3414 137.376 36.3882C139.316 34.5235 141.303 32.7072 143.333 30.9409C162.455 14.3496 180.326 7.79864 188.468 12.4803ZM129.5 91.6044C142.273 91.6044 152.628 101.929 152.628 114.665C152.628 127.401 142.273 137.725 129.5 137.725C116.727 137.725 106.372 127.401 106.372 114.665C106.372 101.929 116.727 91.6044 129.5 91.6044Z" fill="#00D8FF"/>
</g>
<defs>
<clipPath id="clip0_95_61">
<rect width="259" height="230" fill="white"/>
</clipPath>
</defs>
</svg>
