<svg width="97" height="93" viewBox="0 0 97 93" fill="none" xmlns="http://www.w3.org/2000/svg">
<path d="M67.2108 64.5863C70.7903 64.2158 73.5059 61.13 73.3824 57.4265C73.2592 53.7235 70.173 50.7608 66.47 50.7608H66.2233C62.3964 50.8843 59.4341 54.0937 59.5576 57.9202C59.6811 59.772 60.4215 61.3766 61.5325 62.4876C57.3357 70.7583 50.917 76.8068 41.289 81.8679C34.7468 85.3243 27.958 86.5587 21.1691 85.6948C15.6143 84.9541 11.2941 82.4855 8.57805 78.4115C4.62834 72.363 4.25814 65.8204 7.591 59.2782C9.93643 54.5874 13.6391 51.131 15.9845 49.4028C15.4908 47.7981 14.7501 45.0825 14.3799 43.1077C-3.51853 56.0689 -1.66681 73.5975 3.76443 81.8679C7.83767 88.0403 16.1081 91.8668 25.2424 91.8668C27.7109 91.8668 30.1795 91.6198 32.6485 91.0029C48.4485 87.9167 60.4219 78.535 67.2108 64.5863ZM88.9357 49.2797C79.5544 38.2933 65.7296 32.2448 49.9296 32.2448H47.9547C46.8438 30.0229 44.4984 28.5414 41.9063 28.5414H41.6592C37.833 28.6649 34.8707 31.8742 34.9939 35.7012C35.1174 39.4042 38.2032 42.3669 41.9063 42.3669H42.1529C44.8686 42.2434 47.214 40.5152 48.2014 38.1698H50.4233C59.8047 38.1698 68.6919 40.8854 76.7156 46.1935C82.8873 50.2671 87.3311 55.5752 89.7996 61.9939C91.898 67.1784 91.7745 72.2395 89.5526 76.5602C86.0966 83.1023 80.2952 86.6823 72.642 86.6823C67.7045 86.6823 63.014 85.2007 60.545 84.0898C59.1874 85.3243 56.7185 87.2991 54.9903 88.534C60.2984 91.0025 65.7296 92.3605 70.9138 92.3605C82.7637 92.3605 91.5278 85.818 94.8607 79.2758C98.4402 72.116 98.1932 59.772 88.9357 49.2797ZM26.2298 66.6843C26.3533 70.3878 29.4391 73.3501 33.1422 73.3501H33.3892C37.2158 73.2269 40.1781 70.0172 40.0546 66.1906C39.9314 62.4872 36.8452 59.5249 33.1422 59.5249H32.8955C32.6485 59.5249 32.2779 59.5249 32.0316 59.6481C26.9705 51.2541 24.8722 42.1198 25.6129 32.2444C26.1063 24.8379 28.5752 18.4189 32.8955 13.1108C36.475 8.54345 43.3874 6.32154 48.0783 6.1984C61.1623 5.95135 66.7167 22.2455 67.0872 28.788C68.6919 29.1582 71.4075 30.0225 73.2592 30.6397C71.7777 10.6426 59.4341 0.273438 47.5846 0.273438C36.475 0.273438 26.2298 8.29716 22.1562 20.1475C16.4782 35.9478 20.1813 51.131 27.0937 63.1048C26.4768 63.9687 26.1063 65.3263 26.2298 66.6843Z" fill="#764ABC"/>
</svg>
