<svg width="54" height="54" viewBox="0 0 54 54" fill="none" xmlns="http://www.w3.org/2000/svg">
<g clip-path="url(#clip0_485_346)">
<path d="M41.3438 0H12.6562C5.6664 0 0 5.6664 0 12.6562V41.3438C0 48.3336 5.6664 54 12.6562 54H41.3438C48.3336 54 54 48.3336 54 41.3438V12.6562C54 5.6664 48.3336 0 41.3438 0Z" fill="#242938"/>
<path d="M7.11208 21.1376C7.11208 21.1376 6.11329 20.4177 7.31183 19.4565L10.1038 16.9598C10.1038 16.9598 10.9028 16.1192 11.7474 16.8516L37.5132 36.3589V45.7131C37.5132 45.7131 37.5008 47.1821 35.6156 47.0197L7.11208 21.1376Z" fill="#2489CA"/>
<path d="M13.7531 27.1671L7.11197 33.2047C7.11197 33.2047 6.42937 33.7125 7.11197 34.6197L10.1952 37.4241C10.1952 37.4241 10.9276 38.2107 12.0095 37.3159L19.0502 31.9773L13.7531 27.1671Z" fill="#1070B3"/>
<path d="M25.4126 27.2171L37.5923 17.9168L37.5132 8.61257C37.5132 8.61257 36.9931 6.58188 35.2579 7.63889L19.0503 22.39L25.4126 27.2171Z" fill="#0877B9"/>
<path d="M35.6156 47.0323C36.323 47.7562 37.1803 47.5192 37.1803 47.5192L46.6719 42.842C47.8869 42.0139 47.7162 40.9862 47.7162 40.9862V13.0566C47.7162 11.829 46.4594 11.4048 46.4594 11.4048L38.2331 7.43913C36.4355 6.32812 35.2578 7.63889 35.2578 7.63889C35.2578 7.63889 36.7723 6.54876 37.5132 8.61258V45.5425C37.5141 45.7943 37.4587 46.0432 37.3509 46.2708C37.1345 46.7077 36.6643 47.1154 35.5367 46.9448L35.6156 47.0323Z" fill="#3C99D4"/>
</g>
<defs>
<clipPath id="clip0_485_346">
<rect width="54" height="54" fill="white"/>
</clipPath>
</defs>
</svg>
