<svg width="64" height="51" viewBox="0 0 64 51" fill="none" xmlns="http://www.w3.org/2000/svg">
<g clip-path="url(#clip0_484_222)">
<path d="M15.204 3.52554H49.2735L59.2568 13.9994L31.0095 45.7937L4.73926 13.9996L15.204 3.52554Z" fill="#18253F"/>
<path d="M37.8567 38.2842H24.5032L18.4722 30.8643L35.5632 30.8638L35.5637 29.8111H45.3332L37.8567 38.2842Z" fill="#274D82"/>
<path d="M56.3899 11.0125L19.5444 32.3898L14.7379 26.3474L43.2627 9.79703L42.7387 8.8848L50.3364 4.4767L56.3899 11.0125ZM36.6489 3.53609L8.98244 19.588L4.67969 14.1903L23.2034 3.44263L36.6489 3.53609Z" fill="#274D82"/>
<g filter="url(#filter0_d_484_222)">
<path d="M50.605 0.379356H13.9075L0.5 13.7838L30.94 50.6204L33.3685 47.882L63.5 13.9099L50.605 0.379356ZM49.2645 3.53533L59.2245 13.9866L31.0245 45.7819L4.75 13.9866L15.2037 3.53533H49.2645Z" fill="black"/>
</g>
<path d="M50.605 0.379356H13.9075L0.5 13.7838L30.94 50.6204L33.3685 47.882L63.5 13.9099L50.605 0.379356ZM49.2645 3.53533L59.2245 13.9866L31.0245 45.7819L4.75 13.9866L15.2037 3.53533H49.2645Z" fill="#3068B7"/>
</g>
<defs>
<filter id="filter0_d_484_222" x="-2.5" y="-2.62064" width="71" height="58.241" filterUnits="userSpaceOnUse" color-interpolation-filters="sRGB">
<feFlood flood-opacity="0" result="BackgroundImageFix"/>
<feColorMatrix in="SourceAlpha" type="matrix" values="0 0 0 0 0 0 0 0 0 0 0 0 0 0 0 0 0 0 127 0" result="hardAlpha"/>
<feOffset dx="1" dy="1"/>
<feGaussianBlur stdDeviation="2"/>
<feColorMatrix type="matrix" values="0 0 0 0 0 0 0 0 0 0 0 0 0 0 0 0 0 0 0.36 0"/>
<feBlend mode="normal" in2="BackgroundImageFix" result="effect1_dropShadow_484_222"/>
<feBlend mode="normal" in="SourceGraphic" in2="effect1_dropShadow_484_222" result="shape"/>
</filter>
<clipPath id="clip0_484_222">
<rect width="64" height="51" fill="white"/>
</clipPath>
</defs>
</svg>
