<svg width="61" height="46" viewBox="0 0 61 46" fill="none" xmlns="http://www.w3.org/2000/svg">
<path d="M4.12817 45.4199H13.7603V22.0275L0 11.7073V41.2919C0 43.5727 1.84733 45.4201 4.12817 45.4201V45.4199Z" fill="#FFC300"/>
<path d="M46.7847 45.4199H56.4169C58.6976 45.4199 60.545 43.5725 60.545 41.2918V11.7073L46.7847 22.0275V45.4199Z" fill="#FFC300"/>
<path d="M46.7847 4.13915V22.0275L60.545 11.7073V6.20324C60.545 1.10162 54.7211 -1.81211 50.6376 1.24955L46.7847 4.13915Z" fill="#FFC300"/>
<path fill-rule="evenodd" clip-rule="evenodd" d="M13.7603 22.0275V4.13913L30.2725 16.5234L46.7847 4.13913V22.0275L30.2725 34.4116L13.7603 22.0275Z" fill="#FFC300"/>
<path d="M0 6.20325V11.7073L13.7603 22.0275V4.13916L9.90738 1.24956C5.82391 -1.81211 0 1.10162 0 6.20301V6.20325Z" fill="#FFC300"/>
</svg>
