<svg width="205" height="236" viewBox="0 0 205 236" fill="none" xmlns="http://www.w3.org/2000/svg">
<path d="M18.5951 208.769L0 0H204.546L185.951 208.769L102.046 232.369" fill="#0C73B8"/>
<path d="M102.5 214.215L170.077 195.608L185.951 16.7923H102.5" fill="#30A9DC"/>
<path d="M102.5 94.4H42.6328L44.9005 120.269H102.5V94.4ZM102.5 42.6615H38.0974L40.3651 68.0769H102.5V42.6615ZM102.5 161.115L46.2611 146.138L49.4359 173.369L102.5 187.892V161.115Z" fill="#ECEDEE"/>
<path d="M102.5 120.269H133.794L130.619 153.4L102.5 161.115V187.892L154.657 173.369L166.449 42.6615H102.5V68.0769H138.783L136.062 94.4H102.5V120.269Z" fill="white"/>
</svg>
