<svg width="52" height="52" viewBox="0 0 52 52" fill="none" xmlns="http://www.w3.org/2000/svg">
<path d="M44.3064 44.3072H36.6017V32.2409C36.6017 29.3637 36.5503 25.6597 32.5945 25.6597C28.5815 25.6597 27.9675 28.7947 27.9675 32.0315V44.3063H20.2629V19.4934H27.6593V22.8844H27.7629C28.5031 21.6187 29.5728 20.5775 30.8579 19.8717C32.1431 19.1658 33.5956 18.8218 35.0608 18.8761C42.8699 18.8761 44.3097 24.0127 44.3097 30.6951L44.3064 44.3072ZM11.5692 16.1018C9.0998 16.1022 7.09759 14.1007 7.09719 11.6313C7.09678 9.16188 9.09817 7.15967 11.5676 7.15927C14.037 7.15866 16.0392 9.16025 16.0396 11.6296C16.0398 12.8155 15.5689 13.9529 14.7306 14.7916C13.8922 15.6302 12.755 16.1016 11.5692 16.1018ZM15.4217 44.3074H7.7088V19.4934H15.4215V44.3072L15.4217 44.3074ZM48.1475 0.0037846H3.83723C1.74302 -0.0197779 0.0255938 1.65783 0 3.75205V48.2472C0.0247812 50.3424 1.742 52.0216 3.83703 51.9997H48.1475C50.247 52.0257 51.971 50.3465 52 48.2472V3.7486C51.9701 1.65032 50.246 -0.0270904 48.1475 0.000331478" fill="#FFC300"/>
</svg>
