<svg width="117" height="116" viewBox="0 0 117 116" fill="none" xmlns="http://www.w3.org/2000/svg">
<path d="M107.859 89.3016C101.461 89.3016 96.4335 89.7619 92.3203 91.6032C90.9492 92.0635 89.121 92.0635 89.121 93.4444L90.4921 96.2063C91.4062 97.5873 92.7773 99.8889 94.6054 101.27L99.6328 104.952L109.23 109.556L114.258 113.698L117 115.54L115.629 112.778L113.344 110.476C111.059 107.254 108.316 104.492 105.117 102.19C102.375 100.81 96.8906 98.0476 95.9765 95.2857H95.5195L101.004 93.9047L109.23 92.5238L112.887 91.6032V90.6825L108.773 86.0794C105.117 82.3968 100.547 79.1746 95.9765 75.9524L87.7499 72.2698C86.8359 71.8095 85.0078 71.3492 84.5507 70.4286L81.3515 64.4444L74.496 50.6349L70.8398 41.4286C62.6132 27.619 53.4726 19.3333 39.7617 11.5079C37.0195 9.66666 33.3632 9.20634 29.707 8.2857L23.7656 7.82539L20.1093 5.06348C15.539 2.30158 3.65619 -4.14287 0.456971 4.14285C-1.82819 9.20634 3.65619 14.2698 5.48431 17.0317L9.5976 23.0159L10.9687 27.1587C12.3398 30.8413 13.2538 34.9841 15.082 38.2063L17.8242 42.8095C18.7382 43.7301 19.6523 44.1905 20.1093 45.5714C18.7382 47.4127 18.7382 49.7143 18.2812 51.5555C15.082 60.7619 16.4531 71.8095 20.5663 78.7143C21.4804 80.5555 24.6796 85.1587 28.7929 83.3175C32.4492 81.9365 31.5351 77.3333 32.4492 73.1905L32.9062 71.3492L36.5624 77.7936C38.8476 81.9365 42.9609 86.0794 46.6171 88.8413C48.4453 90.2222 50.2734 92.5238 52.5585 93.4444L50.7304 91.6032L46.6171 87C42.9609 82.3968 40.2187 77.3333 37.4765 72.2698L34.2773 64.4444L32.9062 61.6825C31.5351 63.5238 29.707 64.9047 28.7929 67.2063C27.4218 70.4286 27.4218 75.0317 26.9648 79.1746H26.5078C23.7656 78.7143 22.8515 75.9524 21.9374 73.6508C19.6523 68.127 19.1953 58.9206 21.4804 52.4762C21.9374 50.6349 24.2226 45.5714 23.3085 43.7301C22.8515 42.3492 21.4804 41.4286 20.5663 40.5079L17.3671 34.9841L12.7968 21.1746L8.68353 15.1905C7.31244 12.8889 5.48431 11.5079 4.11322 8.74602C3.65619 7.82539 3.19916 6.44443 4.11322 5.5238L5.02728 4.60316C5.94135 3.68253 9.14056 4.60316 10.0546 5.06348C12.7968 6.44443 15.539 7.36507 17.8242 9.20634L21.4804 11.9682H23.3085C26.0507 12.4286 28.7929 11.9682 31.0781 12.8889C35.1913 14.2698 39.3046 16.1111 42.5038 18.4127C53.0156 24.8571 61.6992 34.5238 67.1835 45.5714C68.5546 47.4127 68.5546 49.254 69.4687 51.0952L74.9531 63.0635C76.7812 66.746 78.1523 70.4286 80.4374 73.6508C81.8085 75.4921 86.8359 76.4127 88.664 77.3333L94.1484 79.1746L102.375 84.6984C103.289 85.619 107.402 87.9206 107.859 89.3016Z" fill="#00546B"/>
</svg>
