<svg width="94" height="94" viewBox="0 0 94 94" fill="none" xmlns="http://www.w3.org/2000/svg">
<g clip-path="url(#clip0_95_66)">
<mask id="mask0_95_66" style="mask-type:alpha" maskUnits="userSpaceOnUse" x="0" y="0" width="94" height="94">
<path d="M47 94C72.9574 94 94 72.9574 94 47C94 21.0426 72.9574 0 47 0C21.0426 0 0 21.0426 0 47C0 72.9574 21.0426 94 47 94Z" fill="black"/>
</mask>
<g mask="url(#mask0_95_66)">
<path d="M47.0002 92.4333C72.0924 92.4333 92.4336 72.0921 92.4336 47C92.4336 21.9078 72.0924 1.56665 47.0002 1.56665C21.9081 1.56665 1.56689 21.9078 1.56689 47C1.56689 72.0921 21.9081 92.4333 47.0002 92.4333Z" fill="black" stroke="white" stroke-width="6"/>
<path d="M78.0766 82.2605L36.1077 28.2H28.2002V65.7843H34.5262V36.2337L73.1108 86.0857C74.8519 84.9207 76.5104 83.6417 78.0766 82.2605Z" fill="url(#paint0_linear_95_66)"/>
<path d="M66.3223 28.2H60.0557V65.8H66.3223V28.2Z" fill="url(#paint1_linear_95_66)"/>
</g>
</g>
<defs>
<linearGradient id="paint0_linear_95_66" x1="56.9224" y1="60.8389" x2="75.4613" y2="83.8167" gradientUnits="userSpaceOnUse">
<stop stop-color="white"/>
<stop offset="1" stop-color="white" stop-opacity="0"/>
</linearGradient>
<linearGradient id="paint1_linear_95_66" x1="63.189" y1="28.2" x2="63.084" y2="55.8125" gradientUnits="userSpaceOnUse">
<stop stop-color="white"/>
<stop offset="1" stop-color="white" stop-opacity="0"/>
</linearGradient>
<clipPath id="clip0_95_66">
<rect width="94" height="94" fill="white"/>
</clipPath>
</defs>
</svg>
