<?xml version="1.0" standalone="no"?>
<!DOCTYPE svg PUBLIC "-//W3C//DTD SVG 20010904//EN"
 "http://www.w3.org/TR/2001/REC-SVG-20010904/DTD/svg10.dtd">
<svg version="1.0" xmlns="http://www.w3.org/2000/svg"
 width="1139.000000pt" height="1098.000000pt" viewBox="0 0 1139.000000 1098.000000"
 preserveAspectRatio="xMidYMid meet">

<g transform="translate(0.000000,1098.000000) scale(0.100000,-0.100000)"
fill="#000000" stroke="none">
<path d="M4715 10461 c-49 -17 -109 -43 -131 -58 -149 -100 -187 -129 -230
-176 -27 -28 -91 -92 -143 -142 -276 -265 -381 -380 -413 -454 -10 -25 -40
-74 -66 -110 -26 -36 -54 -75 -62 -87 -57 -81 -229 -305 -255 -334 -18 -19
-56 -78 -83 -131 -28 -53 -64 -118 -81 -145 -24 -36 -31 -60 -32 -98 -1 -70
-13 -149 -34 -226 -15 -56 -16 -74 -6 -135 18 -104 48 -198 85 -268 20 -37 40
-95 50 -145 9 -46 39 -140 66 -208 27 -69 61 -175 74 -237 14 -62 46 -193 70
-292 57 -231 80 -356 74 -409 -3 -27 -18 -60 -41 -91 -74 -104 -87 -140 -87
-234 0 -97 7 -131 25 -131 17 0 24 32 18 81 -5 36 4 87 27 144 5 11 10 27 13
36 3 9 19 26 36 38 l30 22 30 -41 c17 -23 37 -67 46 -98 9 -32 25 -66 36 -78
14 -15 18 -29 13 -50 -8 -43 19 -100 59 -124 42 -25 73 -80 81 -145 12 -93 17
-105 37 -105 18 0 19 9 19 140 0 148 10 190 47 205 32 13 553 17 703 6 202
-15 333 -31 344 -42 6 -5 -4 -9 -25 -9 -19 0 -39 -4 -45 -9 -5 -5 -40 -12 -77
-15 -37 -3 -78 -8 -90 -11 -12 -3 -65 -9 -117 -15 -131 -13 -298 -38 -318 -49
-9 -4 -22 -6 -29 -4 -6 2 -19 -10 -28 -28 -22 -41 -13 -88 23 -121 23 -23 40
-28 131 -37 58 -5 108 -8 113 -5 4 3 8 16 8 29 0 18 11 32 41 50 61 39 62 39
88 -11 14 -25 40 -57 58 -71 36 -28 42 -49 16 -56 -13 -3 -10 -6 11 -12 20 -6
31 -4 34 3 2 7 25 12 54 12 51 0 51 0 33 -20 -18 -20 -18 -22 -1 -38 16 -16
18 -16 34 3 17 21 61 43 121 63 27 9 43 8 84 -6 60 -21 67 -33 30 -50 -16 -6
-43 -23 -61 -36 -18 -14 -38 -27 -45 -29 -7 -2 -9 -7 -6 -11 4 -4 38 -3 75 2
38 5 78 6 90 2 11 -5 25 -5 31 -2 12 8 54 98 72 155 7 20 19 37 26 37 8 0 18
6 22 14 4 8 19 16 33 18 18 2 26 10 28 28 2 13 13 31 24 38 22 16 18 58 -8 77
-9 6 -14 17 -12 25 2 7 -10 20 -25 28 -42 21 -27 25 41 12 70 -14 100 -40 109
-94 5 -33 4 -36 -18 -36 -24 -1 -69 -56 -69 -84 0 -15 -27 -40 -53 -49 -24 -9
-41 -50 -33 -82 11 -45 85 -55 129 -17 16 14 17 13 17 -9 0 -13 -4 -40 -9 -60
-23 -101 69 -90 130 15 31 55 34 66 19 66 -5 0 -10 -6 -10 -12 0 -15 -45 -60
-52 -52 -10 9 43 229 61 254 17 23 25 25 118 28 89 2 102 0 126 -19 32 -24 48
-60 66 -144 14 -63 54 -160 71 -170 15 -9 12 36 -5 68 -17 32 -45 173 -45 223
0 23 5 34 15 34 30 0 56 -70 71 -194 4 -33 17 -84 31 -114 19 -44 27 -53 46
-50 18 2 22 9 22 38 0 23 8 43 23 58 12 12 22 31 22 42 0 23 -33 60 -54 60
-18 0 -30 86 -24 168 5 74 33 116 85 129 58 15 70 4 26 -24 -50 -34 -73 -62
-72 -93 0 -21 1 -22 9 -8 15 24 64 9 68 -22 2 -12 13 -32 23 -44 15 -15 19
-29 15 -51 -5 -25 1 -38 37 -77 31 -35 50 -48 70 -48 15 0 27 -4 27 -10 0 -5
-9 -10 -20 -10 -11 0 -20 -4 -20 -9 0 -15 23 -19 47 -8 17 7 27 5 48 -11 30
-24 89 -21 184 10 l35 11 -23 18 c-18 15 -21 22 -12 33 6 7 9 20 5 29 -4 12 1
16 24 15 17 -1 54 12 84 29 44 24 58 40 83 89 17 32 31 61 33 63 1 3 18 -3 36
-12 25 -11 36 -13 39 -4 5 16 83 -8 91 -28 7 -20 -32 -105 -48 -105 -15 0 -42
-28 -34 -36 3 -3 21 -7 40 -10 25 -5 50 1 90 20 30 14 62 26 70 26 8 0 28 18
43 40 22 31 39 44 72 53 26 6 45 18 49 29 3 10 10 18 15 18 5 0 9 8 9 18 1 35
37 64 182 149 35 21 48 34 48 51 0 36 49 26 72 -15 18 -29 18 -41 7 -164 -11
-131 -11 -133 10 -147 32 -22 30 -60 -14 -403 -8 -64 -15 -134 -15 -157 0 -22
-6 -71 -14 -109 -20 -100 -28 -171 -17 -153 9 14 67 406 91 610 23 197 44 340
67 449 18 87 13 153 -19 213 -31 59 -28 135 11 278 17 63 47 194 67 290 124
613 141 687 165 736 19 40 41 63 119 122 59 46 63 64 71 327 15 480 -31 678
-206 893 -35 43 -97 129 -138 192 -42 63 -93 135 -114 159 -47 54 -146 129
-274 205 -60 36 -137 96 -204 157 -186 172 -279 213 -620 268 -181 29 -291 41
-387 41 -121 0 -304 22 -367 44 -24 9 -83 39 -132 67 -74 43 -100 53 -161 60
-145 17 -418 72 -568 114 -51 14 -130 28 -174 31 -71 4 -92 1 -171 -25z m2307
-2292 c40 -21 81 -64 99 -103 11 -26 29 -45 50 -55 44 -21 76 -71 84 -129 10
-75 14 -81 81 -148 35 -35 70 -77 79 -93 8 -16 23 -36 34 -43 25 -17 53 -86
45 -110 -3 -10 -1 -24 4 -31 16 -20 40 -115 57 -227 18 -114 37 -170 67 -197
51 -46 81 -173 79 -330 -1 -91 -15 -136 -54 -172 -25 -23 -31 -23 -188 -23
-193 1 -234 17 -99 37 79 13 134 54 128 96 -2 17 -13 25 -38 32 -19 5 -40 13
-47 19 -7 5 -17 6 -24 2 -18 -11 -69 -7 -85 7 -11 9 -18 9 -26 1 -14 -14 -67
-16 -87 -3 -9 6 -30 2 -60 -11 -37 -16 -59 -19 -111 -14 -74 7 -232 -11 -270
-29 -14 -7 -58 -20 -99 -29 -79 -18 -151 -51 -197 -89 -33 -28 -157 -102 -224
-135 -71 -34 -201 -55 -335 -55 -132 0 -288 24 -315 48 -9 8 -21 15 -26 15 -5
0 -18 14 -28 31 -25 42 -60 57 -84 36 -10 -10 -24 -17 -31 -17 -14 0 -60 50
-61 67 0 20 -63 35 -174 39 -59 2 -135 10 -167 19 -50 12 -90 13 -251 5 -168
-8 -193 -8 -203 6 -16 23 -189 15 -227 -10 -39 -25 -35 -42 15 -64 l42 -19
-65 -7 c-36 -3 -139 -11 -229 -17 l-165 -10 -28 30 c-16 17 -42 38 -57 45 -39
21 -91 82 -91 109 0 50 32 183 60 251 32 76 74 118 166 164 46 23 57 41 48 78
-4 16 -1 31 11 44 12 13 18 41 21 95 3 58 11 92 34 140 17 35 30 68 30 74 0
14 27 21 81 21 36 0 54 5 69 20 12 12 33 20 55 20 20 0 51 7 71 15 24 10 53
12 100 8 75 -7 184 10 264 40 53 21 189 129 251 201 25 29 27 29 43 13 23 -22
33 -21 46 3 6 11 17 20 25 20 9 0 23 -9 32 -20 18 -21 43 -27 43 -10 0 6 7 10
15 10 9 0 30 7 46 16 17 8 33 13 36 10 3 -3 -4 -23 -16 -46 -24 -47 -28 -90
-7 -90 8 0 21 -3 30 -6 10 -4 17 2 21 19 8 30 51 72 85 82 14 4 40 21 59 37
22 19 39 27 50 22 42 -18 61 -17 61 4 0 36 46 45 154 32 96 -12 209 -7 236 11
13 8 11 13 -9 29 -28 24 -25 29 26 41 43 10 112 3 160 -18 34 -14 71 -10 108
12 11 7 40 17 65 24 25 7 53 17 63 23 11 5 40 8 65 7 26 -1 57 3 69 9 12 7 35
11 50 10 32 -2 113 32 158 66 37 29 101 48 149 44 20 -1 38 1 42 5 11 11 93 8
116 -4z m-2212 -463 c0 -18 -19 -33 -51 -41 -42 -10 -43 11 -1 33 45 25 52 26
52 8z m-100 -39 c0 -16 -41 -37 -72 -37 -18 0 -19 2 -7 16 25 30 79 44 79 21z
m2497 -1148 c-11 -6 -47 -13 -80 -15 -62 -5 -62 -4 -27 10 43 17 135 21 107 5z
m-227 -19 c-8 -5 -31 -10 -50 -10 -26 0 -31 3 -20 10 8 5 31 10 50 10 26 0 31
-3 20 -10z m456 -113 c-26 -16 -44 -35 -91 -95 -23 -30 -48 -52 -58 -52 -11 0
-49 15 -86 34 -49 26 -85 36 -139 41 -70 7 -74 6 -79 -15 -6 -21 -10 -22 -66
-16 -46 5 -65 12 -83 31 -18 20 -33 25 -69 25 -77 0 -42 16 72 34 159 24 150
23 393 24 174 0 221 -3 206 -11z m-916 -67 c0 -5 -12 -10 -26 -10 -14 0 -23 4
-19 10 3 6 15 10 26 10 10 0 19 -4 19 -10z m-1153 -16 c-3 -3 -12 -4 -19 -1
-8 3 -5 6 6 6 11 1 17 -2 13 -5z m-239 -180 c23 -19 42 -41 42 -47 -1 -20 -86
-78 -124 -84 -43 -7 -86 3 -86 20 0 8 12 24 26 38 15 13 35 43 46 67 23 52 41
53 96 6z m1500 -74 c24 -27 39 -51 34 -54 -11 -7 -71 13 -129 42 -35 18 -39
24 -35 51 6 41 50 59 72 29 8 -11 34 -42 58 -68z m-1067 -63 c-7 -7 -14 -2
-22 16 -10 22 -9 31 7 54 l19 28 3 -44 c2 -24 -1 -48 -7 -54z m827 74 c3 -8
-1 -12 -9 -9 -7 2 -15 10 -17 17 -3 8 1 12 9 9 7 -2 15 -10 17 -17z"/>
<path d="M6006 7941 c-7 -11 41 -24 54 -16 6 4 10 10 10 16 0 12 -57 12 -64 0z"/>
<path d="M3606 6558 c-23 -32 -20 -50 7 -46 17 2 23 11 25 36 4 37 -10 42 -32
10z"/>
<path d="M3631 6499 c-23 -59 -43 -174 -48 -284 -3 -66 -11 -141 -18 -167 -10
-34 -11 -58 -4 -85 16 -60 41 -114 53 -110 15 5 22 42 41 217 9 85 23 194 31
241 12 79 12 90 -5 138 -24 68 -37 81 -50 50z"/>
<path d="M3496 5995 c6 -163 12 -211 25 -198 5 5 5 32 -1 68 -5 33 -8 67 -5
75 2 8 -2 56 -10 105 l-13 90 4 -140z"/>
<path d="M3520 5746 c0 -14 4 -27 8 -30 5 -3 6 8 4 25 -5 35 -12 38 -12 5z"/>
<path d="M3552 5615 c0 -16 2 -22 5 -12 2 9 2 23 0 30 -3 6 -5 -1 -5 -18z"/>
<path d="M7632 5115 c-43 -271 -63 -431 -61 -496 l1 -44 9 45 c4 25 15 113 24
195 9 83 23 191 31 242 9 50 14 102 12 115 -2 12 -9 -13 -16 -57z"/>
<path d="M3776 5045 c8 -37 14 -45 14 -19 0 10 -5 26 -10 34 -8 11 -9 7 -4
-15z"/>
<path d="M5215 5060 c-4 -6 -11 -8 -16 -4 -16 9 -49 -27 -49 -53 0 -13 -11
-41 -25 -61 -42 -61 -30 -87 29 -61 18 9 29 28 44 78 30 98 36 131 17 101z"/>
<path d="M3801 4944 c0 -11 3 -14 6 -6 3 7 2 16 -1 19 -3 4 -6 -2 -5 -13z"/>
<path d="M6185 4745 c-16 -13 -24 -24 -17 -25 14 0 92 38 92 45 0 15 -49 2
-75 -20z"/>
<path d="M5347 4753 c-32 -8 -12 -28 54 -50 95 -34 146 -33 133 2 -14 36 -123
65 -187 48z"/>
<path d="M5769 4600 c27 -23 64 -26 80 -7 16 20 3 27 -53 27 l-51 -1 24 -19z"/>
<path d="M7570 4493 c0 -59 -56 -224 -110 -323 -84 -155 -337 -430 -395 -430
-13 0 -27 -4 -30 -10 -3 -5 -12 -10 -20 -10 -8 0 -26 -11 -41 -25 -27 -25 -27
-26 -8 -40 15 -11 16 -15 4 -16 -8 -1 -19 -1 -24 0 -5 1 -27 -7 -50 -17 -22
-11 -53 -22 -68 -26 -16 -3 -28 -13 -28 -21 0 -7 -9 -16 -19 -20 -13 -4 -21
-17 -23 -38 -2 -23 -9 -33 -23 -35 -11 -1 -28 -15 -37 -30 -10 -15 -23 -36
-30 -47 -7 -11 -34 -46 -60 -78 -51 -63 -67 -107 -26 -71 12 10 33 32 48 49
101 119 235 245 260 245 14 0 13 -5 -10 -96 -10 -44 -26 -115 -35 -159 -15
-75 -119 -351 -171 -456 -13 -26 -49 -70 -81 -98 -129 -112 -181 -155 -251
-204 -41 -29 -99 -70 -130 -92 -81 -58 -234 -131 -327 -156 -66 -18 -108 -22
-240 -23 -186 -1 -273 12 -403 60 -106 39 -158 69 -222 128 -8 8 -49 42 -90
76 -164 136 -373 347 -404 406 -118 228 -156 317 -190 444 -34 128 -66 287
-87 430 -5 36 -17 75 -27 87 -9 12 -47 59 -84 106 -112 141 -214 325 -225 407
-3 22 -7 40 -9 40 -2 0 -19 -11 -38 -23 -36 -25 -48 -29 -241 -73 -108 -25
-262 -81 -415 -151 -150 -69 -190 -87 -255 -113 -38 -16 -101 -42 -140 -59
-332 -139 -484 -195 -670 -246 -55 -15 -127 -35 -160 -45 -33 -11 -100 -31
-150 -45 -369 -105 -402 -119 -495 -205 -30 -28 -47 -108 -30 -140 5 -10 67
-53 137 -95 161 -98 235 -150 348 -246 146 -123 530 -408 665 -494 69 -43 164
-99 212 -123 168 -83 707 -264 1018 -341 91 -22 203 -52 250 -66 169 -52 372
-90 453 -86 44 2 97 60 97 105 0 30 -5 38 -25 46 -21 8 -25 16 -27 57 -4 116
9 233 27 233 7 0 29 -20 50 -45 20 -25 50 -52 66 -60 16 -9 35 -31 44 -50 8
-20 28 -43 45 -53 16 -9 30 -20 30 -24 0 -8 48 -58 56 -58 7 0 -4 37 -26 85
-10 22 -26 62 -35 90 -9 27 -21 55 -27 62 -5 7 -8 17 -6 23 3 11 108 -67 161
-120 38 -39 189 -140 262 -177 51 -26 176 -69 250 -86 l20 -5 -20 -1 c-11 0
-51 6 -89 14 -38 8 -71 13 -73 11 -5 -5 146 -48 222 -63 39 -7 122 -15 185
-18 l115 -4 -106 14 c-168 23 -170 33 -4 27 246 -8 427 31 650 137 146 70 240
133 361 244 35 31 65 57 68 57 9 0 -6 -86 -21 -119 -11 -24 -12 -36 -4 -44 6
-6 11 -23 11 -38 0 -28 15 -39 54 -39 23 0 57 30 72 65 13 32 18 -40 5 -77
-16 -45 -15 -63 3 -49 9 8 16 8 20 2 4 -5 -2 -14 -11 -20 -17 -9 -17 -13 -1
-93 19 -92 38 -124 89 -151 49 -26 129 -17 347 43 249 67 454 140 597 210 66
32 170 81 230 108 61 27 180 81 265 120 135 61 334 136 905 339 202 71 538
209 665 273 63 31 143 68 178 80 79 29 122 67 122 108 0 40 -36 199 -66 290
-63 191 -132 345 -209 464 -105 161 -263 216 -1035 358 -161 30 -286 57 -385
83 -49 13 -146 39 -215 56 -211 54 -675 205 -686 222 -13 22 -24 5 -24 -38z
m-2173 -2579 c-3 -3 -12 -4 -19 -1 -8 3 -5 6 6 6 11 1 17 -2 13 -5z"/>
<path d="M6732 4318 c-26 -26 -7 -54 28 -43 26 8 28 55 2 55 -10 0 -23 -5 -30
-12z"/>
<path d="M6577 4283 c-4 -3 -7 -17 -7 -30 0 -12 -4 -23 -9 -23 -4 0 -26 -14
-47 -31 -33 -26 -44 -29 -74 -23 -33 6 -182 7 -241 0 -15 -1 -34 -10 -44 -19
-20 -20 -27 -21 -43 -5 -9 9 -18 9 -37 0 -14 -7 -37 -12 -51 -12 -14 0 -41
-16 -67 -39 -51 -47 -77 -56 -120 -42 -54 18 -161 29 -179 20 -13 -7 -23 -4
-37 10 -12 12 -33 19 -58 19 -21 0 -83 0 -138 1 -55 1 -116 -4 -135 -9 -50
-14 -111 -12 -160 5 -54 19 -105 19 -162 -1 -43 -14 -67 -38 -50 -47 20 -12
104 -16 157 -8 41 6 93 5 165 -5 107 -14 303 -33 375 -38 22 -1 50 -8 63 -14
39 -22 225 -8 318 23 44 14 121 31 173 36 52 6 102 14 112 20 29 15 49 11 49
-10 0 -19 2 -19 36 -5 35 14 43 20 83 54 35 29 61 40 100 40 22 0 43 -4 46
-10 10 -16 128 -77 163 -84 49 -9 50 13 5 85 -50 82 -76 108 -113 115 -16 4
-35 13 -41 20 -13 15 -22 17 -32 7z"/>
<path d="M5915 3802 c-11 -2 -29 -7 -40 -12 -11 -5 -36 -11 -55 -14 -19 -3
-66 -11 -105 -17 -38 -6 -72 -13 -75 -16 -3 -2 11 -17 30 -33 30 -25 32 -30
17 -35 -9 -4 -33 -4 -52 -1 -21 4 -44 2 -57 -6 -13 -7 -48 -11 -78 -10 -51 2
-54 2 -36 -13 25 -19 128 -20 182 -2 25 8 55 11 84 6 130 -21 250 2 250 49 0
15 6 22 20 22 11 0 20 -4 20 -10 0 -14 37 -12 47 3 14 22 32 81 27 89 -5 7
-131 7 -179 0z m25 -86 c0 -3 -4 -8 -10 -11 -5 -3 -10 -1 -10 4 0 6 5 11 10
11 6 0 10 -2 10 -4z"/>
<path d="M4395 3700 c3 -5 8 -10 11 -10 2 0 4 5 4 10 0 6 -5 10 -11 10 -5 0
-7 -4 -4 -10z"/>
<path d="M4440 3655 c0 -9 6 -18 13 -20 6 -3 45 -37 86 -75 40 -39 79 -70 85
-70 7 0 22 -17 33 -37 12 -21 52 -71 90 -112 37 -40 72 -81 77 -90 14 -23 86
-91 97 -91 14 0 133 -101 137 -115 3 -11 99 -62 177 -96 194 -82 271 -104 395
-114 19 -2 69 -8 110 -15 93 -14 232 -5 308 21 32 10 67 19 78 19 28 0 248
147 253 168 1 9 10 25 19 35 11 12 12 21 5 28 -7 7 -29 0 -69 -21 -32 -16 -64
-30 -72 -30 -7 0 -18 -13 -23 -30 -6 -16 -17 -30 -24 -30 -7 0 -15 -5 -17 -10
-4 -14 -80 -20 -95 -7 -15 11 -43 -8 -43 -29 0 -7 -8 -13 -17 -13 -79 -1 -209
-16 -215 -25 -4 -7 -13 -5 -25 6 -18 17 -77 34 -148 42 -155 19 -200 31 -235
61 -31 28 -59 39 -88 36 -29 -3 -82 21 -107 49 -10 11 -25 20 -34 20 -25 0
-132 77 -251 181 -32 27 -54 39 -77 39 -27 0 -32 4 -35 28 -2 16 -12 31 -23
36 -12 5 -34 30 -50 55 -26 40 -35 46 -69 49 -28 2 -40 9 -43 23 -3 10 -14 19
-24 19 -20 0 -26 15 -9 25 6 3 10 9 10 13 0 13 -60 41 -74 36 -8 -3 -17 3 -21
14 -3 11 -20 25 -37 31 -41 15 -48 14 -48 -4z"/>
<path d="M6513 3213 c-33 -23 -28 -36 7 -18 17 9 30 20 30 25 0 14 -11 12 -37
-7z"/>
<path d="M6442 3148 c-18 -18 -15 -28 8 -28 13 0 20 7 20 20 0 23 -10 26 -28
8z"/>
</g>
</svg>
