<svg width="111" height="111" viewBox="0 0 111 111" fill="none" xmlns="http://www.w3.org/2000/svg">
<g clip-path="url(#clip0_95_74)">
<path d="M110.546 62.5472C114.431 32.1388 92.9556 4.3381 62.6027 0.453972C32.2498 -3.43059 4.33811 18.0444 0.453972 48.3973C-3.43059 78.7502 18.0444 106.606 48.3973 110.546C78.8057 114.431 106.606 92.9556 110.546 62.5472Z" fill="#FF6C37"/>
<path d="M75.532 35.6345L52.1149 59.0516L45.5117 52.4479C68.5399 29.4198 70.8154 31.4173 75.532 35.6345Z" fill="white"/>
<path d="M52.1151 59.6061C51.9486 59.6061 51.8376 59.5506 51.7271 59.4396L45.0679 52.8364C45.0153 52.7863 44.9734 52.7261 44.9448 52.6593C44.9161 52.5925 44.9014 52.5206 44.9014 52.4479C44.9014 52.3753 44.9161 52.3034 44.9448 52.2366C44.9734 52.1698 45.0153 52.1095 45.0679 52.0594C68.485 28.6428 70.9266 30.8623 75.8652 35.3015C75.9758 35.4125 76.0313 35.5234 76.0313 35.6899C76.0313 35.8564 75.9758 35.9675 75.8652 36.0785L52.4481 59.4396C52.3926 59.5506 52.2261 59.6061 52.1151 59.6061ZM46.2889 52.4479L52.1151 58.2745L74.6997 35.6899C70.5936 32.0278 67.8186 30.9174 46.2889 52.4479Z" fill="#FF6C37"/>
<path d="M58.8294 65.7658L52.4478 59.3841L75.8649 35.9675C82.1346 42.2936 72.7573 52.5589 58.829 65.7658H58.8294Z" fill="white"/>
<path d="M58.8294 66.3208C58.6629 66.3208 58.5519 66.2653 58.4409 66.1543L52.0592 59.7727C51.9482 59.6617 51.9482 59.5507 51.9482 59.3842C51.9482 59.2177 52.0037 59.1067 52.1147 58.9961L75.5318 35.579C75.5819 35.5264 75.6422 35.4846 75.7089 35.456C75.7757 35.4274 75.8475 35.4127 75.9201 35.4127C75.9927 35.4127 76.0646 35.4274 76.1313 35.456C76.1981 35.4846 76.2583 35.5264 76.3084 35.579C77.0169 36.2346 77.5766 37.0345 77.9499 37.9247C78.3232 38.8149 78.5014 39.7748 78.4725 40.7396C78.3615 46.8993 71.3702 54.723 59.2729 66.1543C59.1069 66.2653 58.9404 66.3208 58.8294 66.3208ZM53.2247 59.3842C56.7759 62.9912 58.2744 64.4338 58.8294 64.9888C68.1516 56.1105 77.1964 47.0103 77.2519 40.7396C77.3074 39.2971 76.7524 37.8541 75.8093 36.7445L53.2247 59.3842Z" fill="#FF6C37"/>
<path d="M45.6227 52.6145L50.3393 57.3311C50.4503 57.4421 50.4503 57.5531 50.3393 57.6641C50.2838 57.7196 50.2838 57.7196 50.2283 57.7196L40.4621 59.8282C39.9626 59.8837 39.519 59.5507 39.408 59.0516C39.3525 58.7741 39.4635 58.4966 39.63 58.3301L45.2897 52.67C45.4007 52.559 45.5672 52.5035 45.6227 52.6145Z" fill="white"/>
<path d="M40.2956 60.3831C39.4631 60.3831 38.853 59.7171 38.853 58.885C38.853 58.4965 39.0195 58.108 39.297 57.8305L44.9567 52.1704C45.2897 51.8929 45.7337 51.8929 46.0667 52.1704L50.7834 56.887C51.1164 57.1645 51.1164 57.664 50.7834 57.997C50.6724 58.108 50.5614 58.1635 50.3949 58.219L40.6286 60.3276C40.5176 60.3276 40.4066 60.3831 40.2956 60.3831ZM45.4562 53.2245L40.0181 58.663C39.9071 58.774 39.852 58.9405 39.9626 59.107C40.0181 59.2731 40.1846 59.3286 40.3511 59.2731L49.5069 57.2755L45.4562 53.2245Z" fill="#FF6C37"/>
<path d="M87.9063 22.65C84.3548 19.2095 78.6391 19.3205 75.199 22.9275C71.7584 26.5342 71.8694 32.1943 75.4765 35.6344C76.9002 37.0101 78.7391 37.876 80.7065 38.0968C82.6739 38.3177 84.659 37.8812 86.3523 36.8554L80.0262 30.5293L87.9063 22.65Z" fill="white"/>
<path d="M81.6912 38.6866C76.4196 38.6866 72.147 34.4139 72.147 29.1423C72.147 23.8707 76.4196 19.598 81.6912 19.598C84.1328 19.598 86.5189 20.5415 88.2949 22.2616C88.4054 22.3726 88.4609 22.4836 88.4609 22.6501C88.4609 22.8166 88.4054 22.9276 88.2944 23.0382L80.8032 30.5294L86.6854 36.4115C86.9074 36.6335 86.9074 36.9665 86.6854 37.1885L86.5744 37.2995C85.1318 38.1871 83.4113 38.6866 81.6912 38.6866ZM81.6912 20.7631C77.0301 20.7631 73.257 24.5367 73.3125 29.1978C73.3125 33.8589 77.0856 37.6321 81.7467 37.5766C83.0232 37.5766 84.2993 37.2991 85.4648 36.689L79.6382 30.9179C79.5272 30.8069 79.4717 30.6959 79.4717 30.5294C79.4717 30.3629 79.5272 30.2519 79.6382 30.1413L87.0739 22.7052C85.5754 21.4291 83.6888 20.7631 81.6912 20.7631Z" fill="#FF6C37"/>
<path d="M88.0726 22.8166L87.9621 22.7056L80.0269 30.5293L86.2971 36.8C86.9076 36.4115 87.5181 35.9675 88.0171 35.468C88.8578 34.6445 89.5267 33.6624 89.9851 32.5785C90.4434 31.4947 90.6821 30.3306 90.6872 29.1539C90.6924 27.9771 90.4639 26.811 90.0151 25.7231C89.5663 24.6353 88.9061 23.6474 88.0726 22.8166Z" fill="white"/>
<path d="M86.3524 37.4104C86.1859 37.4104 86.0749 37.355 85.9639 37.244L79.6382 30.9178C79.5272 30.8068 79.4717 30.6958 79.4717 30.5293C79.4717 30.3628 79.5272 30.2518 79.6382 30.1413L87.5179 22.2616C87.568 22.209 87.6282 22.1671 87.695 22.1386C87.7617 22.11 87.8336 22.0952 87.9062 22.0952C87.9788 22.0952 88.0506 22.11 88.1174 22.1386C88.1841 22.1671 88.2444 22.209 88.2944 22.2616L88.4609 22.3726C92.179 26.0902 92.179 32.0833 88.5164 35.8565C87.9614 36.4114 87.3514 36.911 86.6854 37.2995C86.5189 37.355 86.4079 37.4104 86.3524 37.4104ZM80.8032 30.5293L86.4079 36.1339C86.8519 35.8564 87.2959 35.4679 87.6289 35.1349C90.7915 31.9723 90.958 26.8117 87.9064 23.4821L80.8032 30.5293Z" fill="#FF6C37"/>
<path d="M76.4753 36.6335C75.8347 35.9939 74.9666 35.6347 74.0614 35.6347C73.1563 35.6347 72.2881 35.9939 71.6476 36.6335L50.728 57.553L54.2241 61.0491L76.3643 41.6276C77.8073 40.4066 77.9183 38.2425 76.6973 36.8C76.5863 36.7445 76.5308 36.689 76.4753 36.6335Z" fill="white"/>
<path d="M54.1683 61.6037C54.0018 61.6037 53.8908 61.5482 53.7798 61.4377L50.2838 57.9416C50.2311 57.8915 50.1892 57.8312 50.1606 57.7644C50.132 57.6977 50.1172 57.6257 50.1172 57.5531C50.1172 57.4804 50.132 57.4085 50.1606 57.3417C50.1892 57.275 50.2311 57.2147 50.2838 57.1646L71.2033 36.245C71.5706 35.8757 72.0073 35.5826 72.4882 35.3826C72.9691 35.1827 73.4848 35.0797 74.0057 35.0797C74.5265 35.0797 75.0422 35.1827 75.5231 35.3826C76.0041 35.5826 76.4407 35.8757 76.808 36.245C77.1773 36.6123 77.4704 37.0489 77.6703 37.5298C77.8703 38.0108 77.9733 38.5265 77.9733 39.0473C77.9733 39.5681 77.8703 40.0839 77.6703 40.5648C77.4704 41.0457 77.1773 41.4823 76.808 41.8496L76.6415 42.0161L54.5009 61.4377C54.4454 61.5482 54.3344 61.6037 54.1683 61.6037ZM51.5048 57.5531L54.2234 60.2722L75.9755 41.1836C77.1965 40.1846 77.3075 38.3536 76.3085 37.133C75.3099 35.912 73.4788 35.801 72.2578 36.8C72.2023 36.8555 72.1468 36.911 72.0358 36.9665L51.5048 57.5531Z" fill="#FF6C37"/>
<path d="M34.6912 81.3582C34.4692 81.4692 34.3582 81.6913 34.4137 81.9133L35.3568 85.9084C35.5788 86.4634 35.2458 87.1294 34.6357 87.2959C34.1917 87.4624 33.6922 87.2959 33.4147 86.9629L27.311 80.9143L47.2316 60.9937L54.1128 61.1047L58.7739 65.7658C57.6639 66.7088 50.9497 73.2015 34.6912 81.3582Z" fill="white"/>
<path d="M34.2474 87.8505C33.8034 87.8505 33.3594 87.6844 33.0819 87.3514L27.0333 81.3028C26.9227 81.1918 26.8672 81.0808 26.8672 80.9143C26.8672 80.7482 26.9227 80.6368 27.0337 80.5262L46.9547 60.6052C47.0657 60.4942 47.2322 60.4387 47.3428 60.4387L54.2239 60.5497C54.39 60.5497 54.5014 60.6052 54.612 60.7162L59.2731 65.3773C59.3841 65.4883 59.4396 65.6548 59.4396 65.8213C59.4396 65.9878 59.3841 66.0988 59.2176 66.2098L58.8296 66.5424C52.9474 71.703 44.9567 76.8636 35.0244 81.8023L35.9675 85.7419C36.134 86.4634 35.801 87.2404 35.135 87.6289C34.8024 87.7954 34.5249 87.8505 34.2474 87.8505ZM28.1433 80.9143L33.8589 86.5744C34.0254 86.8519 34.3584 86.9629 34.6359 86.7964C34.9134 86.6299 35.0244 86.2969 34.8579 86.0194L33.9144 82.0243C33.8034 81.5248 34.0254 81.0808 34.4694 80.8588C44.2912 75.9201 52.2259 70.8154 58.0525 65.7654L53.9464 61.6592L47.5648 61.5482L28.1433 80.9143Z" fill="#FF6C37"/>
<path d="M22.5948 85.6868L27.3669 80.9142L34.4692 88.0169L23.1494 87.2404C22.6503 87.1849 22.3169 86.7409 22.3728 86.2414C22.3728 86.0194 22.4283 85.7978 22.5948 85.6868Z" fill="white"/>
<path d="M34.4695 88.5165L23.0937 87.7399C22.2612 87.6844 21.7066 86.9629 21.7621 86.1304C21.8176 85.7974 21.9286 85.4648 22.2061 85.2428L26.9783 80.4707C27.0284 80.4181 27.0886 80.3762 27.1554 80.3475C27.2222 80.3189 27.2941 80.3041 27.3668 80.3041C27.4394 80.3041 27.5113 80.3189 27.5781 80.3475C27.6449 80.3762 27.7052 80.4181 27.7553 80.4707L34.8575 87.573C35.0245 87.7399 35.0795 87.9619 34.969 88.1835C34.858 88.4055 34.6915 88.5165 34.4695 88.5165ZM27.3668 81.6917L22.9831 86.0753C22.8166 86.1859 22.8166 86.4634 22.9831 86.5744C23.0382 86.6299 23.0937 86.6854 23.2047 86.6854L33.0265 87.3514L27.3668 81.6913V81.6917ZM45.2898 63.5462C44.9568 63.5462 44.7348 63.2687 44.7348 62.9912C44.7348 62.8247 44.7903 62.7137 44.9013 62.6027L50.2839 57.2201C50.334 57.1675 50.3943 57.1256 50.4611 57.0969C50.5278 57.0683 50.5998 57.0535 50.6724 57.0535C50.7451 57.0535 50.817 57.0683 50.8838 57.0969C50.9506 57.1256 51.0108 57.1675 51.0609 57.2201L54.5565 60.7162C54.723 60.8827 54.7785 61.0492 54.723 61.2712C54.6675 61.4377 54.501 61.6037 54.2795 61.6592L45.4008 63.5462H45.2898ZM50.6724 58.3856L47.0103 62.0477L53.003 60.7717L50.6724 58.3856Z" fill="#FF6C37"/>
<path d="M54.1125 61.1046L48.0088 62.4362C47.5648 62.5472 47.1208 62.2697 47.0103 61.8257C46.9548 61.5482 47.0103 61.2707 47.2318 61.0491L50.6169 57.6641L54.1125 61.1046Z" fill="white"/>
<path d="M47.8978 62.9912C47.7151 62.993 47.5338 62.9584 47.3647 62.8894C47.1955 62.8203 47.0418 62.7182 46.9126 62.5889C46.7834 62.4597 46.6812 62.306 46.6122 62.1369C46.5431 61.9677 46.5085 61.7864 46.5103 61.6037C46.5103 61.2156 46.6773 60.8826 46.8993 60.6051L50.2839 57.2201C50.334 57.1674 50.3943 57.1255 50.461 57.0969C50.5278 57.0683 50.5997 57.0535 50.6724 57.0535C50.7451 57.0535 50.817 57.0683 50.8837 57.0969C50.9505 57.1255 51.0108 57.1674 51.0609 57.2201L54.5565 60.7161C54.723 60.8826 54.7785 61.0491 54.723 61.2711C54.6675 61.4376 54.501 61.6037 54.2795 61.6592L48.1753 62.9912H47.8978ZM50.6724 58.3856L47.6763 61.3817C47.5648 61.4931 47.5648 61.6037 47.6203 61.7147C47.6758 61.8257 47.7868 61.8812 47.9533 61.8812L53.0585 60.7712L50.6724 58.3856ZM88.128 28.1433C88.017 27.8107 87.6289 27.6442 87.2955 27.7552C86.9629 27.8658 86.7964 28.2543 86.9074 28.5877C86.9074 28.6428 86.9629 28.6983 86.9629 28.7538C87.2959 29.4198 87.1849 30.2518 86.7409 30.8623C86.5189 31.1398 86.5744 31.5283 86.7964 31.7503C87.0739 31.9723 87.4624 31.9168 87.6844 31.6393C88.5169 30.5848 88.683 29.2533 88.128 28.1433Z" fill="#FF6C37"/>
</g>
<defs>
<clipPath id="clip0_95_74">
<rect width="111" height="111" fill="white"/>
</clipPath>
</defs>
</svg>
