<svg width="132" height="80" viewBox="0 0 132 80" fill="none" xmlns="http://www.w3.org/2000/svg">
<path d="M66 0C48.4002 0 37.3998 8.86597 33 26.5974C39.6 17.7314 47.2998 14.4068 56.1 16.6234C61.1206 17.8878 64.7094 21.5579 68.6818 25.6197C75.1529 32.2374 82.6418 39.8961 99 39.8961C116.6 39.8961 127.6 31.0301 132 13.2987C125.4 22.1647 117.7 25.4894 108.9 23.2727C103.879 22.0083 100.291 18.3382 96.3182 14.2764C89.8471 7.6587 82.3582 0 66 0ZM33 39.8961C15.4002 39.8961 4.39983 48.7621 0 66.4935C6.6 57.6275 14.2998 54.3029 23.1 56.5195C28.1206 57.7839 31.7094 61.454 35.6818 65.5158C42.1529 72.1335 49.6418 79.7922 66 79.7922C83.5998 79.7922 94.6002 70.9262 99 53.1948C92.4 62.0608 84.7002 65.3855 75.9 63.1688C70.8794 61.9044 67.2906 58.2343 63.3182 54.1725C56.8471 47.5548 49.3582 39.8961 33 39.8961Z" fill="url(#paint0_linear_95_97)"/>
<defs>
<linearGradient id="paint0_linear_95_97" x1="-366.696" y1="2553.35" x2="11075.9" y2="9101.97" gradientUnits="userSpaceOnUse">
<stop stop-color="#2298BD"/>
<stop offset="1" stop-color="#0ED7B5"/>
</linearGradient>
</defs>
</svg>
