<svg width="132" height="132" viewBox="0 0 132 132" fill="none" xmlns="http://www.w3.org/2000/svg">
<g clip-path="url(#clip0_95_63)">
<path d="M10.3125 0H121.688C127.383 0 132 4.61691 132 10.3125V121.688C132 127.383 127.383 132 121.688 132H10.3125C4.61691 132 0 127.383 0 121.688V10.3125C0 4.61691 4.61691 0 10.3125 0Z" fill="#007ACC"/>
<path d="M77.6108 103.37V117.611C79.927 118.798 82.6665 119.688 85.8289 120.282C88.9912 120.875 92.3242 121.172 95.8284 121.172C99.2429 121.172 102.487 120.845 105.56 120.193C108.633 119.54 111.329 118.464 113.644 116.966C115.96 115.468 117.794 113.51 119.145 111.091C120.496 108.674 121.172 105.685 121.172 102.124C121.172 99.543 120.786 97.2804 120.014 95.337C119.25 93.4068 118.115 91.6452 116.673 90.1524C115.218 88.639 113.474 87.2819 111.44 86.08C109.406 84.8786 107.112 83.7437 104.558 82.6758C102.687 81.9039 101.01 81.1552 99.5249 80.4282C98.0404 79.7012 96.7782 78.9597 95.7392 78.2028C94.6997 77.4464 93.8979 76.6451 93.3338 75.7995C92.7697 74.9538 92.4877 73.9973 92.4877 72.929C92.4877 71.9498 92.7398 71.0676 93.2446 70.2812C93.7494 69.4949 94.4625 68.82 95.3829 68.2564C96.3033 67.6923 97.4315 67.255 98.768 66.9431C100.104 66.6316 101.589 66.4759 103.222 66.4759C104.41 66.4759 105.664 66.5651 106.985 66.743C108.307 66.9209 109.636 67.1952 110.972 67.5665C112.305 67.9358 113.607 68.4044 114.869 68.9685C116.093 69.5108 117.264 70.1663 118.366 70.9263V57.6195C116.198 56.7889 113.83 56.1732 111.262 55.7726C108.693 55.3719 105.746 55.1719 102.42 55.1719C99.0351 55.1719 95.8284 55.5354 92.7996 56.2624C89.7708 56.9889 87.1056 58.1238 84.8043 59.6666C82.5031 61.2098 80.6845 63.1754 79.348 65.5638C78.012 67.9522 77.3438 70.8077 77.3438 74.1309C77.3438 78.3735 78.5684 81.9931 81.0186 84.99C83.4683 87.9862 87.187 90.5231 92.1757 92.6001C94.0173 93.3501 95.8438 94.1365 97.6542 94.959C99.347 95.7304 100.809 96.5312 102.042 97.3619C103.274 98.1925 104.246 99.0975 104.959 100.077C105.672 101.056 106.028 102.169 106.028 103.415C106.034 104.312 105.803 105.194 105.36 105.974C104.915 106.76 104.239 107.442 103.333 108.021C102.428 108.599 101.299 109.052 99.9482 109.378C98.5973 109.704 97.0159 109.868 95.2045 109.868C92.1164 109.868 89.0582 109.326 86.0295 108.243C83.0002 107.16 80.1941 105.536 77.6108 103.37ZM53.8735 67.9295H72.1875V56.2031H21.1406V67.9295H39.3654V120.141H53.8735V67.9295Z" fill="white"/>
</g>
<defs>
<clipPath id="clip0_95_63">
<rect width="132" height="132" fill="white"/>
</clipPath>
</defs>
</svg>
